<?xml version="1.0" encoding="UTF-8"?>
<!DOCTYPE svg PUBLIC "-//W3C//DTD SVG 1.1//EN" "http://www.w3.org/Graphics/SVG/1.1/DTD/svg11.dtd">
<!-- Creator: CorelDRAW X5 -->
<svg xmlns="http://www.w3.org/2000/svg" xml:space="preserve" width="158.75mm" height="79.375mm" style="shape-rendering:geometricPrecision; text-rendering:geometricPrecision; image-rendering:optimizeQuality; fill-rule:evenodd; clip-rule:evenodd"
viewBox="0 0 15875 7938"
 xmlns:xlink="http://www.w3.org/1999/xlink">
 <defs>
  <style type="text/css">
   <![CDATA[
    .fil2 {fill:none}
    .fil1 {fill:#3300CC}
    .fil0 {fill:white}
   ]]>
  </style>
 </defs>
 <g id="Warstwa_x0020_1">
  <metadata id="CorelCorpID_0Corel-Layer"/>
  <g id="_447081136">
   <g>
    <polygon class="fil0" points="3561,-1833 3561,-1852 3539,-1837 "/>
    <path class="fil0" d="M3673 -1777l6 -6c0,0 -7,4 -6,6z"/>
    <polygon class="fil0" points="3561,-1833 3597,-1812 "/>
   </g>
   <g>
    <path class="fil1" d="M2094 6145c-218,-76 -485,-422 -573,-636 -30,-74 -40,-88 -72,-152 -44,-88 -93,-243 -122,-345 -132,-471 -185,-713 -142,-1235 13,-159 -137,-220 -268,-169 -75,29 -53,114 -57,178 -5,81 -22,137 -28,223 -22,302 6,574 77,863 29,120 58,254 97,370 108,328 185,395 314,617 169,290 422,393 472,471 -101,12 -206,33 -231,143 108,118 485,166 678,118 110,-27 116,-30 181,-99 12,-89 -29,-432 -56,-521 -39,-130 -43,-263 -203,-203 -146,55 -86,133 -67,377z"/>
    <path class="fil1" d="M7052 5973c109,-3 368,68 431,-22 47,-99 -131,-126 -201,-150 69,-59 135,-112 211,-174 266,-220 206,-139 355,-392 62,-106 89,-120 135,-239l179 -569c31,-172 74,-576 -89,-639 -311,-120 -125,167 -185,516 -31,178 -117,402 -175,571 -99,292 -418,693 -709,768 47,-121 190,-321 179,-445 -279,-157 -273,29 -368,253 -96,227 -245,350 -213,487 125,53 289,38 451,34z"/>
   </g>
   <g>
    <path class="fil1" d="M5025 5745c203,-35 377,-24 590,-17 216,8 335,15 429,165 184,293 190,578 48,947 -65,168 -92,294 -284,328 -306,53 -820,10 -1146,10 -200,0 -398,5 -598,2 -284,-4 -881,127 -1113,-25 -181,-118 47,-792 116,-951 47,-108 101,-73 196,-120 67,-33 118,-99 163,-136 79,-65 135,-38 241,-76l26 -11c97,-36 836,-88 1029,-106 92,-9 216,4 303,-11zm1509 598c20,-130 5,-178 -37,-305 -35,-106 -88,-154 -139,-234 -110,-173 -239,-232 -486,-262 -490,-59 -946,2 -1416,33 -481,32 -1188,38 -1531,337 -300,262 -411,687 -411,1083 0,133 -43,254 69,306 171,79 405,129 623,133 242,5 484,-10 721,-34 588,-58 1365,72 2102,-65 205,-38 311,-195 365,-382 28,-95 89,-183 99,-277 14,-135 22,-203 41,-335z"/>
    <path class="fil1" d="M7135 1350c-62,-24 -15,-4 -77,-35 -26,-13 -40,-21 -62,-31 -107,-51 -157,-110 -298,-76 -65,16 -83,39 -103,95 -1,106 589,306 693,363 109,59 193,27 326,32 48,-109 56,-32 39,-173 -12,-102 111,-417 -24,-629 -98,-2 -151,-10 -196,61 -38,58 -52,134 -45,221 -252,-182 -129,-151 -481,-348 -99,-55 -75,-75 -253,-158 -471,-219 -702,-331 -1261,-404 -130,-17 -278,-10 -400,-27 -332,-46 -734,-29 -1036,116 -486,233 -859,497 -1144,965 -73,119 -128,234 92,206 219,-27 86,-230 617,-637 270,-208 808,-481 1195,-481l742 76c195,36 489,109 653,187 285,136 234,130 397,217 185,99 524,254 625,458z"/>
   </g>
   <g>
    <path class="fil2" d="M6534 6343c-20,132 -27,200 -41,335 -10,94 -71,182 -99,277 -54,187 -160,344 -365,382 -737,137 -1514,7 -2102,65 -237,23 -479,38 -721,34 -217,-4 -452,-54 -623,-133 -113,-52 -69,-174 -69,-306 0,-395 111,-821 411,-1083 344,-299 1050,-306 1531,-337 470,-31 927,-92 1416,-33 247,30 376,89 486,262 51,80 104,128 139,234 42,127 56,175 37,305zm-2867 1885l-513 0 -4 0 -530 -86c-176,-53 -375,-13 -573,-25 -108,-6 -40,7 -97,-34 -63,-46 -102,-27 -160,-82 -31,-30 -25,-30 -46,-66 -58,-99 -124,-95 -190,-183 -30,-40 -16,-26 -56,-56 -94,-71 -176,-146 -239,-246 -59,-94 -69,-55 -127,-116 -47,-49 -35,-83 -107,-135 -75,-53 -68,-56 -127,-116 -60,-60 -57,-46 -116,-127 -90,-124 -251,-252 -363,-365 -61,-63 -53,-71 -94,-149 -86,-163 -155,-126 -247,-481 -76,-296 -68,-314 -65,-663 1,-86 -15,-142 -32,-211 -18,-74 -3,-161 -5,-238 -3,-128 -33,-88 -39,-204 -4,-77 4,-166 2,-244 -3,-129 -33,-88 -39,-204 -5,-97 -14,-122 -32,-211 -16,-78 7,-150 -16,-227l-57 -242c-2,-5 -3,-10 -5,-14 -85,-246 -8,-251 -46,-365l-53 -78c-38,-76 -9,-252 -34,-321 -14,-39 -19,-162 -18,-225 1,-49 1,-91 -14,-136 -1,-4 -4,-9 -6,-13 -2,-4 -4,-9 -6,-13 -6,-19 -4,9 -12,-44 0,-2 -1,-5 -1,-8l0 -244c3,-39 0,-16 12,-52l82 -198c47,-122 -27,-53 71,-190l21 -35c51,-86 136,-152 206,-223 14,-14 7,-3 27,-29l41 -71c2,-4 4,-9 6,-13l15 -41c81,-230 121,-204 177,-309l30 -83c7,-16 35,-63 49,-82 34,-49 26,-20 41,-71l67 -250c3,-8 9,-26 15,-41l100 -255c39,-83 61,-75 87,-155l141 -270c65,-113 15,-59 76,-130 41,-47 303,-191 372,-225 86,-43 78,-37 141,-101 65,-66 66,-57 146,-97 94,-47 57,-52 119,-123 39,-45 87,-59 137,-107 85,-83 26,-59 152,-52 209,11 613,36 800,-59 88,-44 172,-48 254,-100 147,-94 323,-173 477,-251 98,-49 249,-89 280,-205 65,15 82,41 135,52 51,10 104,1 159,9 228,33 50,15 303,33 97,7 188,49 288,67 56,10 95,7 149,19 76,16 60,20 142,26 102,7 77,1 149,38 107,55 228,55 345,84 0,0 56,19 56,19 217,54 656,69 779,99 229,56 591,23 836,23 211,0 135,-1 304,32 65,13 101,0 170,17 80,20 44,18 143,26 119,9 149,56 261,75 96,16 51,9 118,69 97,85 197,135 317,187 163,70 270,181 430,260 109,54 110,93 202,153 76,50 158,58 232,104l199 156c62,57 136,75 214,122l368 322c92,125 325,322 341,350 50,89 84,140 136,218 45,67 75,153 126,210l157 198c84,110 183,341 215,476 25,107 78,153 81,250 -504,-426 -1014,-413 -1680,-370 -609,39 -828,-4 -1432,138 -60,14 -226,85 -270,123 -15,13 -23,30 -25,33 -1,1 -3,7 -3,8 0,1 -2,9 -3,7 0,-2 -1,5 -2,7 -203,-27 -202,-31 -308,107 -95,124 -106,120 -156,293 -84,294 -121,446 -112,780 7,260 242,381 421,474 206,107 492,121 753,124 840,11 866,23 1703,-68 257,-28 579,11 791,-107 192,-107 202,-487 288,-594l0 189c43,16 70,43 93,75l14 23c0,0 19,35 20,36 27,58 20,14 25,107 1,17 0,97 -2,112l-11 45c-35,106 -107,189 -140,290 -28,86 -256,394 -295,433 -15,15 -94,67 -200,174l-104 138c-18,20 -36,35 -57,55 -101,100 -225,193 -304,312 -42,63 -74,75 -118,125 -71,80 -99,177 -173,256 -21,22 -4,5 -25,31 -38,48 -87,67 -133,110 -100,92 -85,45 -222,133 -90,58 -178,72 -244,148l-17 20c-69,77 -122,70 -207,167 -1,1 -25,28 -27,29l-295 303c-36,56 -45,104 -88,154l-90 96c-150,213 -128,68 -439,233 -1,1 -35,20 -36,20l-74 57c-97,60 -74,68 -145,153 -79,95 -315,256 -431,297l-276 79c-45,10 -73,3 -119,12l-200 43c-2,1 -38,14 -41,15l-108 23c-105,30 -213,46 -313,98 -151,77 -302,5 -511,105 -99,48 -571,191 -644,196l-363 123c-204,82 -172,95 -301,185 -68,47 -16,17 -100,31 -231,37 -66,19 -320,35 -114,7 -239,68 -378,75zm5929 -3854c-1,-58 -5,-84 -45,-128 -45,332 -219,673 -376,972 -341,653 -747,992 -1397,1309 -176,86 -846,381 -1061,262 -34,-131 74,-134 186,-147 340,-40 449,-76 766,-244 152,-80 287,-145 430,-241 72,-48 132,-79 195,-141 25,-25 49,-53 82,-86 301,-301 428,-481 632,-899 64,-130 369,-892 302,-1013 -29,18 -161,184 -189,229 -50,79 -121,217 -257,175 -209,-64 391,-649 510,-690 332,-114 518,421 328,615 -104,107 22,-14 -106,25zm-2314 1427c70,24 248,51 201,150 -63,90 -322,19 -431,22 -161,4 -326,19 -451,-34 -32,-137 117,-260 213,-487 95,-224 89,-410 368,-253 12,124 -132,324 -179,445 291,-75 610,-476 709,-768 58,-169 144,-394 175,-571 61,-349 -125,-636 185,-516 163,63 120,467 89,639l-179 569c-46,119 -72,133 -135,239 -149,253 -89,172 -355,392 -76,63 -142,115 -211,174zm-5188 343c-19,-244 -79,-322 67,-377 160,-60 164,73 203,203 27,90 68,433 56,521 -65,69 -71,72 -181,99 -194,48 -570,0 -678,-118 25,-110 130,-131 231,-143 -50,-78 -303,-181 -472,-471 -129,-222 -206,-290 -314,-617 -39,-117 -68,-251 -97,-370 -70,-289 -99,-561 -77,-863 6,-86 23,-143 28,-223 4,-64 -18,-148 57,-178 131,-51 281,10 268,169 -43,521 10,763 142,1235 29,102 77,257 122,345 32,64 41,78 72,152 88,215 355,560 573,636zm460 -2670c74,133 226,348 202,537 -79,43 -215,109 -286,-15 -52,-91 -78,-208 -142,-269 -54,98 -39,171 -31,268 7,85 -32,171 -19,290 19,172 154,582 224,762 34,89 76,136 120,218 122,227 534,342 225,418 -37,9 -89,19 -140,14 -95,-9 -152,-64 -220,-112 -145,-102 -235,-199 -318,-374 -149,-313 -262,-714 -244,-1136 -38,21 -11,4 -45,25 -79,48 -167,116 -324,64 -16,-116 37,-97 107,-186 64,-81 91,-106 147,-170 54,-62 105,-116 151,-167 41,-45 138,-117 160,-156 -95,-44 -508,4 -652,4 -225,0 -453,-33 -672,-26 -385,11 -523,55 -853,-151 -283,-177 -165,-1062 42,-1385 110,-171 214,-211 440,-253 188,-35 412,-95 596,-112 410,-38 843,98 1268,105 192,3 433,49 618,75 235,34 354,64 523,190 267,198 164,478 106,763 -12,57 -8,100 -18,151 -26,125 -99,271 -165,358 -51,68 -69,136 -159,195 -159,104 -434,66 -641,73zm4580 -2125c-101,-204 -440,-359 -625,-458 -163,-87 -112,-81 -397,-217 -164,-79 -458,-151 -653,-187l-742 -76c-387,0 -925,273 -1195,481 -530,407 -398,610 -617,637 -221,28 -165,-87 -92,-206 285,-468 658,-732 1144,-965 302,-145 704,-162 1036,-116 122,17 270,10 400,27 559,72 791,184 1261,404 178,83 154,102 253,158 352,197 230,166 481,348 -7,-88 7,-163 45,-221 45,-70 98,-63 196,-61 135,212 12,527 24,629 17,141 9,65 -39,173 -134,-5 -217,27 -326,-32 -104,-56 -694,-257 -693,-363 20,-56 39,-79 103,-95 141,-34 191,25 298,76 21,10 36,18 62,31 62,31 14,11 77,35zm-5805 -672c73,-211 392,-653 582,-819 418,-365 1301,-772 1911,-851 577,-75 641,-121 1287,-98 471,16 797,56 1223,161 496,123 554,222 957,425 149,75 156,93 225,130 199,106 55,17 193,144l404 287c112,80 578,625 527,824 -320,151 -311,-36 -386,-182 -42,-81 -86,-133 -126,-190 -61,-88 -221,-295 -310,-342 -45,-24 -84,-32 -117,-51 -66,-39 -27,-35 -98,-73 -58,-31 -71,-11 -103,-63 -33,-52 18,-85 -229,-239 -510,-317 -1042,-553 -1673,-602 -416,-32 -802,-28 -1210,6 -163,14 -392,58 -566,87 -516,85 -1351,496 -1727,866 -182,179 -455,526 -515,790 119,-43 388,-394 515,-416 93,-16 323,44 114,188 -451,312 -567,682 -587,701 -57,55 -252,58 -308,7 -48,-44 -163,-384 -222,-506 -55,-114 -118,-128 -118,-230 89,-84 168,-63 270,0 35,21 43,34 87,46z"/>
    <path class="fil2" d="M9641 1761c-382,30 -820,18 -1186,70 -572,81 -457,120 -716,229 -76,32 -96,-21 -157,127 -92,228 -209,872 -14,1045 9,8 161,114 187,127 60,30 184,65 243,74 213,33 976,37 1219,32 86,-2 173,-30 269,-46l888 -68c121,-6 153,-29 197,-115 37,-73 67,-146 92,-225 93,-295 130,-514 125,-831 -2,-135 8,-186 -73,-247 -224,-172 -724,-199 -1074,-171z"/>
    <path class="fil2" d="M5025 5745c-87,15 -211,2 -303,11 -193,18 -932,70 -1029,106l-26 11c-107,38 -163,11 -241,76 -44,37 -96,102 -163,136 -95,47 -149,12 -196,120 -69,159 -297,833 -116,951 232,151 829,20 1113,25 200,3 398,-2 598,-2 325,-1 840,43 1146,-10 192,-33 220,-160 284,-328 142,-369 136,-654 -48,-947 -94,-150 -213,-157 -429,-165 -213,-8 -386,-18 -590,17z"/>
    <path class="fil2" d="M1003 1797c-136,26 -26,-7 -255,52 -93,24 -180,29 -267,36 -395,32 -413,387 -410,781 3,381 64,650 578,615 322,-22 227,-11 560,4 387,18 766,-15 1157,-10 181,2 367,3 542,-10 274,-20 418,-887 346,-1095 -63,-183 -466,-236 -646,-251l-1606 -122z"/>
   </g>
   <path class="fil1" d="M2609 1919c180,15 582,68 646,251 72,208 -72,1075 -346,1095 -175,13 -361,12 -542,10 -391,-5 -770,28 -1157,10 -333,-16 -238,-26 -560,-4 -513,35 -574,-234 -578,-615 -3,-394 15,-750 410,-781 86,-7 173,-12 267,-36 228,-59 119,-26 255,-52l1606 122zm-54 1556c207,-8 482,30 641,-73 90,-59 107,-127 159,-195 66,-87 139,-233 165,-358 11,-51 7,-94 18,-151 58,-285 162,-565 -106,-763 -169,-126 -288,-156 -523,-190 -185,-27 -426,-72 -618,-75 -426,-7 -858,-144 -1268,-105 -184,17 -409,77 -596,112 -226,42 -330,82 -440,253 -207,322 -326,1208 -42,1385 330,206 468,162 853,151 219,-7 447,27 672,26 144,0 558,-48 652,-4 -23,39 -119,110 -160,156 -46,51 -97,105 -151,167 -55,64 -83,89 -147,170 -70,89 -123,70 -107,186 157,52 245,-16 324,-64 34,-20 7,-4 45,-25 -18,423 96,824 244,1136 83,175 173,272 318,374 68,48 125,103 220,112 51,5 103,-5 140,-14 309,-76 -103,-190 -225,-418 -44,-82 -86,-130 -120,-218 -69,-180 -204,-590 -224,-762 -13,-120 26,-205 19,-290 -8,-97 -23,-170 31,-268 64,61 90,178 142,269 71,124 206,58 286,15 25,-190 -127,-405 -202,-537z"/>
   <path class="fil1" d="M1330 677c-44,-12 -53,-25 -87,-46 -102,-63 -182,-84 -270,0 0,101 63,116 118,230 59,122 174,462 222,506 56,51 250,48 308,-7 20,-19 136,-390 587,-701 209,-144 -22,-203 -114,-188 -127,22 -396,373 -515,416 61,-264 333,-611 515,-790 376,-370 1210,-781 1727,-866 174,-29 404,-73 566,-87 408,-34 794,-38 1210,-6 631,48 1163,285 1673,602 248,154 196,187 229,239 33,52 45,32 103,63 71,38 32,34 98,73 32,19 71,27 117,51 89,47 249,255 310,342 40,57 84,109 126,190 75,146 66,333 386,182 51,-199 -415,-744 -527,-824l-404 -287c-137,-127 7,-37 -193,-144 -69,-37 -76,-55 -225,-130 -403,-203 -460,-302 -957,-425 -427,-105 -753,-145 -1223,-161 -646,-23 -710,24 -1287,98 -610,79 -1494,486 -1911,851 -190,166 -509,608 -582,819z"/>
   <path class="fil1" d="M9641 1761c350,-28 850,-1 1074,171 81,62 71,113 73,247 5,317 -32,535 -125,831 -25,79 -55,152 -92,225 -44,86 -77,108 -197,115l-888 68c-96,16 -183,44 -269,46 -243,6 -1006,1 -1219,-32 -59,-9 -182,-45 -243,-74 -26,-13 -178,-119 -187,-127 -195,-173 -78,-817 14,-1045 60,-148 81,-95 157,-127 259,-109 145,-148 716,-229 366,-52 804,-39 1186,-70zm1424 1126c56,-16 58,-35 69,-78 7,-28 4,-37 10,-65 1,-5 2,-10 4,-15l16 -40c2,-4 5,-8 7,-12 50,-98 -36,74 14,-24 2,-4 5,-8 7,-12l37 -149c1,-4 4,-9 5,-13 13,-37 -1,33 15,-41l1 -255c-12,-58 -4,-18 -15,-41l-29 -46c-21,-29 -25,-28 -41,-52l-38 -75c-7,-12 -16,-28 -24,-36 -504,-426 -1014,-413 -1680,-370 -609,39 -828,-4 -1432,138 -60,14 -226,85 -270,123 -15,13 -23,30 -25,33 -1,1 -3,7 -3,8 0,1 -2,9 -3,7 0,-2 -1,5 -2,7 -203,-27 -202,-31 -308,107 -95,124 -106,120 -156,293 -84,294 -121,446 -112,780 7,260 242,381 421,474 206,107 492,121 753,124 840,11 866,23 1703,-68 257,-28 579,11 791,-107 192,-107 202,-487 288,-594z"/>
   <path class="fil1" d="M9597 4375c128,-39 1,82 106,-25 189,-194 3,-730 -328,-615 -119,41 -719,626 -510,690 136,42 208,-96 257,-175 28,-45 160,-211 189,-229 67,121 -238,883 -302,1013 -204,417 -331,598 -632,899 -33,33 -58,61 -82,86 -63,62 -123,93 -195,141 -143,96 -278,160 -430,241 -317,168 -426,203 -766,244 -112,13 -220,16 -186,147 215,119 885,-177 1061,-262 650,-318 1056,-657 1397,-1309 156,-299 331,-641 376,-972 40,44 44,70 45,128z"/>
  </g>
 </g>
</svg>
