<?xml version="1.0" encoding="UTF-8"?>
<!DOCTYPE svg PUBLIC "-//W3C//DTD SVG 1.1//EN" "http://www.w3.org/Graphics/SVG/1.1/DTD/svg11.dtd">
<!-- Creator: CorelDRAW X5 -->
<svg xmlns="http://www.w3.org/2000/svg" xml:space="preserve" width="158.75mm" height="79.375mm" style="shape-rendering:geometricPrecision; text-rendering:geometricPrecision; image-rendering:optimizeQuality; fill-rule:evenodd; clip-rule:evenodd"
viewBox="0 0 15875 7938"
 xmlns:xlink="http://www.w3.org/1999/xlink">
 <defs>
  <style type="text/css">
   <![CDATA[
    .str1 {stroke:black;stroke-width:20}
    .str0 {stroke:#333333;stroke-width:20}
    .fil0 {fill:none}
    .fil1 {fill:#333333}
    .fil4 {fill:#33CC66}
    .fil3 {fill:#6699FF}
    .fil2 {fill:white}
   ]]>
  </style>
 </defs>
 <g id="Warstwa_x0020_1">
  <metadata id="CorelCorpID_0Corel-Layer"/>
  <g id="_447083056">
   <path class="fil0" d="M13101 -1582c24,-102 53,-190 80,-281 77,-268 -152,-345 330,-428 468,-81 757,-75 1246,112 104,40 220,99 334,150 377,171 570,321 882,572 160,128 287,252 397,423 41,64 7,17 51,71 500,605 569,1565 522,2318 -32,509 -239,1085 -434,1475 -159,317 -366,589 -626,825 -676,615 -2240,997 -3350,987 -67,203 -42,683 -116,796l-10 345c326,-19 932,-97 1242,51 78,37 266,135 309,174 124,111 206,576 27,688 -555,347 -1735,486 -2340,443l-867 -70c-118,-27 -226,-89 -297,-157 -55,-52 -178,-218 -166,-317 23,-191 1106,-829 1535,-746 38,-248 -9,-422 41,-611 57,-212 94,-386 75,-633 -295,2 -607,-128 -835,-126 -119,152 -283,316 -544,237 -61,-206 -13,-200 81,-368 108,-194 271,-595 519,-579 214,14 197,188 145,343 388,255 1920,136 2416,71 1262,-165 2176,-659 2587,-1919 331,-1015 297,-2074 -224,-2953 -248,-419 -962,-997 -1578,-1143 -600,-142 -379,-50 -809,-62 -71,506 -164,490 -596,398 57,122 143,195 219,302 82,115 138,261 182,394l52 190c20,182 66,179 114,340l35 116 95 662c-1,276 68,1191 -148,1459 -150,186 -52,68 -171,253 -66,102 -278,278 -388,309 -122,34 -221,34 -369,85l-358 96c-77,15 -117,1 -190,22 -189,57 -46,91 -346,108 -191,11 -66,20 -192,51 -139,34 -296,-14 -434,20 -121,30 -4,33 -162,50 -80,9 -150,-7 -233,9 -39,7 -103,32 -161,51 -99,33 -80,18 -161,81 -133,105 -180,370 -236,551 -28,91 -29,179 -69,264 -39,82 -44,83 -82,160l-159 386c-33,100 -62,165 -76,287 -19,159 -64,190 -106,349 -41,157 -7,219 -66,388 -79,225 -113,500 -135,774 -13,159 -74,220 -105,349 -18,77 -5,122 -24,188 -31,111 -45,38 -91,152 -37,92 -10,89 -27,185 -24,132 -84,255 -35,411l60 152c40,59 162,128 230,193 105,100 166,93 283,172 201,137 424,166 688,168l67 0c884,-5 630,-130 924,-181l781 -127c141,-24 26,-32 190,-52 110,-14 168,-22 271,-62 25,-10 74,-28 88,-33 158,-53 255,-4 418,-36 167,-34 265,-48 405,-140l77 -44c6,-3 14,-8 19,-11l526 -443c5,-4 13,-8 18,-12 131,-89 324,-248 410,-378 59,-89 42,-124 141,-192 162,-110 -143,89 39,-22 52,-32 67,-32 100,-82 38,-56 53,-120 102,-171 147,-156 -105,130 32,-28 49,-56 41,-91 69,-173 23,-65 53,-95 72,-139 57,-129 42,-220 156,-298 127,-87 180,-207 286,-290 87,-69 132,-165 202,-253 4,-5 9,-12 14,-17 4,-5 11,-11 15,-15l152 -151c4,-5 10,-11 14,-16 4,-5 11,-11 15,-15l100 -112c4,-5 9,-13 13,-17 66,-72 136,-87 208,-156 64,-61 140,-185 192,-262 19,-27 6,0 34,-57l60 -122c6,-7 26,-23 32,-29 55,-58 76,-131 125,-208 205,-326 40,-123 189,-386l382 -769c43,-124 71,-98 140,-193 -170,-62 85,60 -40,-21 -57,-37 -101,-83 -131,-141l-106 -167c-130,-244 33,-547 33,-823 0,-125 47,-245 97,-358 1,-1 48,-95 51,-101 20,-39 25,-50 50,-101 66,-135 148,-175 166,-319l126 -540c2,-8 5,-16 7,-23 2,-7 5,-15 8,-22 2,-7 6,-15 8,-22 54,-161 14,-203 116,-368 15,-25 30,-53 38,-87l0 -141c-2,-9 -4,-18 -7,-27 -28,-101 -88,-98 -109,-196 -42,-194 49,-95 -68,-265 -55,-81 -76,-221 -151,-304l-252 -233c-83,-96 -248,-196 -363,-273l-150 -122c-5,-4 -12,-10 -17,-14l-209 -185c-59,-46 -58,-36 -109,-73 -75,-54 -87,-97 -166,-136l-137 -45c-96,-32 -208,-39 -332,-41l-91 0c-98,2 -207,14 -284,39 -7,2 -15,6 -22,8l-213 30 -423 182c-128,64 -117,44 -289,44 -40,-60 -100,-102 -154,-149l-30 -31c-5,-4 -10,-11 -15,-16 -197,-167 -256,-77 -439,-49 -46,7 -159,3 -211,3 -296,0 -324,-157 -599,96 -112,104 -120,166 -161,293 -2,7 -5,15 -8,22l-38 114c-31,88 -67,245 -42,352 24,103 14,82 124,91z"/>
   <path class="fil1" d="M13101 -1582c-7,155 -6,56 28,84 432,92 525,108 596,-398 430,12 209,-80 809,62 617,146 1330,724 1578,1143 521,880 555,1939 224,2953 -411,1261 -1325,1755 -2587,1919 -495,65 -2027,184 -2416,-71 52,-154 69,-328 -145,-343 -249,-17 -411,384 -519,579 -94,168 -142,162 -81,368 261,80 425,-84 544,-237 229,-2 540,128 835,126 19,247 -18,421 -75,633 -50,189 -3,363 -41,611 54,43 80,-53 7,110l44 -46c61,-50 -7,-26 54,-40 65,-15 14,-21 62,51 -13,-121 -21,-44 21,-128 86,86 -51,26 120,16 163,-10 76,-32 237,26 -26,-73 -84,-213 -52,-305 46,-131 -40,-34 74,-94 73,-114 49,-594 116,-796 1110,9 2674,-373 3350,-987 260,-236 467,-509 626,-825 195,-390 402,-966 434,-1475 48,-753 -21,-1713 -522,-2318 -44,-53 -10,-7 -51,-71 -110,-171 -238,-295 -397,-423 -312,-251 -505,-401 -882,-572 -114,-52 -230,-111 -334,-150 -488,-186 -777,-192 -1246,-112 -482,83 -253,160 -330,428 -26,92 -55,179 -80,281z"/>
   <path class="fil1 str0" d="M11850 5848c-428,-83 -1511,555 -1535,746 -12,99 111,265 166,317 71,67 179,130 297,157l867 70c605,42 1785,-97 2340,-443 178,-111 97,-577 -27,-688 -43,-38 -232,-137 -309,-174 -309,-147 -915,-70 -1242,-51l10 -345c-113,61 -28,-36 -74,94 -32,92 25,232 52,305 -160,-57 -73,-35 -237,-26 -171,10 -34,70 -120,-16 -42,84 -34,6 -21,128 -48,-71 3,-66 -62,-51 -61,14 7,-11 -54,40l-44 46c72,-162 47,-67 -7,-110z"/>
  </g>
  <g id="_447103744">
   <g>
    <rect class="fil2 str1" transform="matrix(1.05375 0.463541 -0.473123 1.02349 11248.4 3132.06)" width="1058" height="370"/>
    <path class="fil1" d="M11178 3399l44 -96c120,23 114,-5 230,29l804 311 -44 96 -767 -284c-106,-25 -165,-20 -268,-56zm-1425 -3372c93,-151 76,-175 229,-139l-17 89c-47,154 -90,111 -127,452 -85,779 -171,565 43,942 142,249 115,141 326,326 -61,87 -115,146 -230,163 -230,34 -36,-36 -237,97 -252,-297 -234,-705 -242,-1025 -10,-379 58,-585 254,-904zm4283 828c398,184 282,44 592,-28 148,-34 181,14 302,8 119,-5 88,-36 244,-68 82,118 55,200 46,377 -8,147 -2,283 -50,424 -187,-266 59,-418 -514,-471 -526,-49 -306,472 -304,496 -131,82 -170,100 -332,30 -149,-549 -96,-522 17,-769zm-2863 -1188c127,-310 244,-70 489,-274 166,-137 210,-328 428,-379 169,-40 121,32 278,87 124,44 172,-2 309,38 578,166 277,483 1200,470 431,-6 263,41 594,192 326,148 197,-113 486,269 122,162 155,300 183,483 -243,35 1,-9 -448,-201 -193,-83 -341,-271 -483,-312 -309,-88 -748,264 -976,151 -381,-188 -519,-516 -1038,-557 -382,-30 -491,243 -1022,33zm2101 -887c190,-33 112,-118 376,41 241,145 652,478 812,660 -548,-300 -666,-36 -1094,-217 -277,-117 -236,-346 -826,-424 -275,-36 -413,-302 -800,-11 -723,543 -336,375 -640,396 -261,18 -213,522 -173,679 181,104 121,56 242,49 144,-9 60,-5 226,26 473,89 581,-109 817,-80 520,63 518,336 769,468 406,213 409,144 639,51 520,-210 569,-166 701,45 106,170 83,27 48,176 -145,-23 -480,-155 -580,-143 -80,10 -154,55 -177,142 -45,167 4,93 80,202 -127,332 -68,900 241,1077 208,119 739,-62 760,-279 19,-195 -82,-48 -88,-242 60,-8 -1,-15 88,7 355,88 54,239 422,252 47,2 5,-20 83,2 -244,588 -217,846 -710,1330 -267,263 -753,566 -1080,659 -136,39 -445,77 -648,86 -328,15 -305,-228 -544,-373 -118,-72 -166,3 -378,-93 -265,-119 -128,-62 -358,-82 -517,-47 -404,-126 -642,12 -287,-215 -859,-754 -974,-991 279,-166 251,108 673,-408 -356,-624 -591,-383 -472,-859 45,-181 41,-355 44,-525 4,-215 169,-352 199,-579l-170 -150c-5,-4 -20,-8 -20,-19 0,-11 -15,-11 -19,-19 124,-96 221,-208 343,-305 403,-320 666,-402 1113,-579 332,-132 1377,-234 1721,19zm-3060 4426c162,85 59,41 178,136 55,44 169,114 204,137 181,117 238,158 468,252 544,220 1325,484 1881,414 762,-95 710,7 1532,-484 669,-399 1229,-1362 1208,-2102 -3,-113 -18,-135 -4,-263 11,-102 24,-205 21,-302 -30,-903 -1227,-2247 -2131,-2604 -422,-166 -1364,-175 -1757,-83 -810,190 -1266,386 -1948,956 -730,610 -937,1233 -807,2117 30,203 106,325 171,496 124,322 350,636 589,901 102,113 350,322 395,427z"/>
    <path class="fil1" d="M13182 1877c-485,5 -262,86 -593,638 -119,198 -512,257 -776,398l-245 -122c82,-255 55,-342 61,-596 11,-508 -63,-614 -334,-1073 -169,-286 125,-486 264,-473 245,23 -42,81 255,40 111,-16 182,-35 287,-37 226,-5 477,60 680,193 472,311 39,594 403,1032zm-1621 -1368c-116,-134 29,-108 -186,-199 -50,34 -356,404 -378,599 -38,332 384,538 396,1081 10,465 -280,869 239,1134 219,112 581,-199 827,-225 126,-13 103,1 219,-64 261,-145 271,-407 398,-674 136,-23 263,-3 370,-106 201,-193 37,-248 -86,-364 -181,-172 -1,-620 -152,-791 -151,-170 -581,-437 -815,-489 -450,-100 -515,-62 -831,99z"/>
   </g>
   <g>
    <path class="fil0" d="M10214 3206c-45,-106 -293,-314 -395,-427 -240,-265 -466,-580 -589,-901 -66,-170 -141,-293 -171,-496 -130,-884 77,-1508 807,-2117 682,-570 1138,-766 1948,-956 394,-92 1336,-83 1757,83 904,357 2101,1700 2131,2604 3,97 -10,200 -21,302 -14,127 1,150 4,263 21,740 -539,1703 -1208,2102 -822,491 -770,388 -1532,484 -556,70 -1337,-194 -1881,-414 28,63 50,125 103,177 153,149 673,229 868,533 167,260 -156,345 510,638 188,-142 374,-175 661,-56 85,-184 76,-206 201,-325 242,-231 133,-364 522,-343 180,10 166,18 318,-27l311 -42c130,7 229,9 351,60 -70,-400 12,-341 272,-773 176,-292 844,-1895 1159,-2070 160,-89 117,19 387,-59 -240,-100 -249,12 -492,-485l-146 -319c-22,-50 -14,-31 -32,-68 -123,-257 -77,-134 -177,-255l-55 -86c-173,-336 67,-518 185,-760 -65,-61 -35,-40 -63,-110 -251,-642 -382,-316 -634,-699 -62,-95 -49,-139 -151,-211l-884 -474c-242,-115 -885,-482 -1213,-446 -359,39 -145,36 -567,-51 -683,-141 -490,-398 -1144,-200 -386,116 -133,532 -495,692l-366 112c-7,2 -17,6 -24,8l-621 158c-105,23 -151,22 -254,49l-598 147c-7,2 -17,6 -24,8l-377 84c-210,55 -360,43 -561,-107 -44,121 -59,254 -99,409 -78,307 -575,2760 -573,2871 7,276 250,378 499,562 1487,1101 1101,483 1536,738 640,375 392,10 815,196z"/>
    <path class="fil3" d="M11561 509c315,-160 381,-198 831,-99 234,52 664,318 815,489 151,171 -29,619 152,791 123,116 287,171 86,364 -106,103 -233,83 -370,106 -127,267 -137,529 -398,674 -117,65 -93,51 -219,64 -245,26 -608,337 -827,225 -519,-265 -229,-669 -239,-1134 -12,-543 -433,-748 -396,-1081 22,-195 328,-565 378,-599 215,91 70,65 186,199zm1713 -1729c-344,-254 -1388,-151 -1721,-19 -447,177 -710,259 -1113,579 -122,97 -219,209 -343,305 5,8 20,8 19,19 0,11 15,15 20,19l170 150c-31,227 -195,364 -199,579 -4,170 1,345 -44,525 -119,476 116,236 472,859 -422,516 -394,242 -673,408 115,237 688,776 974,991 238,-139 125,-59 642,-12 230,21 93,-36 358,82 213,95 260,21 378,93 239,146 216,388 544,373 203,-9 512,-47 648,-86 328,-93 813,-396 1080,-659 493,-484 466,-741 710,-1330 -78,-22 -37,0 -83,-2 -368,-13 -67,-163 -422,-252 -88,-22 -28,-16 -88,-7 6,194 106,47 88,242 -21,217 -552,399 -760,279 -309,-178 -368,-746 -241,-1077 -76,-108 -124,-35 -80,-202 23,-87 97,-132 177,-142 100,-12 435,119 580,143 35,-149 58,-6 -48,-176 -132,-212 -181,-256 -701,-45 -229,93 -233,162 -639,-51 -251,-132 -248,-405 -769,-468 -236,-29 -344,169 -817,80 -166,-31 -81,-35 -226,-26 -121,7 -61,55 -242,-49 -40,-157 -88,-661 173,-679 304,-21 -82,147 640,-396 386,-290 525,-25 800,11 590,78 550,308 826,424 428,181 546,-83 1094,217 -160,-182 -571,-515 -812,-660 -264,-159 -186,-74 -376,-41z"/>
    <path class="fil4" d="M13182 1877c-363,-438 70,-721 -403,-1032 -202,-133 -454,-198 -680,-193 -105,2 -176,21 -287,37 -297,42 -11,-16 -255,-40 -139,-13 -433,187 -264,473 271,460 346,565 334,1073 -6,254 21,341 -61,596l245 122c264,-142 658,-200 776,-398 331,-552 108,-633 593,-638z"/>
    <path class="fil4" d="M11172 -333c531,210 640,-63 1022,-33 519,41 657,369 1038,557 228,113 667,-240 976,-151 142,41 291,229 483,312 449,193 205,236 448,201 -28,-183 -61,-321 -183,-483 -289,-382 -160,-121 -486,-269 -331,-151 -163,-198 -594,-192 -923,13 -622,-304 -1200,-470 -137,-40 -186,6 -309,-38 -157,-55 -108,-127 -278,-87 -218,51 -262,242 -428,379 -246,204 -362,-36 -489,274z"/>
    <path class="fil4" d="M9740 1957c201,-134 7,-63 237,-97 115,-17 169,-76 230,-163 -212,-184 -185,-77 -326,-326 -214,-377 -128,-163 -43,-942 37,-341 80,-298 127,-452l17 -89c-153,-36 -136,-12 -229,139 -197,319 -264,525 -254,904 8,321 -10,728 242,1025z"/>
    <path class="fil4" d="M14035 855c-112,247 -166,220 -17,769 162,70 202,51 332,-30 -1,-24 -222,-545 304,-496 572,53 326,206 514,471 49,-141 43,-277 50,-424 9,-177 36,-259 -46,-377 -156,31 -125,62 -244,68 -121,6 -154,-43 -302,-8 -311,72 -195,212 -592,28z"/>
   </g>
  </g>
 </g>
</svg>
