<?xml version="1.0" encoding="UTF-8"?>
<!DOCTYPE svg PUBLIC "-//W3C//DTD SVG 1.1//EN" "http://www.w3.org/Graphics/SVG/1.1/DTD/svg11.dtd">
<!-- Creator: CorelDRAW X5 -->
<svg xmlns="http://www.w3.org/2000/svg" xml:space="preserve" width="158.75mm" height="79.375mm" style="shape-rendering:geometricPrecision; text-rendering:geometricPrecision; image-rendering:optimizeQuality; fill-rule:evenodd; clip-rule:evenodd"
viewBox="0 0 15875 7938"
 xmlns:xlink="http://www.w3.org/1999/xlink">
 <defs>
  <style type="text/css">
   <![CDATA[
    .fil0 {fill:none}
    .fil1 {fill:#003399}
    .fil2 {fill:#4C4956}
   ]]>
  </style>
 </defs>
 <g id="Warstwa_x0020_1">
  <metadata id="CorelCorpID_0Corel-Layer"/>
  <g id="_447115120">
   <g>
    <path class="fil0" d="M3074 4802l-73 -49c-146,-47 -351,-249 -272,-453 68,-174 210,-371 158,-599 -55,-240 -162,-175 -80,-621 35,-192 174,-238 220,-362 80,-216 59,-281 37,-507 -8,-80 6,-280 26,-354 24,-90 61,-213 107,-281 20,-29 165,-170 195,-190 256,-163 449,-33 601,34 119,52 217,5 302,-43 315,-180 442,-312 902,-151 303,106 194,167 569,6 400,-172 553,-244 899,-94 57,25 239,102 288,113 114,25 475,-126 595,-155 755,-184 898,315 1212,191 411,-163 822,-269 1097,165 130,205 -61,416 -106,591 -38,147 15,174 47,298 95,376 95,581 -123,911 -207,311 -130,195 -134,606 -2,231 -8,481 -162,616 -89,78 -107,118 -241,146 -389,81 -710,-140 -1021,-41 -227,73 -175,139 -566,207 -115,20 -237,32 -362,23 -188,-13 -398,-135 -635,-138 -128,-2 -227,10 -343,45 -121,37 -246,149 -596,191 -186,22 -500,-38 -695,-78 -454,-92 -617,-125 -991,19 -170,66 -375,174 -589,97 -97,-35 -199,-73 -267,-145zm5467 -4299l1 0c21,0 126,87 152,110 50,45 73,50 138,70 140,44 227,-83 363,-136 77,-30 255,44 346,75 86,29 198,9 362,52 117,30 219,39 328,87 21,9 146,29 161,157l29 178c4,39 5,43 18,78 58,150 82,244 91,335l0 416c0,39 -55,204 -71,247 -53,146 -31,122 -66,238 -5,15 -5,19 -10,32 -2,6 -9,25 -11,30 -51,171 -7,102 -81,292 -37,95 -31,205 -57,247 -38,61 -37,7 -36,115 1,69 10,86 -15,137l-44 108c-8,25 -10,26 -26,57 -38,73 -42,241 -8,317l31 66c9,31 7,27 7,62 70,6 42,20 66,72 2,4 72,110 72,190 0,234 38,191 -107,348 -31,34 -34,58 -57,81 -23,23 -42,22 -74,50 -42,37 -29,47 -58,81 -26,31 -39,25 -73,51 -48,38 -72,108 -105,157 -41,62 -1,157 -46,216 -49,66 -93,66 -162,87l-217 59c-60,19 -53,11 -123,15 -92,5 -46,28 -96,28l-387 0c-59,0 -83,-19 -151,-28 -69,-10 -73,-26 -152,-28 -280,-7 -856,38 -1076,-1 -53,-9 -70,-45 -127,-52 -31,-4 -62,2 -93,-4 -53,-9 -17,-10 -62,-21 -34,-8 -56,-2 -90,-7 -47,-6 -19,-7 -64,-19 -97,-25 -568,-7 -712,-6 -26,0 -53,1 -78,-5 -58,-13 -5,-24 -59,-24l-290 0c-61,0 -43,24 -124,28 -48,3 -104,-4 -152,0 -167,14 -163,57 -387,55 -107,-1 -150,29 -262,28 -168,-2 -163,25 -262,28l-131 21c-54,14 -88,-3 -136,16 -49,19 -26,35 -94,44 -80,11 -57,-11 -128,24 -46,23 -42,30 -105,33 -47,2 -106,-5 -152,0 -68,6 -52,27 -110,27l-809 0 -2 0c-43,0 13,-1 -40,-19 -276,-93 -248,-143 -326,-295 -10,-19 -3,-7 -15,-26l-11 -16c-16,-25 -14,-21 -23,-46 -18,-51 -15,-52 -40,-99 -53,-103 -30,-127 -60,-203l-52 -155c-39,-126 -17,-792 -17,-991 0,-85 21,-166 -37,-225 -25,-25 -37,-34 -55,-69 -8,-15 -14,-38 -18,-65l0 -200c0,-2 1,-4 1,-6 11,-57 120,-173 135,-265 18,-106 2,-666 2,-799 70,-19 55,-40 55,-124 74,-17 62,-67 88,-119 16,-31 28,-23 58,-53 9,-9 32,-45 38,-59 59,-132 32,-85 132,-172 49,-42 84,-113 144,-160 119,-94 55,-74 116,-132 62,-59 74,-153 169,-176 0,-101 3,-105 41,-98l183 54c79,27 113,2 181,26l28 13c7,3 23,10 29,13 115,45 636,21 794,21 39,0 185,-43 237,-53 94,-18 102,-58 218,-58 56,0 122,8 173,-7l422 -103c12,-1 28,0 41,-1 76,-1 86,-27 152,-27l594 0c75,0 76,28 152,28l414 0c50,0 5,-23 96,-28 114,-7 232,0 346,1 116,1 120,-24 207,-28 117,-6 201,-30 306,-53l587 -117c42,-8 77,-23 127,-23z"/>
    <path class="fil0" d="M3822 1966c115,0 292,-11 399,2 98,11 249,46 348,66 155,32 279,36 432,65 80,15 220,-23 229,88 57,0 111,25 164,43 3,1 7,2 10,3 72,24 58,49 202,116 4,2 15,7 19,9l93 45c115,32 190,-20 299,-23 75,-2 90,-14 141,-24 4,-1 8,-1 12,-2 44,-8 46,-8 87,-38l130 -77c37,-10 9,1 42,-13 65,-27 96,-59 176,-87 24,-8 30,-7 51,-18 41,-21 36,-41 93,-45 5,-58 33,-56 79,-87 33,-22 100,-33 136,-43 40,-11 36,-4 74,-9 68,-8 54,-32 150,-57 50,-13 96,-48 154,-67 98,-33 90,-21 191,-72l196 -80 525 0c41,0 27,20 208,27 77,3 145,43 208,82l76 34c3,1 7,3 10,4 3,1 7,3 10,4 39,17 66,41 95,70 6,6 18,16 26,29 19,32 11,-10 16,53 70,2 58,17 108,57 20,16 30,-18 30,39 0,146 22,331 -49,462l-39 113c-25,66 -65,73 -76,172 -8,73 -4,64 -31,120 -22,46 -16,87 -29,137 -10,39 -8,17 -31,51 -21,31 -15,-18 -21,62 -6,95 7,108 -40,167l-49 62c-104,89 -62,111 -149,183 -34,28 -68,40 -95,70 -55,62 -79,120 -159,159 -85,41 -37,16 -85,81 -28,39 -50,51 -113,53l-14 55c-8,10 -32,21 -45,24 -41,10 -75,14 -103,35 -24,17 -13,15 -47,22 -32,7 -25,-3 -59,10 -30,12 -16,13 -40,29 -46,30 -115,38 -168,52l-31 11c-3,1 -7,3 -10,4 -18,6 -38,12 -52,17l-115 23c-47,12 -71,49 -103,49l-497 0c-53,0 -72,-26 -110,-42 -64,-26 -123,-19 -197,-51 -46,-20 -89,-12 -138,-27 -40,-13 21,5 -19,-8 -56,-18 -250,-29 -320,-39 -64,-9 -42,-26 -139,-27 -55,0 -111,1 -166,1 -106,0 -212,-1 -318,-1 -21,0 -45,-1 -66,4l-316 84c-46,11 -76,40 -118,48 -60,12 -86,2 -146,20 -37,11 -88,39 -127,39 -337,0 -344,36 -657,-130 -37,-20 -39,-30 -63,-62l-58 -66c-21,-27 -26,-34 -42,-68l-88 -202c-40,-112 -27,-27 -70,-219 -14,-61 3,-21 -22,-74 -15,-32 -35,-52 -35,-75l0 -359c0,-54 10,-1 23,-60 7,-33 3,-51 12,-85l83 -359c15,-61 16,-90 20,-159 4,-61 38,-164 51,-225 15,-67 29,-68 29,-146 0,-75 -19,-56 100,-56l0 14 -69 14zm-745 2703l56 26c199,31 393,183 591,99 95,-40 127,-72 259,-113 121,-38 171,-49 308,-54 279,-10 400,26 653,67 450,72 670,164 1091,-29 50,-23 64,-38 124,-59 571,-200 897,103 1280,71 483,-41 317,-180 857,-250 302,-39 706,227 917,32 89,-82 114,-80 139,-233 91,-572 -94,-620 119,-918 83,-117 210,-323 229,-514 11,-108 -38,-395 -72,-478 -19,-46 -43,-77 -50,-130 -51,-343 352,-461 32,-804 -227,-244 -651,-20 -846,45 -297,98 -399,-186 -815,-234 -247,-28 -399,62 -584,132 -467,176 -619,-37 -873,-109 -360,-102 -699,365 -1163,224 -215,-65 -384,-278 -813,17 -189,130 -359,180 -592,89 -76,-30 -170,-101 -258,-82 -110,24 -170,93 -218,153 -327,406 13,812 -234,1202 -44,69 -119,147 -151,220 -101,232 -65,366 19,578 35,89 47,226 25,324 -23,109 -61,159 -109,249 -172,324 -11,373 79,478z"/>
   </g>
   <path class="fil1" d="M3002 4753c19,-27 -14,-17 42,-12 -2,-3 -6,-13 -7,-10l-30 -36c75,19 39,32 70,-26 -90,-105 -252,-154 -79,-478 48,-90 85,-140 109,-249 21,-98 10,-235 -25,-324 -84,-211 -121,-346 -19,-578 32,-73 107,-151 151,-220 248,-390 -93,-796 234,-1202 49,-60 109,-130 218,-153 89,-19 183,52 258,82 233,91 403,41 592,-89 429,-295 598,-82 813,-17 464,141 803,-327 1163,-224 254,72 406,285 873,109 185,-70 337,-160 584,-132 416,48 518,332 815,234 196,-65 619,-288 846,-45 319,342 -83,460 -32,804 8,53 32,84 50,130 34,82 83,370 72,478 -19,191 -146,397 -229,514 -212,299 -28,346 -119,918 -24,152 -50,151 -139,233 -211,194 -616,-72 -917,-32 -540,71 -374,209 -857,250 -382,32 -709,-271 -1280,-71 -59,21 -74,36 -124,59 -422,193 -642,101 -1091,29 -253,-40 -374,-77 -653,-67 -137,5 -187,16 -308,54 -133,41 -165,73 -259,113 -198,84 -392,-68 -591,-99l-29 27c63,-8 119,41 158,82 -17,13 -21,-14 -7,36 -22,-5 -31,-5 -48,-10 -25,-8 -36,-11 -47,-32l-23 -13c-26,29 -20,18 -62,17 67,72 169,110 267,145 214,77 419,-32 589,-97 375,-145 537,-112 991,-19 195,40 509,100 695,78 350,-42 475,-154 596,-191 116,-36 215,-47 343,-45 236,4 447,126 635,138 125,9 247,-3 362,-23 391,-68 339,-135 566,-207 311,-100 632,121 1021,41 134,-28 152,-69 241,-146 155,-135 160,-385 162,-616 4,-411 -73,-295 134,-606 219,-329 219,-535 123,-911 -31,-124 -84,-151 -47,-298 45,-175 236,-386 106,-591 -275,-434 -686,-328 -1097,-165 -314,124 -457,-375 -1212,-191 -121,29 -481,181 -595,155 -49,-11 -231,-88 -288,-113 -346,-150 -499,-78 -899,94 -375,161 -266,100 -569,-6 -459,-161 -587,-29 -902,151 -84,48 -183,95 -302,43 -152,-67 -345,-197 -601,-34 -31,20 -175,160 -195,190 -46,67 -83,190 -107,281 -19,74 -33,274 -26,354 22,227 42,291 -37,507 -46,124 -185,170 -220,362 -82,446 25,381 80,621 52,229 -90,426 -158,599 -80,205 126,406 272,453z"/>
   <path class="fil2" d="M3002 4753l73 49c42,1 37,12 62,-17l23 13c11,21 23,24 47,32 17,5 26,6 48,10 -14,-51 -11,-23 7,-36 -40,-41 -96,-90 -158,-82l29 -27 -56 -26c-31,58 5,45 -70,26l30 36c1,-2 5,7 7,10 -56,-5 -23,-14 -42,12z"/>
  </g>
 </g>
</svg>
