<?xml version="1.0" encoding="UTF-8"?>
<!DOCTYPE svg PUBLIC "-//W3C//DTD SVG 1.1//EN" "http://www.w3.org/Graphics/SVG/1.1/DTD/svg11.dtd">
<!-- Creator: CorelDRAW X5 -->
<svg xmlns="http://www.w3.org/2000/svg" xml:space="preserve" width="158.75mm" height="79.375mm" style="shape-rendering:geometricPrecision; text-rendering:geometricPrecision; image-rendering:optimizeQuality; fill-rule:evenodd; clip-rule:evenodd"
viewBox="0 0 15875 7938"
 xmlns:xlink="http://www.w3.org/1999/xlink">
 <defs>
  <style type="text/css">
   <![CDATA[
    .fil1 {fill:#003399}
    .fil0 {fill:#FDFDFD}
   ]]>
  </style>
 </defs>
 <g id="Warstwa_x0020_1">
  <metadata id="CorelCorpID_0Corel-Layer"/>
  <g id="_263952568">
   <g>
    <path class="fil0" d="M4475 936l36 -82c-51,35 -34,-3 -36,82z"/>
    <polygon class="fil0" points="4458,969 4475,936 "/>
   </g>
   <path class="fil1" d="M7074 3750l-152 1c-46,16 -738,82 -830,86 -291,13 -570,-12 -862,4 -829,43 -874,-131 -1204,-138 -45,-1 -324,44 -306,148 16,91 225,66 294,84 438,114 505,93 995,98 352,4 1039,5 1366,-46 444,-70 912,-33 1342,-125 346,-74 872,-213 1223,-221 226,-5 1157,-94 1309,-162 211,-93 238,-204 359,-377 75,-108 150,-394 180,-537 33,-162 75,-491 65,-660 -10,-167 -36,-878 -23,-1047 9,-123 -23,-489 -87,-625 -32,-67 -84,-194 -119,-231 -210,-229 -650,-374 -1013,-455 -216,-48 -474,-33 -705,-28 -236,5 -465,-23 -700,-19 -244,4 -473,5 -716,19 -212,12 -458,47 -683,46 -278,-1 -1054,48 -1385,64 -438,21 -775,125 -1166,306 -61,28 -132,103 -214,154 -130,81 -304,232 -358,374 -75,195 -153,741 -148,940 12,477 109,907 -10,1333 -65,232 -85,252 -203,429 -67,99 35,145 85,152 279,39 255,-48 309,-209 27,-79 57,-130 84,-196 53,-129 86,-321 95,-475 33,-557 -22,-557 -51,-1074 -14,-249 26,-718 219,-920 154,-161 157,-123 331,-253 102,-76 248,-131 380,-184 608,-243 1374,-183 2066,-231 362,-25 726,-57 1081,-70 364,-13 731,27 1083,18 409,-11 655,-16 1021,127 151,59 287,116 363,218 59,79 137,294 148,418 47,532 68,1641 -39,2144 -46,217 -200,647 -417,731 -54,21 -931,118 -1017,115 -569,-24 -1197,259 -1991,275z"/>
  </g>
 </g>
</svg>
