<?xml version="1.0" encoding="UTF-8"?>
<!DOCTYPE svg PUBLIC "-//W3C//DTD SVG 1.1//EN" "http://www.w3.org/Graphics/SVG/1.1/DTD/svg11.dtd">
<!-- Creator: CorelDRAW X5 -->
<svg xmlns="http://www.w3.org/2000/svg" xml:space="preserve" width="158.75mm" height="79.375mm" style="shape-rendering:geometricPrecision; text-rendering:geometricPrecision; image-rendering:optimizeQuality; fill-rule:evenodd; clip-rule:evenodd"
viewBox="0 0 15875 7938"
 xmlns:xlink="http://www.w3.org/1999/xlink">
 <defs>
  <style type="text/css">
   <![CDATA[
    .fil0 {fill:none}
    .fil1 {fill:#676572}
   ]]>
  </style>
 </defs>
 <g id="Warstwa_x0020_1">
  <metadata id="CorelCorpID_0Corel-Layer"/>
  <g id="_260689688">
   <g>
    <path class="fil0" d="M10850 3575c-4,-3 -10,-13 -11,-9l-43 -34c-72,-62 -177,-255 -424,-302 -257,-50 -758,120 -977,232 -62,32 -227,131 -284,129 -187,-8 -332,-282 -503,-339 -261,-87 -659,114 -866,315 -132,128 -298,141 -461,56 -100,-52 -143,-233 -324,-317 -275,-127 -415,144 -549,243 47,86 51,10 58,109 -105,111 -322,24 -490,117 -63,35 -206,188 -229,227 -76,132 -252,362 -128,557 53,82 81,82 130,172 194,358 168,105 -120,452 -70,84 -133,150 -169,327 -43,211 93,326 282,453 44,29 105,67 134,111 30,113 -618,521 65,808 131,55 429,91 580,63 206,-39 108,-78 199,-136 89,-56 195,-45 252,29 -9,44 -147,224 46,333 245,139 517,184 759,19 137,-93 108,-214 304,-208 93,112 34,19 68,163 15,65 41,105 103,124 217,66 401,27 601,-52 124,-50 221,-218 544,-78 223,97 429,263 718,203 252,-53 398,-226 667,-289 404,-94 528,249 1212,147 124,-19 244,-98 325,-155 138,-98 560,-255 731,-96 130,120 184,188 271,142 222,-118 224,-667 84,-907 -26,-44 -73,-108 -63,-176 23,-160 545,-323 138,-963 -43,-67 -150,-232 -166,-312 -57,-294 273,-388 173,-744 -55,-194 -426,-303 -616,-322 -99,-10 -335,-40 -393,-89 -83,-70 -18,-220 -172,-306 -231,-128 -724,-49 -969,58l-309 168c-79,57 -55,51 -176,82z"/>
    <path class="fil0" d="M7174 7421c-46,-24 -109,-31 -163,-50 -297,-107 -277,-185 -369,-305 -156,48 -389,57 -565,16 -194,-45 -226,-23 -467,-156 -95,-53 -247,-237 -223,-385 30,-183 190,-334 217,-434 -82,-131 -460,-287 -386,-573 41,-159 69,-221 138,-340 76,-130 168,-182 235,-256 -8,-153 -175,-280 -238,-403 -64,-124 46,-397 84,-506 31,-92 206,-269 298,-340 131,-102 325,-134 520,-146 27,-86 117,-191 173,-243 77,-72 133,-127 273,-156 511,-105 613,480 868,336 58,-33 60,-56 113,-99 43,-35 74,-54 128,-86 219,-129 364,-211 627,-223 106,-5 264,35 334,88l236 192c121,107 229,-18 597,-141 318,-106 689,-259 1036,-36l247 181c128,-20 301,-154 425,-199 292,-106 757,-168 1057,-24 186,90 204,145 276,345 217,73 383,54 608,138 133,50 382,178 421,344 15,65 13,259 -3,330 -15,64 -99,164 -140,249 -57,119 -48,184 14,295 106,188 381,557 218,827 -349,580 -209,236 -134,617 70,358 92,794 -316,941 -133,48 -174,46 -275,-48 -48,-44 -196,-139 -250,-141 -451,-9 -438,385 -1204,313 -403,-38 -658,-251 -907,-116 -51,27 -84,46 -127,68 -195,101 -434,258 -750,185 -103,-24 -201,-50 -281,-95 -321,-179 -347,-191 -542,-65 -120,77 -174,65 -243,97 -22,10 -23,11 -35,21 33,18 81,19 128,19 152,-1 281,25 432,4 127,-18 226,-7 333,30l169 80c109,38 84,68 240,64 175,-4 108,-77 235,-83 204,-9 276,209 347,263 19,14 43,24 70,31l249 0c85,-12 164,-31 211,-43 266,-69 158,-103 532,-38 144,25 152,-12 259,-24 284,-31 619,42 886,-20 11,-48 12,-103 25,-152 30,-117 248,-187 352,-234 85,-38 202,-43 286,-87 225,-117 429,-292 669,-379 113,-41 222,-116 340,-157 148,-52 166,33 316,33l0 0c-5,-218 -98,-706 -128,-956l-405 -2898c-10,-10 -118,43 -164,49 -54,8 -188,8 -244,3 -561,-47 -1177,-17 -1742,-34 -93,-3 -121,-19 -230,-19l-498 18c-156,8 -338,0 -498,0 -355,1 -303,-79 -408,-107 -23,86 -108,90 -195,90 -120,0 -169,15 -267,17 -179,5 -413,-17 -584,2 -435,49 -682,-21 -981,-4 -93,5 -55,3 -110,49 -77,64 -203,32 -307,65l-42 11c-227,51 -496,19 -730,18 -205,-1 -196,-124 -444,-142 -175,-13 -404,-1 -585,-1 0,317 -118,234 -424,482 -60,49 -61,45 -141,72 -46,15 -432,295 -548,357 -67,36 -81,52 -136,95l-553 353c-188,112 -134,71 -330,25l0 0c19,222 241,908 302,1154l221 863c22,77 55,237 81,292 -85,-20 -161,-77 -248,-108 -179,-64 -179,26 -285,54l0 36c62,22 117,89 168,134 74,64 436,380 506,417 -36,-156 -111,-335 -124,-497 50,12 168,66 213,88 31,15 61,34 92,50 175,89 267,103 421,254 14,13 25,26 44,45 155,155 245,57 464,140 212,81 293,114 293,311 55,-20 80,-95 161,-105 217,-30 439,17 657,18 41,0 88,4 123,-19z"/>
    <path class="fil0" d="M7567 7439l281 19c87,11 140,61 161,141l36 0c28,-103 83,-115 159,-144 4,-2 9,-4 13,-5 4,-1 10,-4 13,-5 3,-1 9,-3 13,-6 -125,-62 -98,26 -287,-167 -336,196 -268,107 -389,167z"/>
   </g>
   <path class="fil1" d="M10850 3575c121,-31 98,-24 176,-82l309 -168c245,-107 738,-186 969,-58 154,86 89,236 172,306 58,49 295,79 393,89 191,19 562,128 616,322 100,356 -230,449 -173,744 16,80 124,245 166,312 406,640 -115,803 -138,963 -10,68 37,132 63,176 140,240 138,788 -84,907 -87,47 -141,-21 -271,-142 -172,-159 -594,-2 -731,96 -81,58 -200,136 -325,155 -684,103 -808,-241 -1212,-147 -270,63 -416,236 -667,289 -289,61 -496,-106 -718,-203 -323,-140 -420,28 -544,78 -200,80 -384,119 -601,52 -62,-19 -88,-60 -103,-124 -34,-144 25,-51 -68,-163 -197,-6 -167,115 -304,208 -242,164 -514,120 -759,-19 -193,-109 -55,-290 -46,-333 -57,-74 -163,-86 -252,-29 -91,58 7,97 -199,136 -151,29 -449,-7 -580,-63 -683,-287 -35,-695 -65,-808 -29,-43 -90,-82 -134,-111 -190,-126 -325,-242 -282,-453 36,-177 99,-243 169,-327 288,-347 313,-94 120,-452 -48,-90 -77,-90 -130,-172 -124,-194 52,-425 128,-557 23,-40 166,-192 229,-227 168,-93 386,-5 490,-117 -7,-99 -10,-22 -58,-109 135,-98 274,-370 549,-243 181,84 224,264 324,317 163,85 329,73 461,-56 207,-201 605,-402 866,-315 171,57 316,331 503,339 57,2 221,-97 284,-129 219,-112 720,-282 977,-232 247,48 351,240 424,302l43 34c2,-3 8,6 11,9zm-3676 3846c49,11 131,28 181,34 105,11 127,-14 212,-16 121,-61 53,28 389,-167 189,193 162,106 287,167 108,0 142,19 228,19 87,0 119,-19 227,-19 12,-10 12,-11 35,-21 69,-31 123,-20 243,-97 195,-126 221,-113 542,65 80,45 178,71 281,95 316,73 555,-84 750,-185 42,-22 76,-40 127,-68 250,-135 504,78 907,116 767,72 754,-322 1204,-313 54,1 203,96 250,141 101,94 142,95 275,48 408,-147 386,-583 316,-941 -75,-381 -216,-37 134,-617 163,-270 -112,-639 -218,-827 -63,-111 -71,-176 -14,-295 41,-85 125,-185 140,-249 16,-71 19,-265 3,-330 -39,-167 -288,-295 -421,-344 -225,-84 -391,-65 -608,-138 -72,-200 -90,-255 -276,-345 -300,-144 -765,-83 -1057,24 -124,45 -297,178 -425,199l-247 -181c-347,-223 -718,-70 -1036,36 -369,123 -476,248 -597,141l-236 -192c-71,-52 -228,-93 -334,-88 -263,12 -408,94 -627,223 -54,32 -85,51 -128,86 -52,43 -55,66 -113,99 -255,144 -357,-441 -868,-336 -140,29 -196,84 -273,156 -57,53 -146,157 -173,243 -196,12 -390,43 -520,146 -91,71 -266,249 -298,340 -37,109 -147,382 -84,506 63,123 230,250 238,403 -67,74 -159,126 -235,256 -69,119 -96,181 -138,340 -74,286 304,442 386,573 -27,100 -186,251 -217,434 -25,148 128,332 223,385 240,133 273,111 467,156 176,41 409,32 565,-16 92,121 73,198 369,305 54,20 118,26 163,50z"/>
  </g>
 </g>
</svg>
