<?xml version="1.0" encoding="UTF-8"?>
<!DOCTYPE svg PUBLIC "-//W3C//DTD SVG 1.1//EN" "http://www.w3.org/Graphics/SVG/1.1/DTD/svg11.dtd">
<!-- Creator: CorelDRAW X5 -->
<svg xmlns="http://www.w3.org/2000/svg" xml:space="preserve" width="158.75mm" height="79.375mm" style="shape-rendering:geometricPrecision; text-rendering:geometricPrecision; image-rendering:optimizeQuality; fill-rule:evenodd; clip-rule:evenodd"
viewBox="0 0 15875 7938"
 xmlns:xlink="http://www.w3.org/1999/xlink">
 <defs>
  <style type="text/css">
   <![CDATA[
    .fil0 {fill:none}
    .fil2 {fill:#686576}
    .fil1 {fill:#FEFEFE}
   ]]>
  </style>
 </defs>
 <g id="Warstwa_x0020_1">
  <metadata id="CorelCorpID_0Corel-Layer"/>
  <g id="_587738560">
   <path class="fil0" d="M4660 5320c-272,-17 -482,-64 -758,-61 -247,2 -475,52 -724,-42 -41,-104 -28,32 -31,-116 -2,-80 -2,-55 36,-97 149,-165 1081,-611 1270,-796 -119,-805 755,-1392 1371,-1661 312,-136 1297,-423 1699,-440 950,-40 1162,-65 2093,117 762,149 1465,427 2023,917 91,79 114,134 191,212 157,159 179,264 249,494 27,89 40,177 70,277 33,110 75,141 102,272 70,350 16,955 -144,1305 -174,382 -471,646 -778,802 -105,53 -130,94 -232,132l-539 182c-985,404 -3344,245 -4301,-15 -593,-161 -1153,-209 -1516,-608 -337,-370 -192,-602 -82,-872zm-3538 -1323c9,110 173,398 230,508 48,93 69,192 124,280l110 247c3,6 15,24 18,30 80,137 191,402 254,556 34,83 13,32 50,95l41 79c75,175 269,621 361,783 38,66 68,101 75,185 607,108 1226,221 1802,294 269,34 572,24 832,49 1103,104 2397,369 3384,717 668,236 1361,401 2157,542 62,11 71,-20 117,-48 71,-43 39,-23 112,-55l78 -43c4,-3 10,-7 15,-10 208,-129 1322,-684 1587,-816l76 -45c4,-3 11,-7 15,-9 5,-3 11,-6 15,-9l666 -344c174,-85 574,-277 730,-376 65,-41 117,-51 168,-99 -68,-53 -89,-48 -132,-124 -108,-191 -37,-881 -82,-1130 -48,-273 -24,-626 -39,-900 -13,-232 -44,-699 -24,-931 5,-64 136,-324 181,-387 73,31 128,60 207,93 59,25 153,56 219,84 -44,-137 -21,-240 -171,-312 -118,-56 -283,-97 -412,-144l-865 -280c-155,-47 -280,-82 -425,-134 -137,-50 -292,-87 -447,-140 -700,-243 -1010,-292 -1669,-409 -174,-31 -389,-46 -563,-103 -31,-10 -187,-93 -208,-114 -28,-27 -7,-6 -31,-43 -51,-79 -34,-88 -146,-114 -241,-56 -355,-57 -577,-137 -754,-269 -529,-132 -815,-124 -40,1 -80,-8 -130,-33 -145,-71 -187,-155 -379,-139 -83,7 -201,9 -288,22l-1340 182c-425,58 -498,-27 -737,243 -56,63 -1,12 -85,64 -45,28 -61,40 -103,69l-196 121c-4,3 -11,7 -15,10l-227 138c-4,3 -10,7 -15,10l-1680 1024c-4,3 -10,7 -15,10 -4,3 -10,7 -15,10 -6,4 -24,15 -30,19l-197 119c-4,3 -10,7 -15,10l-197 120c-30,18 -26,16 -45,28l-683 412c-160,103 -513,281 -627,399z"/>
   <path class="fil0" d="M5174 5328c-345,855 169,998 964,1177 233,52 450,118 680,175 620,154 1978,150 2632,94 590,-50 1612,-325 2004,-807 268,-329 397,-684 420,-1175 18,-384 -160,-1110 -337,-1362 -74,-106 -83,-119 -174,-201 -147,-132 -293,-218 -460,-325 -358,-229 -1466,-478 -1953,-514 -514,-38 -1354,-8 -1840,113 -167,41 -203,79 -537,156 -243,56 -267,98 -402,136 -269,76 -797,419 -975,642 -684,855 -193,798 -571,1036 -203,127 -834,445 -884,542 125,-35 618,35 796,65 239,40 359,-13 636,248z"/>
  </g>
  <g id="_260719072">
   <g>
    <path class="fil0" d="M9535 7031c-86,76 -124,58 -181,138 -49,68 -14,303 -446,314 -120,3 -252,-35 -409,-38 -278,-6 -584,49 -881,58 -1268,37 -2231,-124 -3553,-121 -572,2 -2073,155 -2091,-236 -7,-153 36,-4 76,-375 29,-270 61,-534 92,-836 150,-1445 79,-2241 78,-3605 0,-242 20,-595 13,-880 -8,-322 -261,-582 87,-634 334,-49 502,55 799,82 154,14 296,-15 445,10 177,29 172,93 353,107 233,19 586,-53 822,-78 674,-71 2091,-12 2773,2l1797 -45c987,-9 691,203 582,958 -117,807 -312,2639 -316,3421 -2,409 -2,1375 -40,1759zm1752 2484l-196 0c-227,-9 -527,-38 -721,-37 -267,1 -371,-42 -648,-40l-3288 -152c-477,4 -1972,-136 -2597,-155l-1333 -43c-429,-48 -1729,-32 -1908,-194 -56,-51 -79,-116 -85,-188l0 -96c7,-95 29,-195 36,-283 33,-425 40,-859 101,-1275l420 -5083c41,-276 78,-978 93,-1283 7,-147 36,-460 60,-628 22,-147 54,-512 54,-634 3022,0 6306,153 9326,153 -42,36 13,-6 -64,51l-45 31c-106,77 -186,152 -213,356l16 1473c-2,301 41,434 39,725 -3,549 41,966 37,1491 -5,789 205,488 726,764 0,406 39,771 37,1224 -1,261 41,349 40,610 -1,204 -1,409 -2,613 -1,256 41,354 41,611 0,253 -43,334 -43,573 0,506 174,647 -265,879 83,173 -2,328 190,425 172,86 294,-42 459,-81 -23,86 -67,151 -200,182 -18,4 -42,7 -69,9z"/>
    <path class="fil0" d="M2662 6963c494,11 1096,-45 1581,-1 430,39 1007,30 1466,46 963,35 1273,124 2293,57 1079,-71 886,104 938,-655 43,-634 49,-1414 99,-1937 10,-109 46,-207 60,-317 63,-511 117,-957 181,-1418l195 -1414c-1127,28 -2381,-43 -3499,11 -275,13 -562,26 -825,18 -298,-9 -477,67 -763,82 -724,38 -926,-93 -1587,-157 -16,1025 43,3447 -38,4300l-101 1387z"/>
    <polygon class="fil1" points="11556,9324 11594,9324 11562,9280 "/>
   </g>
   <path class="fil2" d="M2662 6963l101 -1387c80,-853 22,-3274 38,-4300 661,64 863,195 1587,157 286,-15 465,-92 763,-82 263,8 550,-5 825,-18 1118,-53 2372,17 3499,-11l-195 1414c-64,461 -118,907 -181,1418 -14,111 -49,209 -60,317 -49,523 -56,1303 -99,1937 -52,759 142,584 -938,655 -1021,68 -1330,-22 -2293,-57 -459,-17 -1036,-7 -1466,-46 -485,-44 -1087,12 -1581,1zm5837 482c157,4 288,41 409,38 431,-11 397,-246 446,-314 57,-79 95,-62 181,-138 38,-384 38,-1350 40,-1759 4,-781 199,-2613 316,-3421 110,-754 405,-967 -582,-958l-1797 45c-682,-14 -2099,-73 -2773,-2 -235,25 -589,97 -822,78 -180,-15 -176,-78 -353,-107 -149,-25 -291,5 -445,-10 -297,-28 -465,-132 -799,-82 -348,51 -96,312 -87,634 7,286 -13,639 -13,880 1,1364 72,2160 -78,3605 -31,302 -63,566 -92,836 -40,371 -83,222 -76,375 18,391 1519,238 2091,236 1322,-4 2286,157 3553,121 297,-9 603,-64 881,-58z"/>
  </g>
 </g>
</svg>
