<?xml version="1.0" encoding="UTF-8"?>
<!DOCTYPE svg PUBLIC "-//W3C//DTD SVG 1.1//EN" "http://www.w3.org/Graphics/SVG/1.1/DTD/svg11.dtd">
<!-- Creator: CorelDRAW X5 -->
<svg xmlns="http://www.w3.org/2000/svg" xml:space="preserve" width="158.75mm" height="79.375mm" style="shape-rendering:geometricPrecision; text-rendering:geometricPrecision; image-rendering:optimizeQuality; fill-rule:evenodd; clip-rule:evenodd"
viewBox="0 0 15875 7938"
 xmlns:xlink="http://www.w3.org/1999/xlink">
 <defs>
  <style type="text/css">
   <![CDATA[
    .fil0 {fill:none}
    .fil1 {fill:#5A5865}
   ]]>
  </style>
 </defs>
 <g id="Warstwa_x0020_1">
  <metadata id="CorelCorpID_0Corel-Layer"/>
  <g id="_587738560">
   <path class="fil0" d="M4660 5320c-272,-17 -482,-64 -758,-61 -247,2 -475,52 -724,-42 -41,-104 -28,32 -31,-116 -2,-80 -2,-55 36,-97 149,-165 1081,-611 1270,-796 -119,-805 755,-1392 1371,-1661 312,-136 1297,-423 1699,-440 950,-40 1162,-65 2093,117 762,149 1465,427 2023,917 91,79 114,134 191,212 157,159 179,264 249,494 27,89 40,177 70,277 33,110 75,141 102,272 70,350 16,955 -144,1305 -174,382 -471,646 -778,802 -105,53 -130,94 -232,132l-539 182c-985,404 -3344,245 -4301,-15 -593,-161 -1153,-209 -1516,-608 -337,-370 -192,-602 -82,-872zm-3538 -1323c9,110 173,398 230,508 48,93 69,192 124,280l110 247c3,6 15,24 18,30 80,137 191,402 254,556 34,83 13,32 50,95l41 79c75,175 269,621 361,783 38,66 68,101 75,185 607,108 1226,221 1802,294 269,34 572,24 832,49 1103,104 2397,369 3384,717 668,236 1361,401 2157,542 62,11 71,-20 117,-48 71,-43 39,-23 112,-55l78 -43c4,-3 10,-7 15,-10 208,-129 1322,-684 1587,-816l76 -45c4,-3 11,-7 15,-9 5,-3 11,-6 15,-9l666 -344c174,-85 574,-277 730,-376 65,-41 117,-51 168,-99 -68,-53 -89,-48 -132,-124 -108,-191 -37,-881 -82,-1130 -48,-273 -24,-626 -39,-900 -13,-232 -44,-699 -24,-931 5,-64 136,-324 181,-387 73,31 128,60 207,93 59,25 153,56 219,84 -44,-137 -21,-240 -171,-312 -118,-56 -283,-97 -412,-144l-865 -280c-155,-47 -280,-82 -425,-134 -137,-50 -292,-87 -447,-140 -700,-243 -1010,-292 -1669,-409 -174,-31 -389,-46 -563,-103 -31,-10 -187,-93 -208,-114 -28,-27 -7,-6 -31,-43 -51,-79 -34,-88 -146,-114 -241,-56 -355,-57 -577,-137 -754,-269 -529,-132 -815,-124 -40,1 -80,-8 -130,-33 -145,-71 -187,-155 -379,-139 -83,7 -201,9 -288,22l-1340 182c-425,58 -498,-27 -737,243 -56,63 -1,12 -85,64 -45,28 -61,40 -103,69l-196 121c-4,3 -11,7 -15,10l-227 138c-4,3 -10,7 -15,10l-1680 1024c-4,3 -10,7 -15,10 -4,3 -10,7 -15,10 -6,4 -24,15 -30,19l-197 119c-4,3 -10,7 -15,10l-197 120c-30,18 -26,16 -45,28l-683 412c-160,103 -513,281 -627,399z"/>
   <path class="fil0" d="M5174 5328c-345,855 169,998 964,1177 233,52 450,118 680,175 620,154 1978,150 2632,94 590,-50 1612,-325 2004,-807 268,-329 397,-684 420,-1175 18,-384 -160,-1110 -337,-1362 -74,-106 -83,-119 -174,-201 -147,-132 -293,-218 -460,-325 -358,-229 -1466,-478 -1953,-514 -514,-38 -1354,-8 -1840,113 -167,41 -203,79 -537,156 -243,56 -267,98 -402,136 -269,76 -797,419 -975,642 -684,855 -193,798 -571,1036 -203,127 -834,445 -884,542 125,-35 618,35 796,65 239,40 359,-13 636,248z"/>
  </g>
  <g id="_260689304">
   <path class="fil0" d="M3210 2200c48,-39 34,-36 90,-71 177,-112 183,-197 266,-163 26,11 208,277 284,342 277,237 480,345 584,438l92 120c98,-39 578,-489 675,-603 104,-122 151,-259 358,-257 273,2 280,50 483,129 -19,208 -1064,1005 -1164,1139 63,112 127,122 207,219 76,93 100,126 195,223l415 418c-61,137 -170,168 -346,171 -483,9 -639,-528 -883,-634 -47,49 -35,59 -129,149 -64,61 -69,75 -119,137 -75,93 -76,49 -153,126l-252 281c-198,128 -493,83 -614,-5 -7,-153 86,-125 217,-275l706 -809c-29,-54 -192,-231 -243,-273 -57,-46 -71,-63 -136,-120 -33,-28 -35,-25 -66,-51 -58,-47 -13,-8 -60,-58 -179,-189 -175,-151 -261,-226 -79,-69 -13,-13 -55,-82 -53,-85 -97,-90 -92,-265zm-951 2188c-100,-36 -15,-43 -116,-70 25,47 23,56 61,102 57,70 214,192 241,293l46 0c75,-282 345,-207 744,-209l767 23c120,1 128,19 231,24 171,9 365,-13 533,1 358,30 1105,59 1490,67 192,4 169,82 301,234l98 -321c115,-464 364,-1197 474,-1640l185 -675c32,-123 189,-555 161,-652 -81,-278 -278,-231 -596,-264 -257,-27 -516,-58 -763,-74 -270,-17 -519,-70 -789,-71 -238,0 -977,-13 -1170,-38 -326,-42 -151,-45 -328,-114 -74,-29 -672,-93 -742,-65 -45,18 -180,122 -209,210 -17,51 -26,141 -32,177 -88,473 -584,2904 -587,3061z"/>
   <path class="fil1" d="M3210 2200c-5,174 39,179 92,265 42,68 -24,13 55,82 86,75 81,37 261,226 47,50 2,10 60,58 31,25 34,22 66,51 65,56 79,73 136,120 51,41 214,218 243,273l-706 809c-131,150 -224,122 -217,275 121,88 416,133 614,5l252 -281c77,-77 78,-33 153,-126 50,-62 55,-76 119,-137 94,-90 82,-100 129,-149 244,106 400,643 883,634 175,-3 285,-34 346,-171l-415 -418c-95,-97 -118,-130 -195,-223 -80,-97 -144,-107 -207,-219 100,-133 1145,-931 1164,-1139 -203,-79 -211,-127 -483,-129 -207,-2 -253,136 -358,257 -97,113 -577,563 -675,603l-92 -120c-104,-93 -306,-200 -584,-438 -76,-65 -258,-331 -284,-342 -84,-34 -90,51 -266,163 -55,35 -42,32 -90,71z"/>
  </g>
 </g>
</svg>
