<?xml version="1.0" encoding="UTF-8"?>
<!DOCTYPE svg PUBLIC "-//W3C//DTD SVG 1.1//EN" "http://www.w3.org/Graphics/SVG/1.1/DTD/svg11.dtd">
<!-- Creator: CorelDRAW X5 -->
<svg xmlns="http://www.w3.org/2000/svg" xml:space="preserve" width="158.75mm" height="79.375mm" style="shape-rendering:geometricPrecision; text-rendering:geometricPrecision; image-rendering:optimizeQuality; fill-rule:evenodd; clip-rule:evenodd"
viewBox="0 0 15875 7938"
 xmlns:xlink="http://www.w3.org/1999/xlink">
 <defs>
  <style type="text/css">
   <![CDATA[
    .fil0 {fill:none}
    .fil1 {fill:#615F6C}
   ]]>
  </style>
 </defs>
 <g id="Warstwa_x0020_1">
  <metadata id="CorelCorpID_0Corel-Layer"/>
  <g id="_258130128">
   <g>
    <path class="fil0" d="M5542 2904c33,-281 37,-693 302,-834 424,-227 530,452 562,522 202,-133 406,-336 643,-33 140,179 92,644 116,855 100,-83 184,-230 292,-320 114,-94 307,-149 405,-6 70,219 -143,681 -224,881 -282,691 -104,1556 -833,1973 -135,77 -236,106 -417,130 -280,37 -190,52 -472,-5 -151,-31 -308,-50 -434,-141 -387,-278 -341,-594 -652,-1023 -159,-219 -641,-875 -533,-1109 72,-86 237,-167 364,-175 178,-12 253,40 400,92 4,-90 -37,-273 -52,-376 -25,-173 -21,-225 -24,-396 90,-89 120,-184 288,-176 171,8 193,107 269,143zm-514 -1687l175 0c113,28 222,98 372,135 116,28 140,-1 244,65 36,23 164,88 179,104 70,71 11,107 118,191 275,212 144,328 505,397 336,65 185,68 428,190l901 309c276,76 172,42 404,-74 13,19 648,2528 657,2618 173,13 291,-3 433,109l0 11 -363 195c-50,-90 -39,-191 -101,-290l-1113 437c-474,144 -365,227 -515,258 -518,109 -146,172 -484,263 -417,112 -51,147 -620,153 -183,2 -929,267 -1150,370 -82,38 -205,60 -249,137 -44,78 -38,176 -103,262l-669 -1069c-34,-66 -85,-145 -126,-209 -89,-142 -167,-294 -258,-438 -1,-1 -994,-1599 -1051,-1728l0 -8c142,-183 1311,-1386 1557,-1632l510 -546c128,-127 228,-189 316,-212z"/>
    <path class="fil0" d="M5285 3086c-11,387 159,839 116,1011 -39,160 -264,180 -377,47 -95,-112 -173,-235 -338,-230 18,208 288,589 424,761l246 449 137 327c241,573 637,380 680,378 69,-4 75,24 188,6 995,-165 596,-1093 965,-1841 93,-188 218,-457 255,-657 -154,20 -303,475 -453,638 -111,0 -197,-10 -282,-80 -33,-257 70,-1022 -133,-1171 -372,856 -30,1265 -540,1138 -53,-132 2,-1041 -181,-1462 -57,47 -59,77 -76,157 -29,136 -63,490 -54,617 12,184 61,628 -22,776 -116,59 -171,76 -277,-13 -62,-141 -139,-767 -279,-852z"/>
   </g>
   <path class="fil1" d="M5285 3086c140,85 217,711 279,852 106,89 161,71 277,13 83,-148 34,-592 22,-776 -9,-127 25,-481 54,-617 17,-81 19,-110 76,-157 183,421 128,1330 181,1462 510,127 168,-282 540,-1138 204,149 100,914 133,1171 84,69 171,80 282,80 150,-162 299,-618 453,-638 -37,199 -162,469 -255,657 -370,748 30,1675 -965,1841 -113,19 -119,-10 -188,-6 -43,3 -439,196 -680,-378l-137 -327 -246 -449c-136,-173 -406,-553 -424,-761 165,-5 243,118 338,230 112,133 338,113 377,-47 42,-173 -127,-624 -116,-1011zm257 -181c-76,-36 -98,-135 -269,-143 -168,-8 -198,87 -288,176 3,171 -1,223 24,396 15,103 56,287 52,376 -147,-52 -222,-104 -400,-92 -126,8 -291,90 -364,175 -109,233 374,890 533,1109 311,429 265,745 652,1023 126,91 282,110 434,141 282,57 192,42 472,5 181,-24 283,-53 417,-130 729,-417 551,-1282 833,-1973 82,-200 294,-662 224,-881 -98,-142 -291,-88 -405,6 -108,90 -193,237 -292,320 -24,-211 24,-676 -116,-855 -237,-302 -440,-99 -643,33 -32,-70 -138,-749 -562,-522 -265,142 -270,554 -302,834z"/>
  </g>
 </g>
</svg>
