<?xml version="1.0" encoding="UTF-8"?>
<!DOCTYPE svg PUBLIC "-//W3C//DTD SVG 1.1//EN" "http://www.w3.org/Graphics/SVG/1.1/DTD/svg11.dtd">
<!-- Creator: CorelDRAW X5 -->
<svg xmlns="http://www.w3.org/2000/svg" xml:space="preserve" width="158.75mm" height="79.375mm" style="shape-rendering:geometricPrecision; text-rendering:geometricPrecision; image-rendering:optimizeQuality; fill-rule:evenodd; clip-rule:evenodd"
viewBox="0 0 15875 7938"
 xmlns:xlink="http://www.w3.org/1999/xlink">
 <defs>
  <style type="text/css">
   <![CDATA[
    .fil0 {fill:none}
    .fil1 {fill:#605E6B}
   ]]>
  </style>
 </defs>
 <g id="Warstwa_x0020_1">
  <metadata id="CorelCorpID_0Corel-Layer"/>
  <g id="_587738560">
   <path class="fil0" d="M4660 5320c-272,-17 -482,-64 -758,-61 -247,2 -475,52 -724,-42 -41,-104 -28,32 -31,-116 -2,-80 -2,-55 36,-97 149,-165 1081,-611 1270,-796 -119,-805 755,-1392 1371,-1661 312,-136 1297,-423 1699,-440 950,-40 1162,-65 2093,117 762,149 1465,427 2023,917 91,79 114,134 191,212 157,159 179,264 249,494 27,89 40,177 70,277 33,110 75,141 102,272 70,350 16,955 -144,1305 -174,382 -471,646 -778,802 -105,53 -130,94 -232,132l-539 182c-985,404 -3344,245 -4301,-15 -593,-161 -1153,-209 -1516,-608 -337,-370 -192,-602 -82,-872zm-3538 -1323c9,110 173,398 230,508 48,93 69,192 124,280l110 247c3,6 15,24 18,30 80,137 191,402 254,556 34,83 13,32 50,95l41 79c75,175 269,621 361,783 38,66 68,101 75,185 607,108 1226,221 1802,294 269,34 572,24 832,49 1103,104 2397,369 3384,717 668,236 1361,401 2157,542 62,11 71,-20 117,-48 71,-43 39,-23 112,-55l78 -43c4,-3 10,-7 15,-10 208,-129 1322,-684 1587,-816l76 -45c4,-3 11,-7 15,-9 5,-3 11,-6 15,-9l666 -344c174,-85 574,-277 730,-376 65,-41 117,-51 168,-99 -68,-53 -89,-48 -132,-124 -108,-191 -37,-881 -82,-1130 -48,-273 -24,-626 -39,-900 -13,-232 -44,-699 -24,-931 5,-64 136,-324 181,-387 73,31 128,60 207,93 59,25 153,56 219,84 -44,-137 -21,-240 -171,-312 -118,-56 -283,-97 -412,-144l-865 -280c-155,-47 -280,-82 -425,-134 -137,-50 -292,-87 -447,-140 -700,-243 -1010,-292 -1669,-409 -174,-31 -389,-46 -563,-103 -31,-10 -187,-93 -208,-114 -28,-27 -7,-6 -31,-43 -51,-79 -34,-88 -146,-114 -241,-56 -355,-57 -577,-137 -754,-269 -529,-132 -815,-124 -40,1 -80,-8 -130,-33 -145,-71 -187,-155 -379,-139 -83,7 -201,9 -288,22l-1340 182c-425,58 -498,-27 -737,243 -56,63 -1,12 -85,64 -45,28 -61,40 -103,69l-196 121c-4,3 -11,7 -15,10l-227 138c-4,3 -10,7 -15,10l-1680 1024c-4,3 -10,7 -15,10 -4,3 -10,7 -15,10 -6,4 -24,15 -30,19l-197 119c-4,3 -10,7 -15,10l-197 120c-30,18 -26,16 -45,28l-683 412c-160,103 -513,281 -627,399z"/>
   <path class="fil0" d="M5174 5328c-345,855 169,998 964,1177 233,52 450,118 680,175 620,154 1978,150 2632,94 590,-50 1612,-325 2004,-807 268,-329 397,-684 420,-1175 18,-384 -160,-1110 -337,-1362 -74,-106 -83,-119 -174,-201 -147,-132 -293,-218 -460,-325 -358,-229 -1466,-478 -1953,-514 -514,-38 -1354,-8 -1840,113 -167,41 -203,79 -537,156 -243,56 -267,98 -402,136 -269,76 -797,419 -975,642 -684,855 -193,798 -571,1036 -203,127 -834,445 -884,542 125,-35 618,35 796,65 239,40 359,-13 636,248z"/>
  </g>
  <g id="_591447576">
   <g>
    <path class="fil0" d="M5761 2202c25,207 -16,397 -27,597 178,-13 273,19 429,9l1413 -44c48,-290 21,-345 31,-623 -282,-11 -592,86 -894,87 -332,0 -547,-37 -952,-26z"/>
    <path class="fil0" d="M5573 6038c459,-7 1122,-56 1603,-107 180,-19 107,-126 85,-443 -306,12 -594,21 -901,15 -427,-8 -505,-67 -789,47l1 487z"/>
    <path class="fil0" d="M5690 4537c37,3 353,-19 411,-29 194,-33 215,-38 416,-6 307,48 617,22 925,47 16,-274 35,-232 -19,-518 -248,-19 -585,36 -872,38 -268,2 -652,-59 -872,-40l12 507z"/>
    <path class="fil0" d="M4037 2180l-61 756 512 19c19,-292 97,-533 88,-831l-538 56z"/>
    <path class="fil0" d="M3863 3956l-51 526c212,-14 415,87 630,-11 25,-76 71,-522 77,-624 -134,17 -509,59 -636,101 -5,2 -13,4 -20,8z"/>
    <path class="fil0" d="M3747 6006c150,0 426,-6 528,-69 104,-64 129,-383 98,-538 -96,70 -586,155 -590,158 -53,43 -50,365 -35,449z"/>
   </g>
   <g>
    <path class="fil1" d="M5761 2202c405,-12 621,26 952,26 302,0 612,-98 894,-87 -10,278 17,334 -31,623l-1413 44c-156,10 -250,-22 -429,-9 11,-200 52,-391 27,-597zm-288 -226l-62 648c-8,82 -41,142 -49,203 -37,302 490,233 728,238 307,6 635,-1 924,-25 232,-19 792,48 919,-10 78,-93 4,-204 -1,-403l-11 -719c-94,-267 -409,-42 -586,-15 -924,145 -1413,-66 -1863,82z"/>
    <path class="fil1" d="M5679 4030c220,-19 603,42 872,40 287,-2 624,-57 872,-38 54,286 36,244 19,518 -308,-25 -617,1 -925,-47 -201,-32 -222,-27 -416,6 -58,10 -374,31 -411,29l-12 -507zm2116 712c24,-65 -35,-771 -34,-796 18,-381 -797,-79 -1644,-152 -404,-35 -750,-148 -794,43 -24,102 14,81 19,200l5 449c-2,25 -29,201 -29,213 3,288 557,81 744,73 540,-21 328,-16 841,21 159,11 323,0 489,10 180,11 276,44 403,-61z"/>
    <path class="fil1" d="M5573 6038l-1 -487c283,-115 362,-55 789,-47 307,6 595,-4 901,-15 22,317 95,424 -85,443 -482,51 -1144,99 -1603,107zm-359 -682c-2,9 -16,831 -12,842 22,62 86,90 129,115 67,40 38,35 98,23 316,-66 1615,-171 1842,-141 78,10 151,16 213,0 102,-26 67,-27 143,-74 25,-105 -26,-642 -35,-810 -67,-150 -939,-69 -1232,-73 -512,-7 -623,-88 -1146,118z"/>
    <path class="fil1" d="M3747 6006c-15,-84 -18,-406 35,-449 5,-4 494,-89 590,-158 31,155 6,474 -98,538 -102,63 -377,69 -528,69zm-395 158c236,213 677,71 1027,63 41,-1 282,77 312,-176 36,-302 -51,-167 75,-739 23,-106 -13,-122 -90,-164 -32,-18 -76,-39 -110,-49 -88,-24 -583,151 -754,147 -226,-5 -183,-129 -374,19 34,490 -96,732 -87,899z"/>
    <path class="fil1" d="M4576 2124c9,298 -68,539 -88,831l-512 -19 61 -756 538 -56zm-890 949c132,243 620,30 845,85 547,133 220,-102 340,-582 23,-94 32,-191 51,-299 36,-200 81,-181 61,-255 -48,-178 -329,-174 -500,-135 -273,61 -438,12 -675,31 -245,19 -21,147 -60,533 -14,138 -88,555 -62,623z"/>
    <path class="fil1" d="M3863 3956c6,-3 15,-6 20,-8 127,-43 502,-85 636,-101 -5,102 -52,548 -77,624 -215,99 -418,-3 -630,11l51 -526zm-264 -279c-19,181 -21,335 -41,516 -78,722 -281,488 905,581 457,36 277,-109 366,-694 56,-366 177,-433 -6,-513 -144,-63 -164,-7 -268,19l-956 92z"/>
   </g>
  </g>
 </g>
</svg>
