<?xml version="1.0" encoding="UTF-8"?>
<!DOCTYPE svg PUBLIC "-//W3C//DTD SVG 1.1//EN" "http://www.w3.org/Graphics/SVG/1.1/DTD/svg11.dtd">
<!-- Creator: CorelDRAW X5 -->
<svg xmlns="http://www.w3.org/2000/svg" xml:space="preserve" width="158.75mm" height="79.375mm" style="shape-rendering:geometricPrecision; text-rendering:geometricPrecision; image-rendering:optimizeQuality; fill-rule:evenodd; clip-rule:evenodd"
viewBox="0 0 15875 7938"
 xmlns:xlink="http://www.w3.org/1999/xlink">
 <defs>
  <style type="text/css">
   <![CDATA[
    .fil0 {fill:none}
    .fil1 {fill:#52505D}
    .fil2 {fill:#FEFEFE}
   ]]>
  </style>
 </defs>
 <g id="Warstwa_x0020_1">
  <metadata id="CorelCorpID_0Corel-Layer"/>
  <g id="_587738560">
   <path class="fil0" d="M4660 5320c-272,-17 -482,-64 -758,-61 -247,2 -475,52 -724,-42 -41,-104 -28,32 -31,-116 -2,-80 -2,-55 36,-97 149,-165 1081,-611 1270,-796 -119,-805 755,-1392 1371,-1661 312,-136 1297,-423 1699,-440 950,-40 1162,-65 2093,117 762,149 1465,427 2023,917 91,79 114,134 191,212 157,159 179,264 249,494 27,89 40,177 70,277 33,110 75,141 102,272 70,350 16,955 -144,1305 -174,382 -471,646 -778,802 -105,53 -130,94 -232,132l-539 182c-985,404 -3344,245 -4301,-15 -593,-161 -1153,-209 -1516,-608 -337,-370 -192,-602 -82,-872zm-3538 -1323c9,110 173,398 230,508 48,93 69,192 124,280l110 247c3,6 15,24 18,30 80,137 191,402 254,556 34,83 13,32 50,95l41 79c75,175 269,621 361,783 38,66 68,101 75,185 607,108 1226,221 1802,294 269,34 572,24 832,49 1103,104 2397,369 3384,717 668,236 1361,401 2157,542 62,11 71,-20 117,-48 71,-43 39,-23 112,-55l78 -43c4,-3 10,-7 15,-10 208,-129 1322,-684 1587,-816l76 -45c4,-3 11,-7 15,-9 5,-3 11,-6 15,-9l666 -344c174,-85 574,-277 730,-376 65,-41 117,-51 168,-99 -68,-53 -89,-48 -132,-124 -108,-191 -37,-881 -82,-1130 -48,-273 -24,-626 -39,-900 -13,-232 -44,-699 -24,-931 5,-64 136,-324 181,-387 73,31 128,60 207,93 59,25 153,56 219,84 -44,-137 -21,-240 -171,-312 -118,-56 -283,-97 -412,-144l-865 -280c-155,-47 -280,-82 -425,-134 -137,-50 -292,-87 -447,-140 -700,-243 -1010,-292 -1669,-409 -174,-31 -389,-46 -563,-103 -31,-10 -187,-93 -208,-114 -28,-27 -7,-6 -31,-43 -51,-79 -34,-88 -146,-114 -241,-56 -355,-57 -577,-137 -754,-269 -529,-132 -815,-124 -40,1 -80,-8 -130,-33 -145,-71 -187,-155 -379,-139 -83,7 -201,9 -288,22l-1340 182c-425,58 -498,-27 -737,243 -56,63 -1,12 -85,64 -45,28 -61,40 -103,69l-196 121c-4,3 -11,7 -15,10l-227 138c-4,3 -10,7 -15,10l-1680 1024c-4,3 -10,7 -15,10 -4,3 -10,7 -15,10 -6,4 -24,15 -30,19l-197 119c-4,3 -10,7 -15,10l-197 120c-30,18 -26,16 -45,28l-683 412c-160,103 -513,281 -627,399z"/>
   <path class="fil0" d="M5174 5328c-345,855 169,998 964,1177 233,52 450,118 680,175 620,154 1978,150 2632,94 590,-50 1612,-325 2004,-807 268,-329 397,-684 420,-1175 18,-384 -160,-1110 -337,-1362 -74,-106 -83,-119 -174,-201 -147,-132 -293,-218 -460,-325 -358,-229 -1466,-478 -1953,-514 -514,-38 -1354,-8 -1840,113 -167,41 -203,79 -537,156 -243,56 -267,98 -402,136 -269,76 -797,419 -975,642 -684,855 -193,798 -571,1036 -203,127 -834,445 -884,542 125,-35 618,35 796,65 239,40 359,-13 636,248z"/>
  </g>
  <g id="_260689736">
   <g>
    <path class="fil1" d="M6564 5643c811,-301 1049,-510 1263,-1334 73,-282 196,-968 -156,-965 -485,3 -402,383 -533,739 -214,580 -564,1430 -1241,632 -141,-166 -418,-613 -463,-883 -40,-245 65,-430 -191,-431 -146,0 -453,68 -523,153 -80,141 178,1133 261,1304 176,361 525,555 839,673l-38 584 -1111 104c-32,82 -13,511 -13,629 343,215 353,238 869,172 275,-35 707,-20 1010,-20 1164,2 1034,197 1013,-913l-1009 52 22 -496z"/>
    <path class="fil1" d="M6290 1412c-449,121 -691,504 -767,952 -136,805 -166,785 814,666 897,-109 978,0 802,-764 -107,-468 -186,-1034 -850,-854z"/>
    <path class="fil1" d="M5713 3306c-574,124 533,1941 1123,906 107,-189 467,-817 173,-982 -33,-19 -1196,54 -1295,76z"/>
   </g>
   <g>
    <path class="fil0" d="M6564 5643l-22 496 1009 -52c21,1110 151,915 -1013,913 -303,-1 -735,-15 -1010,20 -516,66 -527,44 -869,-172 0,-118 -19,-547 13,-629l1111 -104 38 -584c-314,-118 -662,-313 -839,-673 -84,-171 -341,-1163 -261,-1304 69,-85 377,-153 523,-153 256,1 150,186 191,431 44,270 322,717 463,883 677,798 1027,-52 1241,-632 131,-355 47,-735 533,-739 352,-2 229,683 156,965 -214,824 -452,1033 -1263,1334zm-3576 1663l-13 -147c0,-407 223,-1042 268,-1215 59,-227 69,-581 288,-660 315,-114 522,-45 605,-393 55,-232 165,-531 198,-736 23,-140 -6,-351 -1,-466 13,-277 27,-113 120,-336 148,-355 360,-1123 239,-1495 1029,-87 1204,-824 1511,-943 162,-63 454,35 654,-22 632,-180 476,452 1111,390 332,-32 1010,218 1111,435 180,386 -282,4774 -203,5687l908 225 -6693 -88 1 -56c-55,-34 -88,-97 -104,-180zm2725 -4000c99,-21 1262,-94 1295,-76 294,165 -65,793 -173,982 -589,1035 -1697,-782 -1123,-906zm577 -1894c664,-180 742,386 850,854 175,764 95,655 -802,764 -981,119 -950,139 -814,-666 76,-448 318,-831 767,-952z"/>
    <polygon class="fil2" points="4693,1857 4690,1827 4658,1855 "/>
   </g>
  </g>
 </g>
</svg>
