<?xml version="1.0" encoding="UTF-8"?>
<!DOCTYPE svg PUBLIC "-//W3C//DTD SVG 1.1//EN" "http://www.w3.org/Graphics/SVG/1.1/DTD/svg11.dtd">
<!-- Creator: CorelDRAW X5 -->
<svg xmlns="http://www.w3.org/2000/svg" xml:space="preserve" width="158.75mm" height="79.375mm" style="shape-rendering:geometricPrecision; text-rendering:geometricPrecision; image-rendering:optimizeQuality; fill-rule:evenodd; clip-rule:evenodd"
viewBox="0 0 15875 7938"
 xmlns:xlink="http://www.w3.org/1999/xlink">
 <defs>
  <style type="text/css">
   <![CDATA[
    .fil0 {fill:none}
    .fil1 {fill:#5F5C6C}
   ]]>
  </style>
 </defs>
 <g id="Warstwa_x0020_1">
  <metadata id="CorelCorpID_0Corel-Layer"/>
  <g id="_587738560">
   <path class="fil0" d="M4660 5320c-272,-17 -482,-64 -758,-61 -247,2 -475,52 -724,-42 -41,-104 -28,32 -31,-116 -2,-80 -2,-55 36,-97 149,-165 1081,-611 1270,-796 -119,-805 755,-1392 1371,-1661 312,-136 1297,-423 1699,-440 950,-40 1162,-65 2093,117 762,149 1465,427 2023,917 91,79 114,134 191,212 157,159 179,264 249,494 27,89 40,177 70,277 33,110 75,141 102,272 70,350 16,955 -144,1305 -174,382 -471,646 -778,802 -105,53 -130,94 -232,132l-539 182c-985,404 -3344,245 -4301,-15 -593,-161 -1153,-209 -1516,-608 -337,-370 -192,-602 -82,-872zm-3538 -1323c9,110 173,398 230,508 48,93 69,192 124,280l110 247c3,6 15,24 18,30 80,137 191,402 254,556 34,83 13,32 50,95l41 79c75,175 269,621 361,783 38,66 68,101 75,185 607,108 1226,221 1802,294 269,34 572,24 832,49 1103,104 2397,369 3384,717 668,236 1361,401 2157,542 62,11 71,-20 117,-48 71,-43 39,-23 112,-55l78 -43c4,-3 10,-7 15,-10 208,-129 1322,-684 1587,-816l76 -45c4,-3 11,-7 15,-9 5,-3 11,-6 15,-9l666 -344c174,-85 574,-277 730,-376 65,-41 117,-51 168,-99 -68,-53 -89,-48 -132,-124 -108,-191 -37,-881 -82,-1130 -48,-273 -24,-626 -39,-900 -13,-232 -44,-699 -24,-931 5,-64 136,-324 181,-387 73,31 128,60 207,93 59,25 153,56 219,84 -44,-137 -21,-240 -171,-312 -118,-56 -283,-97 -412,-144l-865 -280c-155,-47 -280,-82 -425,-134 -137,-50 -292,-87 -447,-140 -700,-243 -1010,-292 -1669,-409 -174,-31 -389,-46 -563,-103 -31,-10 -187,-93 -208,-114 -28,-27 -7,-6 -31,-43 -51,-79 -34,-88 -146,-114 -241,-56 -355,-57 -577,-137 -754,-269 -529,-132 -815,-124 -40,1 -80,-8 -130,-33 -145,-71 -187,-155 -379,-139 -83,7 -201,9 -288,22l-1340 182c-425,58 -498,-27 -737,243 -56,63 -1,12 -85,64 -45,28 -61,40 -103,69l-196 121c-4,3 -11,7 -15,10l-227 138c-4,3 -10,7 -15,10l-1680 1024c-4,3 -10,7 -15,10 -4,3 -10,7 -15,10 -6,4 -24,15 -30,19l-197 119c-4,3 -10,7 -15,10l-197 120c-30,18 -26,16 -45,28l-683 412c-160,103 -513,281 -627,399z"/>
   <path class="fil0" d="M5174 5328c-345,855 169,998 964,1177 233,52 450,118 680,175 620,154 1978,150 2632,94 590,-50 1612,-325 2004,-807 268,-329 397,-684 420,-1175 18,-384 -160,-1110 -337,-1362 -74,-106 -83,-119 -174,-201 -147,-132 -293,-218 -460,-325 -358,-229 -1466,-478 -1953,-514 -514,-38 -1354,-8 -1840,113 -167,41 -203,79 -537,156 -243,56 -267,98 -402,136 -269,76 -797,419 -975,642 -684,855 -193,798 -571,1036 -203,127 -834,445 -884,542 125,-35 618,35 796,65 239,40 359,-13 636,248z"/>
  </g>
  <g id="_261883808">
   <g>
    <path class="fil1" d="M4969 2466c292,3 508,-62 782,-32 294,32 2145,-21 2287,152 67,168 182,2520 133,2820l-1589 31c-503,6 -1067,-13 -1591,-8 12,-136 15,-665 -3,-787 -34,-237 125,-1568 -20,-2175zm-718 -348c0,224 -32,307 -39,476 143,670 6,955 -3,1596l-38 1223c-11,126 -186,341 118,479 115,52 369,41 495,18 315,-56 431,-37 764,-28 480,13 1165,6 1633,-20 247,-13 550,-67 816,-54 238,12 580,113 740,-29 145,-129 34,-498 37,-739 1,-162 39,-253 42,-405l-53 -1255c-42,-449 164,-1095 -460,-1245 -670,-161 -3503,-285 -4051,-17z"/>
    <path class="fil1" d="M5719 2766c-258,16 -199,-40 -280,500 -23,155 -42,591 -34,735 23,411 -223,1114 470,1009 319,-48 291,-178 296,-447 4,-273 35,-493 3,-771 -64,-545 127,-1061 -454,-1026z"/>
    <path class="fil1" d="M6782 4847c120,157 124,134 346,145 230,12 197,-27 383,-89 31,-183 -1,-344 -5,-528l9 -1500c-146,-70 -421,-188 -590,-52 -186,150 -134,1314 -149,1625l5 398z"/>
   </g>
   <g>
    <path class="fil0" d="M4251 2119c548,-268 3381,-144 4051,17 624,150 419,796 460,1245l53 1255c-3,152 -40,243 -42,405 -2,241 108,610 -37,739 -160,142 -502,41 -740,29 -266,-13 -569,41 -816,54 -468,26 -1152,33 -1633,20 -333,-9 -449,-28 -764,28 -127,23 -380,34 -495,-18 -304,-138 -130,-353 -118,-479l38 -1223c9,-640 146,-926 3,-1596 -104,123 -103,491 -110,705 -13,420 -150,1010 -322,1348 -135,265 -87,382 -86,767 0,183 -210,2408 -294,2599 -43,97 -36,70 -99,124l-126 96c112,-9 161,-35 276,-58l3598 -816c607,-176 2136,-450 2807,-643 149,-43 726,-140 798,-204 185,-163 14,-622 -38,-824 -51,-198 -82,-406 -126,-579 -48,-190 -104,-338 -140,-527 -43,-224 -74,-367 -119,-548 -101,-402 -505,-2384 -726,-2687 -183,-250 -196,-132 -537,-168 -680,-72 -730,66 -1282,-16 -354,-53 -1443,-17 -1950,-16 -234,1 -464,-23 -714,-37l-620 0 -1 0c-250,18 -316,123 -408,297 80,120 164,152 238,282 111,196 37,230 22,429z"/>
    <path class="fil0" d="M5719 2766c581,-36 390,481 454,1026 33,278 2,498 -3,771 -4,269 24,399 -296,447 -693,105 -447,-598 -470,-1009 -8,-144 10,-580 34,-735 81,-540 23,-484 280,-500zm1057 1683c16,-311 -37,-1475 149,-1625 169,-136 444,-18 590,52l-9 1500c3,184 35,345 5,528 -186,62 -153,101 -383,89 -222,-11 -226,12 -346,-145l-5 -398zm-1808 -1983c145,608 -15,1938 20,2175 18,123 15,652 3,787 524,-5 1088,14 1591,8l1589 -31c49,-300 -66,-2651 -133,-2820 -142,-173 -1992,-121 -2287,-152 -274,-29 -490,35 -782,32z"/>
   </g>
  </g>
 </g>
</svg>
