<?xml version="1.0" encoding="UTF-8"?>
<!DOCTYPE svg PUBLIC "-//W3C//DTD SVG 1.1//EN" "http://www.w3.org/Graphics/SVG/1.1/DTD/svg11.dtd">
<!-- Creator: CorelDRAW X5 -->
<svg xmlns="http://www.w3.org/2000/svg" xml:space="preserve" width="158.75mm" height="79.375mm" style="shape-rendering:geometricPrecision; text-rendering:geometricPrecision; image-rendering:optimizeQuality; fill-rule:evenodd; clip-rule:evenodd"
viewBox="0 0 15875 7938"
 xmlns:xlink="http://www.w3.org/1999/xlink">
 <defs>
  <style type="text/css">
   <![CDATA[
    .fil0 {fill:none}
    .fil1 {fill:#656370}
   ]]>
  </style>
 </defs>
 <g id="Warstwa_x0020_1">
  <metadata id="CorelCorpID_0Corel-Layer"/>
  <g id="_587738560">
   <path class="fil0" d="M4660 5320c-272,-17 -482,-64 -758,-61 -247,2 -475,52 -724,-42 -41,-104 -28,32 -31,-116 -2,-80 -2,-55 36,-97 149,-165 1081,-611 1270,-796 -119,-805 755,-1392 1371,-1661 312,-136 1297,-423 1699,-440 950,-40 1162,-65 2093,117 762,149 1465,427 2023,917 91,79 114,134 191,212 157,159 179,264 249,494 27,89 40,177 70,277 33,110 75,141 102,272 70,350 16,955 -144,1305 -174,382 -471,646 -778,802 -105,53 -130,94 -232,132l-539 182c-985,404 -3344,245 -4301,-15 -593,-161 -1153,-209 -1516,-608 -337,-370 -192,-602 -82,-872zm-3538 -1323c9,110 173,398 230,508 48,93 69,192 124,280l110 247c3,6 15,24 18,30 80,137 191,402 254,556 34,83 13,32 50,95l41 79c75,175 269,621 361,783 38,66 68,101 75,185 607,108 1226,221 1802,294 269,34 572,24 832,49 1103,104 2397,369 3384,717 668,236 1361,401 2157,542 62,11 71,-20 117,-48 71,-43 39,-23 112,-55l78 -43c4,-3 10,-7 15,-10 208,-129 1322,-684 1587,-816l76 -45c4,-3 11,-7 15,-9 5,-3 11,-6 15,-9l666 -344c174,-85 574,-277 730,-376 65,-41 117,-51 168,-99 -68,-53 -89,-48 -132,-124 -108,-191 -37,-881 -82,-1130 -48,-273 -24,-626 -39,-900 -13,-232 -44,-699 -24,-931 5,-64 136,-324 181,-387 73,31 128,60 207,93 59,25 153,56 219,84 -44,-137 -21,-240 -171,-312 -118,-56 -283,-97 -412,-144l-865 -280c-155,-47 -280,-82 -425,-134 -137,-50 -292,-87 -447,-140 -700,-243 -1010,-292 -1669,-409 -174,-31 -389,-46 -563,-103 -31,-10 -187,-93 -208,-114 -28,-27 -7,-6 -31,-43 -51,-79 -34,-88 -146,-114 -241,-56 -355,-57 -577,-137 -754,-269 -529,-132 -815,-124 -40,1 -80,-8 -130,-33 -145,-71 -187,-155 -379,-139 -83,7 -201,9 -288,22l-1340 182c-425,58 -498,-27 -737,243 -56,63 -1,12 -85,64 -45,28 -61,40 -103,69l-196 121c-4,3 -11,7 -15,10l-227 138c-4,3 -10,7 -15,10l-1680 1024c-4,3 -10,7 -15,10 -4,3 -10,7 -15,10 -6,4 -24,15 -30,19l-197 119c-4,3 -10,7 -15,10l-197 120c-30,18 -26,16 -45,28l-683 412c-160,103 -513,281 -627,399z"/>
   <path class="fil0" d="M5174 5328c-345,855 169,998 964,1177 233,52 450,118 680,175 620,154 1978,150 2632,94 590,-50 1612,-325 2004,-807 268,-329 397,-684 420,-1175 18,-384 -160,-1110 -337,-1362 -74,-106 -83,-119 -174,-201 -147,-132 -293,-218 -460,-325 -358,-229 -1466,-478 -1953,-514 -514,-38 -1354,-8 -1840,113 -167,41 -203,79 -537,156 -243,56 -267,98 -402,136 -269,76 -797,419 -975,642 -684,855 -193,798 -571,1036 -203,127 -834,445 -884,542 125,-35 618,35 796,65 239,40 359,-13 636,248z"/>
  </g>
  <g id="_591443760">
   <g>
    <path class="fil1" d="M4913 4380c171,-22 508,-58 628,-85 142,-32 393,-163 472,-246 283,-296 516,-611 578,-676 69,-73 33,-35 85,-73 27,389 -21,1586 -53,2005 -356,-42 -449,-376 -809,-357 -132,7 -116,27 -228,68l-107 30c-264,61 -289,114 -539,103 47,-277 -71,-406 -26,-771zm-289 1293l127 0c142,-102 443,-158 637,-208 341,-88 350,-116 622,80l516 341c227,93 510,66 637,-106 25,-53 65,-2232 32,-2383 -67,-302 -50,-402 -62,-729 -154,-70 -171,-138 -381,-74 -144,44 -228,103 -311,237 -151,245 -295,397 -468,610 -176,218 -372,452 -589,468 -181,14 -318,31 -499,45 -102,8 -247,25 -337,61 -175,70 -105,667 -83,895 32,331 -55,531 159,762z"/>
    <path class="fil1" d="M11001 3811c-88,-216 -271,-604 -398,-746 -179,-201 -485,-512 -702,-146 141,308 16,66 249,350 80,97 170,218 232,342 87,175 244,679 258,883 25,352 -22,694 -193,951 -511,769 614,344 662,-592 19,-376 21,-725 -108,-1041z"/>
    <path class="fil1" d="M9103 5034c-309,581 1072,209 590,-1130 -67,-187 -223,-388 -314,-510 -132,-177 -191,-319 -539,-295l-99 249c253,201 573,593 575,1073 1,323 -86,374 -213,613z"/>
    <path class="fil1" d="M8490 4068c-276,-482 -756,-384 -690,-133 66,251 437,203 373,851 -630,117 536,846 483,-285 -11,-228 -65,-257 -166,-434z"/>
   </g>
   <g>
    <path class="fil0" d="M8173 4787c64,-648 -307,-600 -373,-851 -66,-251 414,-349 690,133 101,176 155,205 166,434 53,1130 -1113,402 -483,285zm568 -1439l99 -249c348,-24 408,119 539,295 91,122 247,323 314,510 482,1339 -899,1710 -590,1130 127,-239 214,-290 213,-613 -2,-480 -323,-873 -575,-1073zm1160 -429c218,-365 523,-55 702,146 127,142 310,530 398,746 129,316 127,666 108,1041 -48,936 -1173,1362 -662,592 171,-257 218,-599 193,-951 -15,-204 -172,-708 -258,-883 -61,-124 -152,-245 -232,-342 -233,-284 -108,-41 -249,-350zm-5277 2755c-215,-231 -127,-431 -159,-762 -22,-228 -92,-825 83,-895 90,-36 235,-54 337,-61 182,-13 318,-31 499,-45 218,-16 413,-250 589,-468 173,-214 316,-366 468,-610 83,-134 167,-193 311,-237 209,-64 226,4 381,74 12,327 -5,427 62,729 33,151 -7,2330 -32,2383 -127,172 -410,199 -637,106l-516 -341c-271,-196 -280,-168 -622,-80 -194,50 -495,106 -637,208 160,16 288,78 445,116 163,39 332,43 530,78 173,31 994,236 1161,306 72,31 149,49 220,66 876,213 24,109 907,309 98,22 121,40 222,64l3693 815c160,39 344,70 502,107 -72,-98 -73,-68 -189,-133 -98,-54 -125,-91 -240,-118 53,-110 143,-500 179,-644 55,-222 105,-423 164,-659 95,-376 1012,-3770 1017,-3993l-9982 -429c-4,163 -74,295 -134,474 -110,327 -1047,3084 -1118,3390 263,-70 -53,-209 901,29l1276 289c70,-4 265,-27 320,-67z"/>
    <path class="fil0" d="M4913 4380c-45,365 73,494 26,771 249,10 274,-42 539,-103l107 -30c112,-42 96,-61 228,-68 359,-20 453,314 809,357 32,-420 80,-1616 53,-2005 -52,38 -16,0 -85,73 -61,65 -294,380 -578,676 -79,83 -330,214 -472,246 -120,27 -456,63 -628,85z"/>
    <path class="fil0" d="M13076 7856c-18,-218 -247,-265 -501,-286 106,92 396,262 501,286z"/>
    <path class="fil0" d="M12431 7534c48,36 -75,36 107,36l0 -36 -107 0z"/>
   </g>
  </g>
 </g>
</svg>
