<?xml version="1.0" encoding="UTF-8"?>
<!DOCTYPE svg PUBLIC "-//W3C//DTD SVG 1.1//EN" "http://www.w3.org/Graphics/SVG/1.1/DTD/svg11.dtd">
<!-- Creator: CorelDRAW X5 -->
<svg xmlns="http://www.w3.org/2000/svg" xml:space="preserve" width="158.75mm" height="79.375mm" style="shape-rendering:geometricPrecision; text-rendering:geometricPrecision; image-rendering:optimizeQuality; fill-rule:evenodd; clip-rule:evenodd"
viewBox="0 0 15875 7938"
 xmlns:xlink="http://www.w3.org/1999/xlink">
 <defs>
  <style type="text/css">
   <![CDATA[
    .fil0 {fill:none}
    .fil1 {fill:#63616E}
   ]]>
  </style>
 </defs>
 <g id="Warstwa_x0020_1">
  <metadata id="CorelCorpID_0Corel-Layer"/>
  <g id="_260690000">
   <g>
    <path class="fil0" d="M9270 3861c-13,-153 170,-141 220,-23 22,52 38,105 71,145 143,171 244,232 381,367 114,112 256,310 299,463 72,252 50,474 -120,681 -61,74 -145,150 -246,193 -196,84 -557,25 -715,-66 -230,-134 -309,-202 -346,-518 -31,-258 260,-572 410,-880 21,-43 52,-96 60,-158 18,-138 -14,-195 -15,-206zm1356 -554l0 0 27 218c5,68 7,137 12,220l13 219c2,73 12,128 13,219 1,95 27,343 26,438 -2,253 117,1164 21,1283 -35,44 -258,115 -322,142l-1245 507c-23,9 -52,22 -81,35l-494 201c-36,16 -50,17 -85,31 -31,12 -47,20 -81,35l-164 68c-36,14 -51,20 -83,33 -15,6 -31,10 -47,17l-361 154c-199,76 -372,192 -470,45l0 0c60,5 64,26 129,26 47,0 28,-35 90,-52 0,-220 -79,-176 31,-317 2,-2 4,-5 6,-7 33,-47 40,-106 148,-161 89,-46 24,-23 86,-107l585 -536c35,-32 76,-70 110,-96 51,-38 72,-40 145,-27 176,33 153,-137 152,-231 -1,-87 13,-117 14,-193 3,-274 -32,-381 -40,-631 -3,-103 -32,-1017 -54,-1105 -17,-70 -53,-67 -113,-119 81,-19 168,-25 256,-40 80,-14 171,-24 258,-39 411,-71 852,-124 1273,-195 59,-10 180,-33 248,-35z"/>
    <path class="fil0" d="M9460 4101c-21,21 -6,0 -26,36 0,0 -12,27 -12,28 -11,27 -11,32 -19,57 -49,153 -205,370 -294,531 -116,208 -138,293 -93,514 44,218 388,341 631,342 188,1 308,-151 385,-268 98,-150 90,-357 22,-520 -66,-160 -145,-277 -258,-399 -92,-101 -195,-177 -300,-280 -18,-18 -22,-19 -36,-40z"/>
   </g>
   <path class="fil1" d="M9460 4101c14,21 17,22 36,40 105,104 207,180 300,280 113,122 191,239 258,399 68,163 77,371 -22,520 -77,117 -197,269 -385,268 -244,-1 -587,-123 -631,-342 -45,-221 -22,-306 93,-514 89,-161 245,-378 294,-531 8,-25 8,-30 19,-57 0,-1 12,-28 12,-28 20,-36 5,-15 26,-36zm662 1394c171,-207 192,-429 120,-681 -43,-153 -186,-351 -299,-463 -138,-135 -239,-196 -381,-367 -33,-40 -49,-94 -71,-145 -50,-119 -233,-130 -220,23 1,10 33,68 15,206 -8,62 -39,115 -60,158 -151,308 -441,622 -410,880 37,316 116,384 346,518 157,91 518,150 715,66 100,-43 185,-119 246,-193z"/>
  </g>
 </g>
</svg>
