<?xml version="1.0" encoding="UTF-8"?>
<!DOCTYPE svg PUBLIC "-//W3C//DTD SVG 1.1//EN" "http://www.w3.org/Graphics/SVG/1.1/DTD/svg11.dtd">
<!-- Creator: CorelDRAW X5 -->
<svg xmlns="http://www.w3.org/2000/svg" xml:space="preserve" width="158.75mm" height="79.375mm" style="shape-rendering:geometricPrecision; text-rendering:geometricPrecision; image-rendering:optimizeQuality; fill-rule:evenodd; clip-rule:evenodd"
viewBox="0 0 15875 7938"
 xmlns:xlink="http://www.w3.org/1999/xlink">
 <defs>
  <style type="text/css">
   <![CDATA[
    .str0 {stroke:#003399;stroke-width:20}
    .fil1 {fill:none}
    .fil2 {fill:#003399}
    .fil0 {fill:#FCFCFC}
    .fil4 {fill:#FDFDFD}
    .fil3 {fill:#FEFEFE}
   ]]>
  </style>
 </defs>
 <g id="Warstwa_x0020_1">
  <metadata id="CorelCorpID_0Corel-Layer"/>
  <g id="_316814320">
   <g>
    <path class="fil0" d="M454 2746c148,57 90,-30 182,105 -60,182 -59,104 -186,182 -330,202 -228,639 99,616 114,-204 91,-293 366,-183 38,174 3,323 159,403 257,110 327,-223 437,-271 153,-68 210,-3 241,117 46,174 3,144 100,307 421,19 290,-173 445,-261 196,-111 244,178 530,81 130,-77 125,-139 192,-280 -61,-197 -132,-24 -133,-292 183,-95 453,-8 517,-812 26,-321 -199,-390 -523,-200 -123,73 -186,305 -352,114 -144,-166 18,-172 -266,-324 -172,-92 -270,-117 -493,-104 -346,21 -238,74 -338,222 -112,166 -189,-11 -389,-4 -239,9 -592,258 -587,584z"/>
    <path class="fil1" d="M914 4072c-69,-97 -105,-95 -158,-239 -114,39 -177,162 -509,-89 -128,-97 -292,-293 -201,-523 110,-278 196,-38 180,-475 -14,-384 419,-703 758,-748 207,-27 162,29 299,-87 120,-101 74,-87 259,-123 220,-42 444,-48 654,40 244,103 293,184 479,301 184,-104 635,-284 793,-69 3,3 164,333 170,354 37,135 -41,284 -54,471 90,-24 66,7 166,-147l191 -367c90,-211 95,-450 95,-737l0 -15 0 -30 0 -15 0 -15c-401,0 -306,39 -537,-91 -114,-64 -390,-63 -540,-88 -66,-11 -187,-26 -266,-48 -121,-34 -90,-64 -260,-54 -261,15 -208,166 -454,180 -294,16 -273,-108 -537,18 -353,169 -837,29 -1320,-85 -110,-26 -139,-42 -272,-42 5,237 157,601 26,863 -107,215 -253,145 -198,774 19,216 59,184 -2,420 -17,64 -28,136 -35,213l0 360c20,252 81,506 174,683 151,0 253,-12 373,-116 102,-88 116,-218 116,-408 186,-43 416,-33 611,-70z"/>
    <path class="fil1" d="M2789 4106c176,47 140,43 165,105l70 0c36,-134 98,-133 177,-242 65,-91 120,-190 3,-281 -77,330 -197,252 -415,419z"/>
   </g>
   <path class="fil2" d="M454 2746c-5,-325 348,-575 587,-584 200,-8 278,170 389,4 100,-149 -8,-201 338,-222 223,-14 321,11 493,104 284,153 122,158 266,324 166,191 229,-42 352,-114 324,-191 549,-121 523,200 -64,805 -334,718 -517,812 1,268 71,95 133,292 -66,142 -62,203 -192,280 -286,98 -334,-191 -530,-81 -155,88 -24,280 -445,261 -97,-163 -55,-133 -100,-307 -32,-121 -88,-185 -241,-117 -110,49 -180,382 -437,271 -155,-80 -121,-229 -159,-403 -276,-110 -252,-21 -366,183 -326,23 -429,-414 -99,-616 127,-78 127,0 186,-182 -91,-135 -33,-47 -182,-105zm461 1325c311,96 453,-73 720,29 124,47 219,220 644,28 207,-93 293,-67 510,-22 218,-166 338,-89 415,-419l-46 -138 425 -665c13,-187 92,-336 54,-471 -6,-21 -167,-351 -170,-354 -158,-214 -608,-35 -793,69 -185,-118 -235,-199 -479,-301 -210,-88 -434,-82 -654,-40 -185,36 -140,22 -259,123 -137,116 -92,59 -299,87 -338,45 -771,365 -758,748 15,437 -71,197 -180,475 -91,230 73,426 201,523 333,251 396,127 509,89 52,144 88,142 158,239z"/>
  </g>
  <g id="_316807384">
   <g>
    <path class="fil3" d="M8948 1366c-655,-443 -1055,28 -1234,-96 -144,-100 31,-235 77,-317 -98,-321 -285,-392 -679,-271 -376,116 -352,381 -602,408 -190,-223 -26,-299 -188,-514 -134,-178 -313,-142 -457,-51 -574,363 -428,779 -436,904 -281,16 -179,-253 -258,-400 -92,-142 -358,-224 -523,-186 -354,81 -214,263 -288,417 -190,140 -137,6 -358,33 -50,122 -100,253 -85,432 178,125 277,170 499,209 19,414 -288,151 -263,554 141,151 406,207 673,230 313,27 554,-93 751,0 -7,270 -88,115 -109,412 233,-1 428,-37 659,-53 614,-42 283,-210 567,-71 17,96 -197,543 394,766 426,161 505,-31 706,-310 210,-14 310,149 873,-339 207,-179 408,-502 314,-875 -176,-89 -195,1 -311,-203 33,-63 25,-37 68,-79 38,-38 -29,31 38,-32 5,-5 13,-11 18,-16 137,-139 171,-343 153,-552z"/>
    <path class="fil1" d="M4244 811c483,-387 765,-114 1058,-14 84,-80 75,-97 146,-175 822,-908 1185,119 1186,120 313,-208 869,-489 1215,-114 39,42 96,116 116,156l69 223c354,-57 785,-1 991,186 305,278 109,485 -14,821 91,117 106,70 167,221 252,623 -539,1179 -986,1404 -269,136 -240,-18 -497,221 -163,151 -277,186 -553,104 -309,-91 -641,-353 -681,-722 -331,16 -528,39 -851,79 228,148 120,591 500,821 576,350 368,-19 650,131 250,133 -46,100 315,133 154,14 208,54 302,143 232,222 232,66 694,28 459,-38 357,-138 600,-287 81,-50 71,-35 143,-96 159,-133 148,-166 240,-306 25,-37 28,-37 60,-77l281 -368c139,-187 213,-651 243,-1114l0 -886c-9,-108 -21,-194 -37,-246 -30,-102 -62,-251 -96,-348 -111,-319 -37,-82 -81,-362 -84,-523 -480,-730 -934,-876 -584,-188 -1212,-52 -1685,-54 -679,-3 -581,-62 -581,341 -295,7 -441,108 -546,307 -913,0 -231,-478 -1229,-478 0,250 12,400 -40,609 -22,90 -29,139 -77,230 -51,97 -76,109 -88,246z"/>
    <path class="fil1" d="M3971 2623c45,-68 14,-4 -16,-117 -73,-278 60,-256 119,-460 -186,-181 -398,-89 -373,-478l-114 95c51,194 179,182 74,378 -70,130 -149,148 -237,313 98,66 115,101 249,160l297 109z"/>
    <path class="fil1" d="M4385 2900c148,42 260,172 444,201 168,26 101,-14 247,60 93,47 110,77 234,81 -91,-105 -50,-196 -29,-355 -382,31 -590,10 -933,-92l37 105z"/>
   </g>
   <path class="fil2" d="M8948 1366c18,209 -17,413 -153,552 -5,5 -13,11 -18,16 -66,64 1,-5 -38,32 -43,42 -35,16 -68,79 116,205 136,114 311,203 95,372 -106,695 -314,875 -563,488 -664,325 -873,339 -201,280 -280,471 -706,310 -591,-223 -377,-669 -394,-766 -284,-139 47,29 -567,71 -231,16 -425,52 -659,53 22,-297 103,-141 109,-412 -197,-93 -438,27 -751,0 -267,-23 -532,-80 -673,-230 -26,-402 281,-140 263,-554 -222,-40 -321,-84 -499,-209 -15,-178 35,-310 85,-432 220,-27 168,106 358,-33 74,-154 -66,-337 288,-417 165,-38 431,44 523,186 79,148 -23,417 258,400 8,-125 -138,-541 436,-904 144,-91 324,-127 457,51 161,215 -2,291 188,514 250,-27 226,-292 602,-408 394,-121 581,-50 679,271 -45,82 -221,216 -77,317 178,124 579,-347 1234,96zm-4704 -556l-329 327c-72,94 -209,304 -214,431 -25,389 187,297 373,478 -58,204 -192,182 -119,460 30,113 61,49 16,117 6,6 15,6 18,17 3,11 14,14 18,17l169 106c242,132 41,80 208,137l-37 -105c343,102 551,123 933,92 -20,159 -61,250 29,355 157,87 100,55 300,79 323,-40 519,-63 851,-79 40,369 372,630 681,722 276,82 390,47 553,-104 257,-239 228,-86 497,-221 446,-225 1237,-781 986,-1404 -61,-151 -75,-104 -167,-221 123,-336 319,-542 14,-821 -206,-188 -637,-243 -991,-186l-69 -223c-20,-39 -78,-114 -116,-156 -345,-375 -901,-93 -1215,114 0,-1 -364,-1029 -1186,-120 -70,78 -62,95 -146,175 -293,-100 -575,-373 -1058,14z"/>
  </g>
  <g id="_447112072">
   <g>
    <path class="fil4" d="M10570 5079c-86,-152 78,-247 -34,-426 -145,-232 -705,-35 -779,45 -66,71 -128,290 -312,181 -171,-102 62,-171 -58,-395 -58,-107 -209,-127 -364,-154 -686,-121 -674,525 -823,654 -139,119 -254,-2 -288,-130 -94,-365 -323,-450 -526,-168 -322,450 -115,604 -222,750 -105,143 -152,99 -162,357 -6,157 21,338 183,356 79,9 526,-170 403,151 -27,71 -61,73 -117,101 -479,238 102,624 225,593 263,-189 96,-548 565,-410 7,236 -21,118 -107,290 -89,179 124,853 889,267 248,-190 189,-134 245,-458 534,-219 195,175 303,439 88,216 349,289 634,264 687,-59 529,-548 718,-637 190,-89 188,35 287,138 770,-131 302,-894 347,-1025 109,-134 297,-268 331,-466 39,-236 -93,-454 -216,-547 -166,-126 -512,-82 -669,6 -207,116 -246,376 -454,223z"/>
    <path class="fil1" d="M8078 4571c233,-147 191,-458 763,-451 357,5 731,43 823,355 219,-40 504,-162 736,-143 306,25 373,252 450,387 190,-80 546,-199 833,-106 226,73 400,279 444,528 80,446 -125,490 -222,736 -122,309 129,501 -29,804 -116,223 -439,399 -761,448 -202,30 -55,-32 -166,76 -603,584 -1369,478 -1611,-25 -164,57 -430,329 -785,409 -201,45 -339,-43 -443,-130 -73,-61 -104,-88 -145,-162l-107 -192c-196,195 -473,28 -639,-104 -206,-164 -284,-291 -144,-618 -192,-164 -314,-138 -355,-488 -31,-269 54,-515 248,-583 -46,-628 643,-1425 1109,-740zm2280 -1065l423 0c705,0 921,277 1292,787l274 419c49,90 91,219 117,334 19,85 20,125 41,201 35,123 43,-2 43,157l0 8 0 472c-8,74 -27,146 -62,228l-136 383c-97,486 -82,339 -442,701 -47,47 -22,24 -49,55 -70,80 -121,134 -225,191 -65,36 -220,103 -289,127 -67,23 -92,22 -165,43 -65,18 -92,30 -156,52 -588,197 -1054,124 -1480,183 -514,72 -356,-42 -736,-46 -359,-5 -638,132 -967,-37 -47,-24 -97,-44 -142,-66 -484,-226 -630,-751 -777,-990l-146 -201c-74,-126 -34,-139 -57,-289 -13,-82 -77,-264 -94,-457l0 -176c7,-66 23,-131 53,-190 50,-99 109,-95 114,-224 9,-269 -269,-257 332,-854l34 -36c168,-180 193,-150 334,-359 214,0 358,-12 537,-87 363,-153 1132,-155 1602,-234 438,-74 520,-91 731,-94z"/>
   </g>
   <path class="fil2" d="M10570 5079c207,152 247,-108 454,-223 157,-88 503,-131 669,-6 124,94 256,311 216,547 -33,198 -221,332 -331,466 -45,131 424,893 -347,1025 -99,-103 -97,-227 -287,-138 -189,89 -32,579 -718,637 -285,24 -546,-48 -634,-264 -108,-264 231,-658 -303,-439 -56,324 3,268 -245,458 -766,586 -979,-88 -889,-267 86,-172 114,-54 107,-290 -469,-138 -302,222 -565,410 -123,30 -704,-355 -225,-593 55,-28 90,-30 117,-101 123,-321 -323,-142 -403,-151 -163,-18 -189,-199 -183,-356 10,-259 57,-215 162,-357 107,-146 -100,-300 222,-750 202,-283 431,-197 526,168 33,129 149,249 288,130 149,-128 137,-774 823,-654 154,27 306,48 364,154 121,224 -113,293 58,395 183,109 246,-109 312,-181 74,-80 634,-277 779,-45 112,179 -52,273 34,426zm-2491 -508c-466,-685 -1155,112 -1109,740 -194,67 -279,314 -248,583 41,350 163,325 355,488 -140,327 -63,454 144,618 166,132 443,299 639,104l107 192c40,74 72,101 145,162 104,87 243,175 443,130 355,-80 621,-352 785,-409 242,503 1008,609 1611,25 111,-108 -36,-46 166,-76 322,-49 644,-225 761,-448 158,-303 -93,-495 29,-804 97,-246 302,-290 222,-736 -44,-248 -218,-454 -444,-528 -287,-93 -643,26 -833,106 -77,-135 -145,-361 -450,-387 -232,-19 -517,103 -736,143 -92,-313 -466,-351 -823,-355 -572,-7 -530,304 -763,451z"/>
  </g>
  <g id="_316813192">
   <g>
    <path class="fil1" d="M5779 5532c105,188 128,237 34,434 -70,147 -136,267 -227,371 -209,236 -548,335 -791,43 -265,389 -975,815 -1345,28 -78,24 -80,50 -144,95 -439,310 -1023,265 -971,-426 -514,-17 -507,-328 -296,-677l161 -194 241 -160c-3,-256 172,-642 312,-726 117,-70 321,-49 461,-20 172,35 249,136 344,211 208,-130 423,-286 760,-288 162,-1 304,19 428,93 172,103 171,231 224,318 392,-151 1312,57 1115,576 -56,146 -207,226 -306,321zm658 1234l0 92c-26,57 -123,106 -381,222 -63,28 -133,52 -192,79 -97,44 -238,72 -402,84l-471 0c-366,-23 -748,-95 -990,-198 -404,-173 -654,98 -1062,29 -58,-10 -133,-43 -207,-64 -82,-24 -114,-29 -199,-45 -25,-5 -74,-13 -113,-22l-309 -71c-135,-49 -240,-173 -323,-274l-26 -28c-105,-130 -130,-332 -162,-490 -64,-317 -107,-100 -105,-655 1,-487 -82,-366 -82,-924 112,-75 126,-92 224,-184 61,-58 160,-130 232,-175 77,-48 414,-275 467,-348l-54 0c28,-121 83,-200 101,-306 64,-366 48,-165 89,-319 101,8 127,31 210,61 302,109 288,90 599,162 130,30 297,45 439,77 425,96 124,29 462,54 187,14 104,46 464,52 80,1 407,92 528,124l217 55c216,57 261,50 465,160 121,65 226,87 322,194 88,98 123,212 158,358 43,180 21,779 -11,981 -41,259 -308,288 -167,526 197,332 190,146 227,535 12,124 39,201 53,257zm-4075 -2999l-27 27 27 -27zm0 0l0 0z"/>
    <path class="fil3" d="M2667 4808l5 181c102,57 76,-27 138,88 10,92 -66,226 -148,279 -153,-71 -138,-205 -330,-45 -73,61 -162,193 -206,312 -155,416 397,213 555,271 -47,162 -210,61 -119,390 46,167 158,256 356,209 503,-121 428,-443 749,-418 17,224 -75,82 -43,260 47,256 447,570 935,62 143,-149 -3,-292 307,-296 61,118 91,245 246,266 274,38 498,-281 529,-488 34,-235 -93,-210 -203,-288 -5,-126 -5,-136 62,-207 120,34 54,136 245,26 536,-310 -31,-751 -700,-619 -252,50 -160,284 -423,271 -97,-118 -35,-255 59,-298l76 -22c80,-330 -426,-390 -659,-325 -533,149 -373,360 -687,422 -1,-150 53,-347 -375,-385 -333,-30 -239,193 -369,354z"/>
    <polygon class="fil3" points="2281,3793 2222,3808 "/>
   </g>
   <path class="fil2" d="M2809 5077c-42,10 -114,-64 -94,210 -9,-7 -18,-16 -26,-23l-64 -50c-139,-93 -130,-12 -145,-214 34,43 18,-49 53,96 30,-115 17,-90 64,-154l21 35c13,-100 -84,-190 48,-170 130,-161 36,-384 369,-354 428,38 374,235 375,385 314,-61 154,-272 687,-422 233,-65 739,-5 659,325l-76 22c-94,43 -156,180 -59,298 262,13 171,-221 423,-271 669,-133 1236,309 700,619 -191,110 -125,8 -245,-26 -67,70 -67,81 -62,207 111,79 238,54 203,288 -30,207 -254,526 -529,488 -155,-21 -185,-148 -246,-266 -310,4 -164,147 -307,296 -489,508 -889,194 -935,-62 -32,-178 59,-36 43,-260 -322,-25 -246,298 -749,418 -198,47 -310,-41 -356,-209 -91,-328 72,-228 119,-390 -157,-59 -710,144 -555,-271 44,-119 134,-251 206,-312 192,-160 177,-27 330,45 82,-53 158,-187 148,-279zm2970 455c99,-95 250,-175 306,-321 197,-519 -724,-727 -1115,-576 -53,-87 -52,-215 -224,-318 -124,-74 -266,-94 -428,-93 -337,2 -553,158 -760,288 -95,-75 -171,-176 -344,-211 -140,-29 -344,-50 -461,20 -139,84 -315,470 -312,726l-241 160 -161 194c-211,349 -218,660 296,677 -52,691 532,736 971,426 64,-45 66,-71 144,-95 370,786 1081,361 1345,-28 243,292 582,193 791,-43 92,-103 157,-224 227,-371 94,-197 71,-246 -34,-434z"/>
   <path class="fil2 str0" d="M2809 5077c-62,-116 -35,-31 -138,-88l-5 -181c-132,-20 -35,70 -48,170l-21 -35c-46,64 -33,38 -64,154 -36,-145 -19,-53 -53,-96 15,202 7,122 145,214l64 50c8,7 17,15 26,23 -20,-275 52,-201 94,-210z"/>
  </g>
  <g id="_316815448">
   <g>
    <path class="fil3" d="M10259 1275c56,77 26,184 -23,271l-151 -84c-78,207 -221,-7 -420,232 -77,93 -172,363 -137,516 34,150 190,304 312,345 305,102 328,-183 507,-13 -58,186 -68,32 -191,200 -287,391 -102,1157 589,723 414,-260 317,-479 586,-284 84,60 29,18 91,82 688,709 755,241 960,7 25,-29 62,-62 83,-87 284,-338 87,-93 299,-264 92,105 22,204 214,278 392,151 349,-267 513,-381 82,-57 234,-131 331,-187 315,-182 44,-462 -138,-550 -188,-91 -175,-24 -299,-192 -130,-177 -87,-168 88,-278 27,-266 56,-362 -226,-372 -335,-12 -277,124 -446,157 -187,-255 15,-341 -61,-557 -80,-228 -529,-554 -1076,-221 -210,127 -231,318 -423,390 -245,-2 -153,-581 -618,-531 -300,32 -298,520 -363,803z"/>
    <polygon class="fil1" points="10514,-90 10583,-90 10618,-124 10550,-164 "/>
   </g>
   <path class="fil2" d="M10068 1226c89,160 26,110 177,240 -5,-285 -27,-126 14,-191 65,-282 64,-771 363,-803 465,-49 373,529 618,531 193,-72 213,-263 423,-390 548,-332 996,-7 1076,221 76,216 -126,302 61,557 169,-34 111,-170 446,-157 282,10 253,107 226,372 -175,110 -219,100 -88,278 124,168 110,101 299,192 182,88 453,367 138,550 -97,56 -249,131 -331,187 -164,114 -121,532 -513,381 -192,-74 -122,-172 -214,-278 -212,171 -15,-73 -299,264 -22,26 -58,59 -83,87 -205,234 -271,702 -960,-7 -62,-64 -7,-22 -91,-82 -269,-194 -172,24 -586,284 -691,435 -876,-332 -589,-723 123,-168 133,-13 191,-200 -179,-170 -202,115 -507,13 -123,-41 -279,-195 -312,-345 -34,-153 60,-423 137,-516 199,-239 342,-25 420,-232l78 -89c-123,3 -92,28 -169,-71 -277,-69 -1042,622 -588,1203 160,204 251,183 411,313 -118,375 25,813 304,984 346,212 791,-250 1016,-334 278,95 407,423 797,426 383,3 464,-367 692,-543 131,60 516,431 917,-202 111,-175 34,-161 243,-280 252,-143 489,-198 397,-601 -62,-270 -291,-418 -498,-524 170,-691 -82,-758 -684,-757 -25,-194 -104,-378 -211,-481 -313,-301 -743,-312 -1099,-150 -189,87 -292,218 -460,285 -117,-254 -451,-555 -820,-316 -179,116 -424,592 -343,899z"/>
   <path class="fil2 str0" d="M9994 1303c77,98 46,74 169,71l-78 89 151 84c49,-87 79,-194 23,-271 -41,65 -20,-95 -14,191 -150,-129 -88,-80 -177,-240 7,113 35,92 -74,76z"/>
  </g>
 </g>
</svg>
