<?xml version="1.0" encoding="UTF-8"?>
<!DOCTYPE svg PUBLIC "-//W3C//DTD SVG 1.1//EN" "http://www.w3.org/Graphics/SVG/1.1/DTD/svg11.dtd">
<!-- Creator: CorelDRAW X5 -->
<svg xmlns="http://www.w3.org/2000/svg" xml:space="preserve" width="158.75mm" height="79.375mm" style="shape-rendering:geometricPrecision; text-rendering:geometricPrecision; image-rendering:optimizeQuality; fill-rule:evenodd; clip-rule:evenodd"
viewBox="0 0 15875 7938"
 xmlns:xlink="http://www.w3.org/1999/xlink">
 <defs>
  <style type="text/css">
   <![CDATA[
    .fil0 {fill:none}
    .fil1 {fill:#003399}
   ]]>
  </style>
 </defs>
 <g id="Warstwa_x0020_1">
  <metadata id="CorelCorpID_0Corel-Layer"/>
  <g id="_314066184">
   <g>
    <path class="fil0" d="M4944 2210c-149,-9 -244,27 -313,121 -83,113 -35,256 -51,402 85,-9 186,-17 197,72 8,65 -221,260 -327,480 -251,520 270,527 303,675 33,145 -277,165 -221,592 62,475 357,275 459,422 90,135 -189,181 9,433 87,110 275,159 443,164 28,-74 65,-198 120,-253 73,-74 202,-126 296,-61 66,66 -33,612 510,486 120,-28 254,-89 296,-193 59,-147 111,-246 309,-222 55,23 23,90 258,205 161,79 221,48 391,5 154,-39 234,-55 362,-110 95,-41 253,-151 351,-154 184,-5 171,256 757,173 163,-23 248,-20 369,-101 466,-310 280,-3 551,96 130,48 237,-11 375,-26 203,-23 123,-80 224,-194 254,-286 578,300 1013,67 197,-105 178,-266 392,-266 108,0 82,24 187,41 125,-151 204,-290 189,-563 -18,-318 -236,-260 -284,-470 89,-164 318,-238 270,-457 -40,-180 -183,-356 -243,-537 -85,-253 238,-246 162,-515 -78,-276 -281,-252 -365,-294 -227,-115 145,-433 -317,-402 -546,37 -475,285 -662,308 -118,14 -139,-66 -182,-139 -299,-504 -1222,171 -1484,98 -218,-60 -223,-565 -819,-148 -160,112 -418,324 -698,222 -127,-46 -80,-54 -172,-157 -254,-285 -670,186 -886,253 -622,193 -382,-576 -1127,80 -72,63 -111,79 -232,103 -252,49 -308,-49 -408,-236z"/>
    <path class="fil0" d="M6628 2048c103,-37 131,-96 256,-152 249,-111 632,-275 888,-113 231,146 170,311 474,83 144,-107 308,-192 500,-254 593,-192 545,305 799,258 108,-20 760,-380 1257,-214 119,40 124,97 220,160 195,-82 291,-143 543,-170 361,-39 370,-1 571,145l10 257 224 138c193,127 239,385 170,505 -259,453 -96,207 76,809 81,283 -232,417 -198,534 28,96 466,264 94,965 -95,180 -166,258 -429,265 -187,5 -248,143 -441,213 -139,50 -470,73 -625,21 -353,-116 -105,-120 -415,47 -129,69 -383,119 -552,138 -253,30 -337,-103 -468,-180 -251,178 -367,109 -678,183 -294,70 -528,-71 -701,-117 -99,-27 -223,68 -308,101 -112,44 -222,59 -336,88 -564,143 -577,-91 -690,-74 -92,53 -160,124 -286,185 -89,43 -230,97 -331,115 -141,26 -283,12 -408,-34 -209,-76 -154,-127 -225,-226 -124,37 -206,121 -375,101 -100,-12 -294,-54 -360,-96 -56,-35 -64,-64 -126,-108 -152,-109 -182,-202 -193,-461 -182,-108 -327,-238 -372,-461 -31,-156 -88,-300 58,-506 31,-44 44,-59 63,-118 -38,-48 -79,-78 -128,-125 -316,-303 -108,-796 35,-919 167,-144 63,-124 13,-335 -61,-262 96,-537 365,-655 429,-187 520,-102 784,60 94,-36 842,-563 1243,-56zm1581 -778l83 0c159,3 317,24 491,24 96,0 170,-20 248,-24l52 0c22,1 44,4 67,10l347 55c234,31 559,16 755,-11 204,-28 573,-6 796,-6 307,0 490,-47 731,-47l180 0c272,3 399,32 610,295 3,4 8,9 11,13 62,81 112,178 120,282 9,127 -73,903 35,1096 103,183 38,47 78,323 31,216 6,487 75,704 11,33 18,83 24,144l0 1009 0 4c-71,26 -23,1 -83,59 -112,108 -281,125 -405,208 -82,55 -158,86 -253,124 -308,123 -825,177 -1146,176 -198,-1 -393,-24 -578,36l-178 58c-30,8 -27,5 -57,14 -7,2 -28,10 -35,12l-168 68c-130,85 -194,71 -353,71 -449,0 -421,-37 -686,-69 -84,-10 -139,-49 -187,-49 -203,0 -420,7 -599,61 -259,79 -606,-21 -852,44 -380,100 -625,-20 -931,60 -93,24 -83,42 -150,62 -163,49 -299,79 -488,79l-9 0 -110 0c-122,-1 -214,-8 -347,-54 -244,-83 -333,-24 -531,-224 -185,-187 -241,-191 -450,-329l-140 -96c-28,-25 -5,-5 -34,-37l-33 -38c-68,-74 -96,-148 -140,-237 -118,-239 -61,-366 -136,-619 -31,-105 -32,-89 -30,-229 3,-277 -47,-332 -47,-449l0 -5 0 -270c8,-60 35,-107 111,-252 24,-45 5,6 22,-49 10,-31 12,-68 17,-101 28,-212 57,-161 119,-306 35,-83 11,-266 42,-359 32,-96 13,-269 45,-356 2,-5 5,-11 7,-17l13 -34c15,-36 1,-11 21,-49 22,-42 30,-48 62,-80 171,-169 265,-110 533,-128 135,-9 57,-17 168,-45 11,-3 47,-9 60,-11 160,-27 288,-90 456,-87 224,4 228,-36 395,-124 27,-14 26,-11 48,-23 63,-32 66,-67 123,-66 139,46 -93,11 99,65 189,53 362,53 562,53 233,0 399,-55 575,-133 117,-52 315,-88 441,-101 152,-17 128,-27 249,-58 99,-25 193,-36 286,-38z"/>
   </g>
   <path class="fil1" d="M4944 2210c100,187 156,285 408,236 121,-23 160,-40 232,-103 745,-656 505,113 1127,-80 216,-67 632,-538 886,-253 92,103 45,111 172,157 280,102 539,-110 698,-222 595,-417 601,87 819,148 263,73 1185,-601 1484,-98 43,73 64,153 182,139 186,-23 116,-271 662,-308 462,-32 90,287 317,402 84,43 287,18 365,294 76,270 -247,263 -162,515 60,180 203,356 243,537 49,219 -181,292 -270,457 48,211 267,153 284,470 15,273 -63,412 -189,563 -105,-17 -79,-41 -187,-41 -215,0 -196,161 -392,266 -435,232 -759,-353 -1013,-67 -101,114 -21,171 -224,194 -138,16 -245,74 -375,26 -270,-99 -85,-406 -551,-96 -121,81 -206,77 -369,101 -585,83 -572,-178 -757,-173 -98,3 -256,113 -351,154 -128,55 -208,71 -362,110 -170,43 -230,74 -391,-5 -236,-115 -204,-182 -258,-205 -198,-24 -249,75 -309,222 -42,105 -176,166 -296,193 -543,126 -444,-420 -510,-486 -94,-65 -222,-13 -296,61 -55,55 -92,179 -120,253 -168,-5 -356,-54 -443,-164 -199,-252 81,-298 -9,-433 -102,-147 -396,53 -459,-422 -56,-428 253,-447 221,-592 -33,-147 -554,-155 -303,-675 106,-220 334,-414 327,-480 -11,-89 -111,-81 -197,-72 16,-146 -32,-289 51,-402 69,-94 164,-130 313,-121zm1684 -162c-401,-507 -1149,20 -1243,56 -264,-163 -355,-248 -784,-60 -269,118 -426,392 -365,655 49,211 154,191 -13,335 -143,123 -351,617 -35,919 49,47 90,77 128,125 -19,59 -31,74 -63,118 -146,206 -89,350 -58,506 44,223 189,353 372,461 12,259 41,352 193,461 62,44 70,73 126,108 66,41 260,84 360,96 169,20 252,-64 375,-101 71,99 17,150 225,226 125,45 267,59 408,34 101,-18 243,-72 331,-115 126,-62 194,-132 286,-185 113,-17 126,217 690,74 115,-29 225,-44 336,-88 84,-33 208,-128 308,-101 173,46 408,187 701,117 311,-74 427,-5 678,-183 131,77 215,210 468,180 169,-20 423,-69 552,-138 310,-167 62,-163 415,-47 156,51 487,29 625,-21 193,-70 254,-208 441,-213 263,-6 334,-85 429,-265 372,-701 -66,-869 -94,-965 -34,-117 279,-251 198,-534 -172,-602 -335,-356 -76,-809 68,-120 23,-378 -170,-505l-224 -138 -10 -257c-202,-146 -210,-184 -571,-145 -252,27 -348,88 -543,170 -96,-63 -101,-121 -220,-160 -498,-166 -1149,194 -1257,214 -254,47 -206,-450 -799,-258 -193,63 -357,147 -500,254 -305,227 -243,63 -474,-83 -256,-162 -639,2 -888,113 -125,56 -153,114 -256,152z"/>
  </g>
 </g>
</svg>
