<?xml version="1.0" encoding="UTF-8"?>
<!DOCTYPE svg PUBLIC "-//W3C//DTD SVG 1.1//EN" "http://www.w3.org/Graphics/SVG/1.1/DTD/svg11.dtd">
<!-- Creator: CorelDRAW X5 -->
<svg xmlns="http://www.w3.org/2000/svg" xml:space="preserve" width="158.75mm" height="79.375mm" style="shape-rendering:geometricPrecision; text-rendering:geometricPrecision; image-rendering:optimizeQuality; fill-rule:evenodd; clip-rule:evenodd"
viewBox="0 0 15875 7938"
 xmlns:xlink="http://www.w3.org/1999/xlink">
 <defs>
  <style type="text/css">
   <![CDATA[
    .fil0 {fill:none}
    .fil1 {fill:#686673}
   ]]>
  </style>
 </defs>
 <g id="Warstwa_x0020_1">
  <metadata id="CorelCorpID_0Corel-Layer"/>
  <g id="_258126024">
   <g>
    <path class="fil0" d="M9817 4610c10,130 97,279 223,300 144,24 218,-214 228,-278 22,-146 -121,-253 -233,-279 -224,-53 -230,102 -218,257z"/>
    <path class="fil0" d="M9001 5123c33,80 79,289 199,161 148,-157 -19,-382 -199,-161z"/>
    <path class="fil0" d="M8527 5621c18,42 14,60 77,83l17 -99 -50 -39 -44 56z"/>
   </g>
   <g>
    <path class="fil1" d="M9817 4610c-12,-155 -6,-310 218,-257 112,26 255,133 233,279 -10,64 -84,301 -228,278 -126,-21 -213,-170 -223,-300zm115 -369c-125,17 -147,73 -191,119 -22,23 -39,29 -57,48 -173,189 91,739 451,621 213,-70 344,-316 304,-506 -10,-45 -41,-113 -63,-133l-122 -89c-79,-61 -192,-78 -322,-61z"/>
    <path class="fil1" d="M9001 5123c181,-221 347,4 199,161 -120,128 -167,-81 -199,-161zm175 -203c-457,45 -352,548 -30,534 119,-5 257,-161 282,-261 45,-178 -98,-288 -252,-273z"/>
    <path class="fil1" d="M8527 5621l44 -56 50 39 -17 99c-63,-23 -59,-40 -77,-83zm247 30c31,-134 -81,-192 -157,-198 -177,-15 -263,217 -185,307l52 42c111,64 263,-33 290,-151z"/>
   </g>
  </g>
 </g>
</svg>
