<?xml version="1.0" encoding="UTF-8"?>
<!DOCTYPE svg PUBLIC "-//W3C//DTD SVG 1.1//EN" "http://www.w3.org/Graphics/SVG/1.1/DTD/svg11.dtd">
<!-- Creator: CorelDRAW X5 -->
<svg xmlns="http://www.w3.org/2000/svg" xml:space="preserve" width="158.75mm" height="79.375mm" style="shape-rendering:geometricPrecision; text-rendering:geometricPrecision; image-rendering:optimizeQuality; fill-rule:evenodd; clip-rule:evenodd"
viewBox="0 0 15875 7938"
 xmlns:xlink="http://www.w3.org/1999/xlink">
 <defs>
  <style type="text/css">
   <![CDATA[
    .fil0 {fill:none}
    .fil1 {fill:#003399}
   ]]>
  </style>
 </defs>
 <g id="Warstwa_x0020_1">
  <metadata id="CorelCorpID_0Corel-Layer"/>
  <g id="_316767112">
   <g>
    <path class="fil0" d="M4335 6118c-7,-90 -7,-68 -47,-82 3,-37 60,-125 96,-200 74,-153 71,-123 150,-270 12,-23 27,-43 43,-66 51,-79 -8,-33 68,-104 2,-2 6,-5 8,-7 49,-48 62,-85 77,-141 40,-144 121,-211 152,-269 31,-57 37,-42 75,-127 22,-48 32,-92 57,-146 32,-69 19,-64 61,-141 63,-114 34,-107 174,-247 157,-157 455,-302 667,-360 154,-43 115,-5 328,-92 51,-21 263,-86 316,-88 134,-6 312,-96 482,-141 160,-42 3,27 227,-69l445 -193c27,-12 51,-17 82,-27 72,-24 76,-48 140,-63l340 -80c76,-11 107,-7 180,-23 91,-19 480,-21 595,5 77,17 76,34 131,71 25,16 36,19 59,35 9,7 56,42 61,48 17,18 25,35 48,61 86,91 165,182 183,331l48 372c32,289 -2,207 -2,375 0,233 -13,368 49,574 18,60 13,109 14,190 1,143 -46,120 -99,212 -52,89 -113,117 -234,279 -58,78 -77,102 -163,149l-98 57c-24,12 -9,4 -32,15 -86,40 -87,57 -218,93 -89,24 -188,80 -292,128 -135,62 -73,5 -145,57 -186,133 -64,153 -229,301 -43,38 -19,7 -47,67 85,22 173,-91 212,-135 94,-108 46,-159 235,-126 78,136 62,108 215,168 132,51 181,55 333,24 131,-27 178,-85 238,-150 182,-198 80,-176 134,-259 51,-68 98,-21 184,-35 57,-9 114,-47 160,-71 187,-102 228,-260 257,-461 23,-161 14,-266 -29,-416 -7,-24 -24,-75 -32,-93 -27,-59 -14,-13 -47,-70 -17,-94 118,-110 165,-141 36,-24 80,-80 106,-112 220,-264 312,-506 -11,-716l-135 -91 8 -91c39,-21 66,-27 102,-55 536,-410 270,-860 -93,-919 -78,-13 -207,-9 -289,-6 -115,4 -125,61 -233,45 -26,-26 -29,-36 -59,-64 10,-106 66,-93 24,-231 -16,-54 -60,-157 -90,-189 -94,-97 -337,-102 -490,-69 -222,48 -383,186 -531,323 -116,108 -68,256 -272,124 -7,-105 31,-147 -4,-254 -72,-222 -475,-186 -598,-137 -55,22 -136,61 -190,88 -36,18 -310,275 -337,334 -30,65 2,41 -50,76 -62,17 -111,-13 -158,-49 -14,-79 -4,-128 -48,-190 -163,-228 -413,-223 -657,-97 -45,23 -271,225 -294,280 -9,23 -9,66 -22,81 -77,69 -110,39 -185,-8 -11,-139 -19,-266 -102,-334 -85,7 -198,87 -250,169 -130,202 -37,283 -37,298 -31,91 -32,2 -18,85 9,53 20,9 6,84 -91,5 -80,-31 -124,-89 -27,-36 -89,-63 -124,-93 -48,-41 -179,-173 -276,-124 -172,87 -135,242 -143,292 -10,62 -28,120 -33,187 -7,88 25,118 9,177 -102,103 -345,-87 -450,329 -42,168 -5,180 12,331 32,277 138,222 87,306 -48,79 -358,-26 -312,602 34,454 427,263 456,467 -29,53 -51,47 -74,113 -50,144 13,337 101,405z"/>
    <path class="fil0" d="M3946 3171l5 5c0,0 -6,-3 -5,-5zm4607 -1292l1085 0c54,3 92,7 104,12l126 60c3,2 7,4 10,5l82 42c13,6 58,23 68,26 47,15 55,4 95,14 29,7 33,20 70,39 69,35 96,2 155,48 74,56 22,42 131,87l255 165c2,2 5,6 8,8l27 20c16,10 4,-2 30,16 43,30 65,87 91,112 2,2 6,5 8,7l34 44c2,3 3,8 4,11l19 43c11,28 2,95 12,128 41,61 48,31 62,125 9,56 185,423 214,518 27,90 64,193 67,291 2,55 -4,118 -1,172 8,119 58,185 62,312 2,76 21,124 32,172l0 108c-6,29 -19,61 -39,101l-31 63c-18,29 -31,31 -42,51l-74 190c-16,47 -30,45 -61,79l-142 169c-39,41 -48,81 -64,122 -1,3 -4,7 -5,11 -32,82 -77,160 -100,242 -17,60 8,20 -29,65 -40,49 -19,3 -34,59 -35,126 -21,32 -134,147l-54 55c-2,2 -6,5 -8,7l-108 110c-16,17 -16,16 -24,23l-112 106c-20,17 -28,26 -48,46 -71,71 -129,99 -183,175 -35,49 -56,26 -89,82 -58,98 -48,149 -145,213 -30,-74 -80,-22 -129,-5 -174,61 -112,70 -234,139l-71 38c-42,19 -127,43 -172,46l-250 31c-94,7 -44,31 -358,31 -9,-26 -5,-16 -16,-31l-69 -71c-3,-2 -6,-5 -9,-7 -3,-2 -7,-4 -9,-6l-52 -26c-3,-1 -7,-4 -11,-5l-24 -7c-71,-20 -122,-33 -202,-33 60,-51 136,-151 205,-175 45,26 79,59 137,85 71,33 111,28 181,52 203,70 499,-23 649,-211 96,-120 115,-203 218,-232 426,-121 522,-433 535,-827 9,-251 -76,-256 -64,-405 254,-200 180,-181 304,-345 170,-224 142,-484 -53,-629 -44,-33 -85,-71 -129,-102 33,-53 196,-189 280,-323 188,-297 33,-657 -276,-789 -172,-74 -367,-64 -568,-51 -11,-176 -58,-285 -157,-393 -191,-207 -620,-152 -877,-22 -118,60 -257,200 -336,227 -3,-3 -6,-12 -7,-9 -1,2 -6,-7 -7,-9 -60,-102 -103,-194 -258,-242 -136,-42 -296,-60 -455,-34 -126,21 -270,89 -363,166 -107,88 -210,174 -295,245 -110,-94 -227,-325 -590,-319 -147,3 -240,42 -346,119 -47,34 -77,57 -131,103 -34,28 -91,83 -132,100 -96,-137 -152,-290 -395,-176 -177,83 -240,212 -268,406 -158,-39 -328,-246 -588,-31 -138,114 -102,47 -133,255 -12,78 3,105 -11,174 -11,55 -19,112 -32,174 -133,19 -176,41 -251,122 -54,59 -135,140 -160,214 -15,43 -37,296 -31,343 14,105 65,174 68,327 -222,174 -262,314 -255,639 9,412 253,410 388,513 -28,100 -27,260 -4,374 -36,-19 -38,-38 -53,-51 -2,-2 -6,-5 -8,-7l-88 -67c-2,-2 -6,-5 -8,-7l-149 -131c-30,-30 1,-2 -24,-38 -47,-67 -51,-29 -112,-137 -24,-41 9,-5 -25,-38 -23,-22 -8,-11 -40,-22l0 -125c-33,-12 -16,2 -39,-24 -19,-21 -23,-60 -26,-68l-89 -192c-17,-29 -6,-12 -19,-28 -54,-68 -76,-34 -78,-166l0 -52 0 -14 0 -108c3,-16 10,-33 27,-85l52 -135c5,-12 3,-1 13,-34 28,-100 34,-83 88,-192l66 -136c8,-33 -1,-52 9,-85 13,-44 21,-14 27,-67 27,-233 3,-80 89,-285 27,-63 1,-17 43,-66l32 -46c39,-72 11,-79 66,-137 52,-55 38,-41 74,-113 41,-81 39,-58 39,-148l-93 0c26,-36 115,-97 156,-125l0 47c34,-23 29,-26 58,-51l302 -212 152 -82c55,-26 111,-82 164,-116l145 -135c38,-27 37,-6 51,-42l436 0c31,-84 95,-43 125,-125l125 0c44,-121 216,-75 291,-98 289,-91 534,38 822,-65l162 -56c67,-15 21,-20 80,-29 135,-21 76,2 214,-51 12,-5 -4,-6 35,-12 31,-5 77,4 108,-1 62,-10 17,-19 79,-30 57,-10 157,6 218,0 119,-11 -33,-33 389,-32 187,1 134,-25 281,-30 98,-3 32,-7 85,-24 44,-15 59,-2 100,-9 57,-9 19,-14 67,-27 4,-1 30,-2 73,-3zm-4576 1246l0 16 -18 -13 18 -3zm16 -16l-16 16 16 -16z"/>
    <path class="fil0" d="M6328 6864c-127,-15 -195,-39 -283,-94l-221 -148c-45,98 -133,197 -255,230 -133,35 -228,91 -391,71 -322,-39 -409,-142 -498,-389l-17 -38c-28,58 -16,57 -16,148 -74,6 -33,-9 -66,43 -26,40 -11,34 -58,51l0 249c65,26 7,-12 41,84 1,4 3,7 5,11l26 52c40,57 62,21 185,65 16,6 22,6 36,11 35,13 7,6 43,19 57,20 104,32 143,39l148 0c44,-10 72,-28 106,-31 76,-7 43,10 107,-17l43 -19c103,-47 55,-24 137,-97 2,-2 6,-5 8,-7l93 -94c2,-2 5,-6 7,-9l88 -99 592 -28z"/>
    <path class="fil0" d="M4844 6331c-17,191 -36,212 90,351 91,101 231,124 367,116 107,-7 269,-72 336,-145 176,-193 18,-237 255,-223 84,128 57,132 183,217 87,58 174,88 300,99l-18 -54c-119,-1 -139,-35 -201,-93 -3,-3 -13,-11 -17,-14 -14,-12 -18,-16 -33,-29 -9,-8 -27,-23 -33,-29 -17,-17 -16,-22 -37,-41l-226 -179c-39,-25 -61,-21 -119,-22 -271,-1 -418,175 -667,138l-71 -22 -107 -68z"/>
    <path class="fil0" d="M6826 6807c0,44 -3,7 16,22 110,0 52,11 113,27 51,13 18,-10 89,20 139,58 181,-18 311,-16 18,0 48,2 64,2 71,-4 49,-14 71,-23l51 -11 236 2c139,-3 25,-19 113,-32 -46,-17 -142,5 -198,10 -74,6 -154,-7 -217,-22 -327,-74 -266,-108 -369,-134 -111,88 -116,120 -280,155z"/>
   </g>
   <path class="fil1" d="M8087 6601l-132 83c-69,22 -356,-36 -455,-76 -69,-28 -100,-23 -160,-74 -38,-32 -75,-92 -128,-106 -114,-29 -243,83 -312,149l-50 43c-2,2 -6,5 -8,8 -31,36 -31,108 -222,136 -121,18 -151,32 -222,-5 -2,-1 -7,-4 -9,-5l-15 -10c-125,-11 -212,-41 -300,-99 -127,-84 -99,-89 -183,-217 -236,-14 -79,30 -255,223 -66,73 -229,139 -336,145 -136,8 -276,-15 -367,-116 -125,-138 -107,-160 -90,-351l-354 -16c-2,-3 -4,-13 -5,-10l-151 -187c-88,-68 -151,-261 -101,-405 23,-66 45,-60 74,-113 -29,-204 -422,-13 -456,-467 -46,-628 264,-523 312,-602 51,-84 -55,-28 -87,-306 -18,-151 -54,-163 -12,-331 105,-417 347,-226 450,-329 16,-59 -16,-88 -9,-177 5,-67 23,-126 33,-187 8,-49 -29,-205 143,-292 98,-49 229,83 276,124 35,30 96,57 124,93 44,58 32,94 124,89 13,-75 2,-31 -6,-84 -14,-83 -13,6 18,-85 -1,-15 -93,-96 37,-298 52,-81 165,-161 250,-169 83,68 91,195 102,334 75,47 108,77 185,8 13,-15 13,-58 22,-81 22,-55 249,-257 294,-280 244,-126 494,-131 657,97 44,62 34,111 48,190 46,36 95,66 158,49 53,-36 21,-11 50,-76 27,-59 302,-316 337,-334 53,-27 135,-66 190,-88 124,-49 526,-85 598,137 35,107 -4,149 4,254 204,132 156,-16 272,-124 148,-137 309,-276 531,-323 153,-33 396,-29 490,69 30,31 73,134 90,189 41,138 -14,125 -24,231 30,28 33,38 59,64 108,16 118,-41 233,-45 82,-3 211,-7 289,6 363,59 630,509 93,919 -37,28 -64,34 -102,55l-8 91 135 91c322,209 230,452 11,716 -26,32 -70,88 -106,112 -47,31 -182,47 -165,141 34,57 20,11 47,70 8,18 25,70 32,93 43,149 52,255 29,416 -29,201 -70,359 -257,461 -45,25 -102,62 -160,71 -86,14 -133,-33 -184,35 -54,83 48,61 -134,259 -59,65 -107,123 -238,150 -152,31 -201,28 -333,-24 -154,-60 -138,-32 -215,-168 -189,-33 -141,18 -235,126 -39,44 -126,157 -212,135zm-4023 -612c1,44 36,60 53,77l50 75c29,71 -14,56 82,151 81,80 60,45 101,132 324,0 18,31 327,31 -8,29 -3,22 -16,39l17 38c88,247 175,350 498,389 163,20 258,-35 391,-71 122,-32 210,-131 255,-230l221 148c89,56 156,80 283,94 48,-4 92,-3 140,-3 13,0 52,2 63,0 65,-8 24,-4 57,-21 52,-27 67,-71 238,-33 165,-35 169,-67 280,-155 103,26 41,61 369,134 63,14 143,28 217,22 57,-5 152,-27 198,-10 95,-8 42,-15 117,-49 56,-26 74,-13 96,-75l169 0c60,-51 136,-151 205,-175 45,26 79,59 137,85 71,33 111,28 181,52 203,70 499,-23 649,-211 96,-120 115,-203 218,-232 426,-121 522,-433 535,-827 9,-251 -76,-256 -64,-405 254,-200 180,-181 304,-345 170,-224 142,-484 -53,-629 -44,-33 -85,-71 -129,-102 33,-53 196,-189 280,-323 188,-297 33,-657 -276,-789 -172,-74 -367,-64 -568,-51 -11,-176 -58,-285 -157,-393 -191,-207 -620,-152 -877,-22 -118,60 -257,200 -336,227 -3,-3 -6,-12 -7,-9 -1,2 -6,-7 -7,-9 -60,-102 -103,-194 -258,-242 -136,-42 -296,-60 -455,-34 -126,21 -270,89 -363,166 -107,88 -210,174 -295,245 -110,-94 -227,-325 -590,-319 -147,3 -240,42 -346,119 -47,34 -77,57 -131,103 -34,28 -91,83 -132,100 -96,-137 -152,-290 -395,-176 -177,83 -240,212 -268,406 -158,-39 -328,-246 -588,-31 -138,114 -102,47 -133,255 -12,78 3,105 -11,174 -11,55 -19,112 -32,174 -133,19 -176,41 -251,122 -54,59 -135,140 -160,214 -15,43 -37,296 -31,343 14,105 65,174 68,327 -222,174 -262,314 -255,639 9,412 253,410 388,513 -28,100 -27,260 -4,374z"/>
  </g>
 </g>
</svg>
