<?xml version="1.0" encoding="UTF-8"?>
<!DOCTYPE svg PUBLIC "-//W3C//DTD SVG 1.1//EN" "http://www.w3.org/Graphics/SVG/1.1/DTD/svg11.dtd">
<!-- Creator: CorelDRAW X5 -->
<svg xmlns="http://www.w3.org/2000/svg" xml:space="preserve" width="158.75mm" height="79.375mm" style="shape-rendering:geometricPrecision; text-rendering:geometricPrecision; image-rendering:optimizeQuality; fill-rule:evenodd; clip-rule:evenodd"
viewBox="0 0 15875 7938"
 xmlns:xlink="http://www.w3.org/1999/xlink">
 <defs>
  <style type="text/css">
   <![CDATA[
    .fil0 {fill:#003399}
   ]]>
  </style>
 </defs>
 <g id="Warstwa_x0020_1">
  <metadata id="CorelCorpID_0Corel-Layer"/>
  <path class="fil0" d="M750 1988c-189,-115 -408,-846 -913,-794 -98,10 -133,19 -149,107 30,71 -13,24 83,71 137,67 160,92 257,225 88,120 401,639 468,791 65,150 105,363 168,473 149,18 365,-15 409,-121 20,-47 -13,-110 9,-215 111,-521 78,-671 113,-1205 12,-175 45,-394 -40,-444 -97,-56 -360,-16 -406,75 -12,25 11,896 0,1036z"/>
 </g>
</svg>
