<?xml version="1.0" encoding="UTF-8"?>
<!DOCTYPE svg PUBLIC "-//W3C//DTD SVG 1.1//EN" "http://www.w3.org/Graphics/SVG/1.1/DTD/svg11.dtd">
<!-- Creator: CorelDRAW X5 -->
<svg xmlns="http://www.w3.org/2000/svg" xml:space="preserve" width="158.75mm" height="79.375mm" style="shape-rendering:geometricPrecision; text-rendering:geometricPrecision; image-rendering:optimizeQuality; fill-rule:evenodd; clip-rule:evenodd"
viewBox="0 0 15875 7938"
 xmlns:xlink="http://www.w3.org/1999/xlink">
 <defs>
  <style type="text/css">
   <![CDATA[
    .fil0 {fill:none}
    .fil1 {fill:#003399}
   ]]>
  </style>
 </defs>
 <g id="Warstwa_x0020_1">
  <metadata id="CorelCorpID_0Corel-Layer"/>
  <g id="_447112072">
   <path class="fil0" d="M3673 572c-346,0 -83,118 -425,125 -277,6 -867,-53 -1078,51 -165,81 -206,129 -451,129 9,107 9,57 91,153 178,206 245,343 370,576 136,255 464,441 670,642l119 125c4,5 10,12 14,16 4,5 10,12 14,17 51,58 2,14 74,79 46,41 45,34 83,70 5,4 11,11 15,15l30 31c161,158 347,209 401,270 65,73 48,120 120,185 58,52 133,75 185,120 30,26 204,240 341,264l45 0c44,-9 82,-47 104,-131 31,-120 -7,-138 40,-266 140,-381 282,-466 336,-594l0 -277c-14,-61 -36,-133 -66,-222 -117,-344 85,-627 -1,-1067 -22,-114 -281,-374 -515,-433l-170 0c-26,8 -50,21 -72,40 240,71 131,753 131,1059 0,372 190,837 178,1036 -89,149 -205,214 -432,198 -47,-47 -313,-426 -385,-516 -144,-181 -275,-327 -425,-491 -443,-483 -1072,-636 -871,-849 279,-376 1299,706 1420,793 16,-172 -22,-454 -24,-662 -4,-346 -89,-304 134,-487z"/>
   <path class="fil1" d="M3673 572c-223,183 -137,141 -134,487 2,208 40,491 24,662 -122,-88 -1142,-1170 -1420,-793 -201,213 429,365 871,849 150,164 281,310 425,491 72,90 338,470 385,516 227,16 343,-50 432,-198 11,-200 -178,-664 -178,-1036 0,-306 109,-989 -131,-1059l-273 82z"/>
  </g>
 </g>
</svg>
