<?xml version="1.0" encoding="UTF-8"?>
<!DOCTYPE svg PUBLIC "-//W3C//DTD SVG 1.1//EN" "http://www.w3.org/Graphics/SVG/1.1/DTD/svg11.dtd">
<!-- Creator: CorelDRAW X5 -->
<svg xmlns="http://www.w3.org/2000/svg" xml:space="preserve" width="158.75mm" height="79.375mm" style="shape-rendering:geometricPrecision; text-rendering:geometricPrecision; image-rendering:optimizeQuality; fill-rule:evenodd; clip-rule:evenodd"
viewBox="0 0 15875 7938"
 xmlns:xlink="http://www.w3.org/1999/xlink">
 <defs>
  <style type="text/css">
   <![CDATA[
    .fil0 {fill:#003399}
   ]]>
  </style>
 </defs>
 <g id="Warstwa_x0020_1">
  <metadata id="CorelCorpID_0Corel-Layer"/>
  <path class="fil0" d="M2652 3777c754,-297 804,-469 1306,-1032 415,-466 620,-1089 495,-1727 -29,-150 1,-249 -145,-315 -131,-59 -226,-69 -364,-27 -72,369 161,278 0,1014 -119,544 -283,704 -626,1126 -240,296 -701,663 -1035,717 104,-210 661,-563 598,-1406 -10,-137 -45,-292 -69,-437 -27,-166 -285,-666 -315,-699 -78,-84 -178,-138 -334,-94 0,131 121,309 174,407 78,143 95,258 128,430 104,542 38,906 -275,1327l-515 604c-34,35 -117,114 -142,134 -52,43 -104,63 -159,114 18,144 115,196 268,227 201,41 188,-17 349,-86 126,-54 219,-57 353,-128 92,-49 199,-107 307,-150z"/>
 </g>
</svg>
