<?xml version="1.0" encoding="UTF-8"?>
<!DOCTYPE svg PUBLIC "-//W3C//DTD SVG 1.1//EN" "http://www.w3.org/Graphics/SVG/1.1/DTD/svg11.dtd">
<!-- Creator: CorelDRAW X5 -->
<svg xmlns="http://www.w3.org/2000/svg" xml:space="preserve" width="158.75mm" height="79.375mm" style="shape-rendering:geometricPrecision; text-rendering:geometricPrecision; image-rendering:optimizeQuality; fill-rule:evenodd; clip-rule:evenodd"
viewBox="0 0 15875 7938"
 xmlns:xlink="http://www.w3.org/1999/xlink">
 <defs>
  <style type="text/css">
   <![CDATA[
    .fil0 {fill:#003399}
   ]]>
  </style>
 </defs>
 <g id="Warstwa_x0020_1">
  <metadata id="CorelCorpID_0Corel-Layer"/>
  <path class="fil0" d="M4162 4028c-102,8 -279,77 -225,182 95,82 358,62 502,113 177,62 402,261 529,396 59,63 79,119 123,173 118,143 316,31 389,-70 39,-333 -117,-1293 -491,-1529 -83,-53 -207,-164 -390,-29 -84,62 -51,-11 -55,84 -3,75 80,105 132,142 255,182 415,619 408,876 -40,-21 -81,-63 -123,-91 -53,-35 -77,-51 -124,-82 -169,-110 -493,-180 -674,-165z"/>
 </g>
</svg>
