<?xml version="1.0" encoding="UTF-8"?>
<!DOCTYPE svg PUBLIC "-//W3C//DTD SVG 1.1//EN" "http://www.w3.org/Graphics/SVG/1.1/DTD/svg11.dtd">
<!-- Creator: CorelDRAW X5 -->
<svg xmlns="http://www.w3.org/2000/svg" xml:space="preserve" width="158.75mm" height="79.375mm" style="shape-rendering:geometricPrecision; text-rendering:geometricPrecision; image-rendering:optimizeQuality; fill-rule:evenodd; clip-rule:evenodd"
viewBox="0 0 15875 7938"
 xmlns:xlink="http://www.w3.org/1999/xlink">
 <defs>
  <style type="text/css">
   <![CDATA[
    .fil0 {fill:none}
    .fil1 {fill:#003399}
   ]]>
  </style>
 </defs>
 <g id="Warstwa_x0020_1">
  <metadata id="CorelCorpID_0Corel-Layer"/>
  <g id="_447081712">
   <path class="fil0" d="M4759 912l663 494c148,112 204,139 320,267l415 462c45,67 77,141 111,189 178,252 296,344 396,774 71,304 154,201 238,380 -23,254 -343,435 -619,412 -173,-181 -200,-226 -445,-371 -1094,-644 -2073,-737 -3294,-732 -527,2 -1016,122 -1516,116 11,-492 351,-452 965,-485 1404,-75 1871,-194 3261,217 199,59 346,170 568,204 -47,-121 -16,-56 -91,-169 -26,-39 -66,-95 -89,-127 -295,-424 -737,-752 -1160,-1041 -325,-222 -563,-120 -617,-298 24,-325 218,-206 335,-403 -163,3 -89,-17 -247,92 -38,26 -57,37 -89,57 -382,238 -59,-52 -434,263 -114,96 -54,28 -164,93 -111,65 -15,7 -121,99 -6,5 -14,12 -20,17 -101,82 -366,156 -506,191 -127,32 -230,78 -360,116 -147,42 -667,98 -855,98 -110,411 -700,356 -990,550 0,-112 7,-115 -37,-183l-37 190 0 31c80,25 87,-50 152,287 27,141 73,192 120,320 86,237 45,250 223,436 90,94 51,18 91,129 933,0 511,-33 844,-73 215,-26 364,1 501,47 137,46 193,16 342,24 170,9 628,216 915,222 431,9 95,34 476,74 241,25 84,42 297,69 71,9 91,-1 167,16 137,32 48,60 304,63 87,1 288,6 365,-6 71,-12 190,-74 251,-115 2,-1 108,-74 109,-75 50,-26 78,-30 133,-50 171,-61 132,-49 354,-49 16,186 -13,71 99,157 40,31 19,0 64,46 55,56 28,10 57,90l900 -310c108,-44 139,-53 178,-116 33,-53 16,-43 38,-109 28,-86 47,-153 57,-212l0 -205c-13,-65 -36,-134 -69,-228l-144 -589c-47,-278 57,-119 -129,-385 -4,-6 -10,-16 -15,-22 -4,-7 -10,-16 -14,-22l-363 -407c-45,-43 -36,-29 -74,-73 -84,-97 -26,16 -72,-111 -202,0 -347,-22 -510,40 -8,3 -17,8 -26,11 -129,52 -227,107 -337,91 -123,-18 -39,-9 -83,-27l-163 -96c-67,-65 -52,-99 -131,-199 -5,-6 -12,-14 -17,-20 -5,-6 -13,-13 -18,-19 -85,-95 -70,-41 -109,-148 -143,12 -160,37 -351,37z"/>
   <path class="fil1" d="M4759 912l-46 -37c-64,-47 30,10 -68,-50 -52,-31 -84,-44 -131,-53l-238 -1c-91,20 -32,-1 -75,30 -118,197 -311,78 -335,403 53,178 291,76 617,298 423,289 864,617 1160,1041 22,32 63,88 89,127 75,113 44,48 91,169 -222,-35 -369,-146 -568,-204 -1390,-411 -1857,-292 -3261,-217 -614,33 -955,-8 -965,485 500,6 989,-113 1516,-116 1221,-6 2200,87 3294,732 245,144 272,189 445,371 276,23 596,-158 619,-412 -84,-179 -166,-75 -238,-380 -101,-430 -218,-522 -396,-774 -34,-48 -66,-122 -111,-189l-415 -462c-116,-128 -171,-155 -320,-267l-663 -494z"/>
  </g>
 </g>
</svg>
