<?xml version="1.0" encoding="UTF-8"?>
<!DOCTYPE svg PUBLIC "-//W3C//DTD SVG 1.1//EN" "http://www.w3.org/Graphics/SVG/1.1/DTD/svg11.dtd">
<!-- Creator: CorelDRAW X5 -->
<svg xmlns="http://www.w3.org/2000/svg" xml:space="preserve" width="158.75mm" height="79.375mm" style="shape-rendering:geometricPrecision; text-rendering:geometricPrecision; image-rendering:optimizeQuality; fill-rule:evenodd; clip-rule:evenodd"
viewBox="0 0 15875 7938"
 xmlns:xlink="http://www.w3.org/1999/xlink">
 <defs>
  <style type="text/css">
   <![CDATA[
    .fil0 {fill:none}
    .fil1 {fill:#003399}
   ]]>
  </style>
 </defs>
 <g id="Warstwa_x0020_1">
  <metadata id="CorelCorpID_0Corel-Layer"/>
  <g id="_314067288">
   <path class="fil0" d="M2571 3712c344,0 459,-50 725,-177 231,-111 422,-177 638,-296 242,-133 315,-323 670,-250 114,23 247,82 199,240 -21,70 -35,56 -82,89 -305,220 -1169,634 -1482,696 -246,48 -1206,43 -1395,-127 -18,-17 -46,-54 -51,-61 -51,-83 -14,56 -45,-108 81,-148 106,-113 244,-166 104,-40 174,-105 263,-156 520,-303 505,-133 977,-718 77,-96 243,-509 296,-552 36,-28 522,-121 313,315 -113,235 -162,357 -303,545 -241,321 -390,430 -708,565 -128,54 -172,97 -258,162zm2800 63l0 66c-15,65 -75,123 -150,179 -298,222 -88,191 -273,207 -6,255 -141,92 -141,536 -340,0 -784,125 -907,138l-844 116 -324 0c-210,-4 -427,-20 -579,-85 -97,-41 -120,-48 -229,-82 -84,-26 -59,-27 -112,-57 -5,-3 -12,-8 -18,-11 -6,-3 -13,-7 -19,-10l-58 -26c-33,-17 -170,-105 -188,-122 -14,-13 -62,-75 -75,-95 -104,-164 0,-45 -145,-194 -72,-75 -146,-167 -146,-278 0,-256 8,-529 103,-744 53,-120 -10,-54 107,-119 54,-30 82,-39 122,-76 124,-114 35,-177 205,-191 8,-97 123,-261 179,-329l58 -55c5,-4 11,-9 16,-12l328 -321c126,-145 126,-206 291,-358 188,-172 115,-283 313,-336 -66,-90 -47,-23 -113,-113 148,34 78,67 227,84 127,14 165,5 281,30 150,32 172,85 410,211 238,127 129,41 294,186 290,256 461,292 557,375 34,29 42,37 76,65l167 144c357,344 307,346 302,629 -3,192 24,257 152,469 41,68 48,51 81,89 28,32 44,62 50,91z"/>
   <path class="fil1" d="M2571 3712c86,-65 130,-107 258,-162 317,-135 467,-244 708,-565 141,-188 190,-310 303,-545 209,-436 -277,-343 -313,-315 -54,43 -219,456 -296,552 -472,585 -457,415 -977,718 -89,52 -158,117 -263,156 -138,53 -162,17 -244,166 31,164 -7,25 45,108 5,8 33,45 51,61 189,170 1149,176 1395,127 313,-62 1177,-476 1482,-696 47,-34 61,-20 82,-89 48,-157 -85,-216 -199,-240 -354,-73 -428,117 -670,250 -216,119 -406,185 -638,296 -265,127 -380,177 -725,177z"/>
  </g>
 </g>
</svg>
