<?xml version="1.0" encoding="UTF-8"?>
<!DOCTYPE svg PUBLIC "-//W3C//DTD SVG 1.1//EN" "http://www.w3.org/Graphics/SVG/1.1/DTD/svg11.dtd">
<!-- Creator: CorelDRAW X5 -->
<svg xmlns="http://www.w3.org/2000/svg" xml:space="preserve" width="158.75mm" height="79.375mm" style="shape-rendering:geometricPrecision; text-rendering:geometricPrecision; image-rendering:optimizeQuality; fill-rule:evenodd; clip-rule:evenodd"
viewBox="0 0 15875 7938"
 xmlns:xlink="http://www.w3.org/1999/xlink">
 <defs>
  <style type="text/css">
   <![CDATA[
    .fil0 {fill:none}
    .fil1 {fill:#003399}
   ]]>
  </style>
 </defs>
 <g id="Warstwa_x0020_1">
  <metadata id="CorelCorpID_0Corel-Layer"/>
  <g id="_314066088">
   <path class="fil0" d="M8670 5085c0,153 23,136 -75,201 0,-134 -23,-141 -25,-251 74,20 41,10 101,50zm-3377 -4927l281 0c8,1 17,3 25,5 69,14 38,13 56,19l155 46c247,72 565,56 791,165 169,81 387,122 571,183l376 102 93 82c4,4 9,9 12,13 58,65 52,122 128,173 143,96 243,210 336,217l0 352c56,22 53,105 113,164 189,186 123,212 189,238l0 302 218 259c57,86 144,119 205,197 63,80 104,205 125,304 1,7 3,14 4,20l0 102c-11,56 -40,90 -49,150 -11,80 8,127 -13,213 -86,346 -110,267 -132,346 -22,80 4,105 -28,199 -162,484 -80,496 -80,1076l151 151c0,162 23,369 -17,510 -36,126 -71,241 -164,338 -197,207 -124,249 -389,365 -45,20 -9,0 -49,27 -6,4 -21,19 -27,24 -54,39 -6,32 -85,43 -159,22 -200,-111 -204,-118 -54,-83 -55,-67 -154,-123 -62,-35 -43,-25 -84,-92 -38,-62 -63,-85 -118,-133 -26,-23 -50,-43 -65,-60 -48,-54 -16,-10 -51,-75 -44,-82 -60,-174 -90,-262l-85 -242c-60,-163 -119,-337 -63,-515 0,0 41,-84 41,-84 8,-15 17,-35 25,-51 2,-5 5,-12 8,-18 53,-116 94,-116 180,-348 23,-62 58,-124 82,-169 59,-113 75,-302 34,-429 -2,-6 -5,-12 -7,-18 -2,-6 -5,-12 -7,-18 -2,-6 -4,-13 -7,-19l-47 -104c-87,-135 -117,-287 -223,-405l-77 -74c-45,-52 3,-21 -68,-83 -105,-92 -178,-206 -270,-308 -27,-30 -51,-35 -69,-82 -16,-43 -11,-94 -11,-140 -124,-3 -141,-38 -151,-151 -391,0 -86,-157 -502,-152 -218,3 -436,1 -654,1 -299,0 -648,23 -786,-43l-103 -48c-99,-27 -212,3 -315,-12 -121,-18 -87,-48 -279,-49 -110,0 -193,15 -289,40l-283 44c-114,34 -186,6 -306,21 -117,15 -108,42 -279,47 -175,6 -118,41 -277,50 -254,15 -94,23 -244,83 -126,50 -167,-35 -208,119 -144,0 -220,31 -347,55 -82,15 -77,23 -159,42 -103,23 -173,70 -275,102l-228 74c-3,1 -62,29 -68,32 -49,28 -56,38 -103,73 -16,12 -39,29 -56,45l-210 192c-5,6 -42,53 -44,57 -63,101 -158,155 -235,242l-197 205c-44,50 38,7 -38,37l0 352c166,14 101,172 101,402 69,6 55,2 101,25 0,88 -10,111 18,183 37,94 97,75 206,246 32,51 76,116 127,150 6,4 26,14 33,17 123,67 214,186 335,243l168 109c59,36 -9,4 72,28 99,30 125,77 241,110l88 37c7,4 25,15 32,19 22,12 27,13 51,24l114 62c39,34 56,54 73,103 197,0 602,38 762,-17 123,-42 112,-81 292,-85 125,-3 256,6 380,3 211,-5 101,-67 279,-98 90,-15 272,-5 372,-5l1533 0c531,0 289,37 486,92 64,18 79,4 149,26 66,21 -43,2 73,27 30,6 62,6 94,7 57,1 120,-2 178,-2 52,0 152,-5 200,1 93,13 60,16 78,23 140,48 181,70 287,166 66,60 82,160 215,162l0 201c-85,0 -134,8 -193,58 -4,4 -38,35 -39,36 -159,134 -154,161 -355,223 -14,4 -43,15 -56,20 -543,177 -1277,26 -1871,64 -121,8 -101,19 -195,56 -7,3 -28,12 -36,15l-35 15c-73,24 37,17 -133,18 -275,1 -250,46 -402,50 -98,3 -235,-12 -328,-1 -129,15 -36,18 -134,42 -171,42 -576,8 -766,8 166,-84 1893,-295 2206,-298 408,-4 816,-17 1233,-23 154,-2 445,-11 565,-66 246,-111 322,-158 283,-334 -160,-70 -520,-1 -722,4 -129,4 -282,-1 -403,5 -129,7 -244,36 -376,35 -1595,-6 -1642,232 -2871,340 -490,43 -971,153 -1493,94 -254,-29 -813,-43 -878,-319 -36,-153 -134,-966 -136,-1073 -12,-647 -81,-1223 -39,-1852 9,-134 45,-212 62,-335 61,-437 54,-785 683,-946 336,-86 665,-125 1002,-203 109,-25 207,-62 322,-83 441,-81 959,-130 1421,-186 543,-66 3267,-508 3574,-452 215,39 262,253 343,458 218,549 206,1512 284,2131 31,250 46,479 67,740 20,241 50,498 62,734 30,554 -143,831 117,758 63,-18 271,-135 317,-212 83,-138 -59,-1807 -84,-1997 -111,-849 -61,-1749 -361,-2481 -183,-446 -421,-441 -961,-392 -417,38 -874,72 -1288,141 -601,100 -1935,301 -2508,355 -694,65 -1718,270 -2401,438 -665,163 -983,405 -1079,1036 -135,884 -64,1738 51,2613 25,188 96,438 98,616 7,499 89,740 592,806 463,61 854,90 1332,53 -42,49 -187,78 -279,143l-174 153c-67,49 -128,83 -173,154l-18 33c-77,119 -312,93 -362,216l-503 0c-4,-180 20,-42 -92,-134 -83,-68 -88,-183 -176,-252 -4,-3 -11,-7 -15,-10 -42,-34 -40,-35 -84,-192 -39,-138 -108,-232 -139,-364 -21,-90 -14,-63 -57,-144l-73 -179c-2,-5 -6,-12 -8,-17l-69 -182c-96,-282 -30,-1141 -39,-1520 -3,-143 9,-75 -45,-156 -59,-88 -72,-211 -110,-317 -17,-48 -9,-32 -31,-69 -54,-89 -51,-121 -79,-222 -18,-64 -52,-95 -68,-133 -36,-84 -12,-101 -27,-199l-86 -316c-8,-34 -8,-51 -16,-84 -17,-68 -1,4 -24,-76 -7,-26 -13,-54 -18,-84l0 -728c14,-41 77,-45 117,-160l32 -93c51,-141 88,-117 135,-242 45,-120 99,-226 185,-318l81 -120c9,-15 22,-38 28,-48 154,-253 350,-151 531,-248 138,-74 8,-81 299,-78 359,4 795,38 1125,-31l651 -103c217,-77 289,-60 464,-114l433 -145c54,-17 111,-35 155,-46 229,-59 535,-91 749,-206 87,-47 128,-44 228,-74 177,-51 435,-15 644,-35l272 -55c56,-10 119,-32 197,-45z"/>
   <path class="fil1" d="M1733 7001c82,-7 177,3 251,-6 147,-17 38,-46 225,-51 85,-3 197,10 279,3 197,-17 1,-51 230,-51 166,-84 1893,-295 2206,-298 408,-4 816,-17 1233,-23 154,-2 445,-11 565,-66 246,-111 322,-158 283,-334 -160,-70 -520,-1 -722,4 -129,4 -282,-1 -403,5 -129,7 -244,36 -376,35 -1595,-6 -1642,232 -2871,340 -490,43 -971,153 -1493,94 -254,-29 -813,-43 -878,-319 -36,-153 -134,-966 -136,-1073 -12,-647 -81,-1223 -39,-1852 9,-134 45,-212 62,-335 61,-437 54,-785 683,-946 336,-86 665,-125 1002,-203 109,-25 207,-62 322,-83 441,-81 959,-130 1421,-186 543,-66 3267,-508 3574,-452 215,39 262,253 343,458 218,549 206,1512 284,2131 31,250 46,479 67,740 20,241 50,498 62,734 30,554 -143,831 117,758 63,-18 271,-135 317,-212 83,-138 -59,-1807 -84,-1997 -111,-849 -61,-1749 -361,-2481 -183,-446 -421,-441 -961,-392 -417,38 -874,72 -1288,141 -601,100 -1935,301 -2508,355 -694,65 -1718,270 -2401,438 -665,163 -983,405 -1079,1036 -135,884 -64,1738 51,2613 25,188 96,438 98,616 7,499 89,740 592,806 463,61 854,90 1332,53z"/>
  </g>
 </g>
</svg>
