<?xml version="1.0" encoding="UTF-8"?>
<!DOCTYPE svg PUBLIC "-//W3C//DTD SVG 1.1//EN" "http://www.w3.org/Graphics/SVG/1.1/DTD/svg11.dtd">
<!-- Creator: CorelDRAW X5 -->
<svg xmlns="http://www.w3.org/2000/svg" xml:space="preserve" width="158.75mm" height="79.375mm" style="shape-rendering:geometricPrecision; text-rendering:geometricPrecision; image-rendering:optimizeQuality; fill-rule:evenodd; clip-rule:evenodd"
viewBox="0 0 15875 7938"
 xmlns:xlink="http://www.w3.org/1999/xlink">
 <defs>
  <style type="text/css">
   <![CDATA[
    .fil0 {fill:none}
    .fil1 {fill:#003399}
   ]]>
  </style>
 </defs>
 <g id="Warstwa_x0020_1">
  <metadata id="CorelCorpID_0Corel-Layer"/>
  <g id="_312892888">
   <path class="fil0" d="M11595 5191c69,16 145,33 229,33l0 33c-122,44 -84,77 -164,98l-66 -164zm-59 -3868l174 0c4,0 154,67 190,121 11,17 12,18 20,29 35,49 29,4 35,79 98,0 61,-13 97,35l115 131c15,22 18,58 18,97 120,10 54,171 65,361 9,154 132,146 132,294 113,9 33,28 86,110 20,31 65,60 93,88 83,82 24,5 60,120 20,63 149,351 175,382 142,169 38,117 88,272l144 594c30,99 9,242 9,351 0,215 33,261 33,328 0,311 -18,180 -32,296 -7,59 -37,190 -79,265 -24,43 -88,86 -131,115l-68 47c-59,36 -126,36 -170,76 -56,52 -132,110 -208,136 -196,67 74,64 -395,64 -15,-41 -6,-14 -17,-32l-14 -19c-18,-23 -17,-22 -41,-41 -61,-51 -62,-45 -114,-115 -35,-47 -76,-70 -110,-120l-131 0c-9,110 -49,20 -166,146l-97 100c-54,65 -60,119 -148,147 -255,80 -174,100 -491,99 -91,0 -129,34 -163,34l-1868 0c-68,0 -105,-33 -197,-33 -92,1 -128,-33 -197,-33l-836 0c-97,0 -119,27 -213,32 -103,6 -124,23 -198,31 -172,20 -393,-1 -573,1 -19,0 -44,0 -62,3 -106,19 -25,33 -248,30 -25,0 -92,-3 -113,2 -71,14 -124,97 -247,97l-313 0c-123,-7 -126,-43 -330,-193 -26,-19 -2,-4 -28,-21 -57,-37 -93,-31 -99,-114 -70,-6 -54,-10 -80,-67l-10 -23c-45,-96 -130,-117 -184,-193 -41,-58 -79,-156 -152,-176 0,-58 1,-93 -18,-146l-9 -24c-5,-14 -8,-23 -13,-36 -1,-4 -3,-8 -5,-12l-46 -134c-7,-28 -3,-18 -7,-42 -16,-109 14,-22 -37,-94 -42,-58 -16,7 -30,-85 -15,-97 -64,-115 -64,-214l98 0c-17,-62 -9,-31 -47,-68 -76,-75 -84,-105 -84,-202l0 -51 0 -7c227,-61 0,-206 0,-279l0 -623c0,-41 27,-55 50,-114 1,-4 4,-8 5,-12 1,-4 3,-8 4,-12l27 -170c17,-58 4,-64 14,-117 14,-77 28,-33 54,-94l7 -25c1,-4 1,-9 3,-14 17,-56 42,-67 85,-112l97 -99c11,-11 21,-18 35,-31l56 -59c47,-48 31,-29 64,-83l66 -81c2,-2 6,-6 8,-8 41,-38 84,-74 110,-119 34,-58 57,-106 134,-112 6,-76 13,-45 49,-98 129,0 272,11 375,-18 77,-22 97,-6 182,-15 84,-9 131,-45 217,-61l329 -64c88,-21 584,-10 668,-7 142,6 20,29 162,35 192,8 176,-13 333,44 35,13 -8,14 78,21 25,2 72,0 99,-1 310,-5 47,66 524,66 47,0 35,-14 96,-35 109,-36 177,-22 305,-56 74,-19 160,1 238,-8l358 -84c11,-3 4,-5 38,-11 54,-9 182,-2 244,-2 179,0 291,7 456,-36 118,-30 179,-29 209,-37 4,-1 8,-3 12,-4 150,-49 544,-22 700,-21 147,1 142,-16 255,-56 92,-33 102,-62 171,-74 35,-6 18,5 56,-10 30,-12 34,-26 67,-48 82,-53 144,-69 211,-74zm-6332 2360l66 0c0,-343 12,-171 142,-431l72 -157c33,-52 42,-26 48,-100 83,0 92,16 98,-66 60,-5 61,-5 66,-66 73,-6 97,-17 98,-98 80,0 144,2 214,-48 67,-48 11,-42 113,-51 78,-7 69,-4 118,-30l156 -57c3,-2 7,-4 11,-6 61,-31 -39,19 21,-12 3,-2 7,-4 11,-6 123,-60 275,20 417,-59l62 -37c101,-54 257,-16 371,-23 108,-6 50,-18 111,-53 37,-20 177,-9 274,-38 55,-17 96,-7 156,-8 117,-2 75,-34 130,-34l410 0c72,0 60,33 131,33l1016 0c77,0 186,-32 253,-58 69,-27 129,-30 197,-49 57,-16 -7,-24 58,-24l557 0c56,0 10,8 71,27 120,38 60,31 128,117 32,40 22,72 42,122 17,45 29,38 58,90 2,3 4,7 6,11 62,124 -2,300 35,424 48,165 27,172 123,352 75,141 16,105 74,188 94,134 23,41 94,185 33,66 54,113 58,188 2,45 -2,32 9,73l56 190 0 524c104,2 62,33 164,33 0,273 -39,238 98,442 -164,0 -998,-155 -1175,-185 -253,-42 -934,-171 -1185,-192 0,50 5,104 -23,141 -3,4 -13,13 -16,16l-113 100 -132 48c-80,28 -141,9 -218,28 -52,12 -10,13 -74,24 -42,7 -59,0 -104,11 -51,13 -22,15 -75,23 -105,16 -221,1 -327,2l-166 -30c-4,-1 -8,-3 -12,-4 -4,-1 -8,-3 -12,-4l-24 -9c-97,-34 -207,-34 -304,-56 -54,-13 -11,-14 -74,-24 -37,-6 -72,1 -110,-5 -63,-10 -19,-12 -74,-24l-152 -28c-4,-1 -8,-3 -12,-4 -4,-1 -9,-2 -13,-4l-62 -20c-68,-23 -139,-10 -196,-50 -48,-34 -53,-72 -108,-105 -56,-33 -89,-55 -90,-123 -76,-6 -121,-68 -172,-123 -64,-68 -123,-143 -123,-238 -84,-2 -225,-35 -311,-49 -103,-17 -209,-32 -311,-49 -176,-29 -449,-98 -623,-98l0 -459zm7004 1393c-35,79 -128,132 -216,113 -100,-21 -82,-144 -71,-242 42,-399 82,-1662 22,-1975 -67,-349 -163,-748 -333,-1027 -99,-162 -341,-148 -539,-142 -248,7 -975,78 -1253,106 -455,45 -766,95 -1221,109 -308,9 -652,97 -892,118 -104,9 -221,10 -320,27 -198,34 -413,63 -605,84 -101,11 -196,30 -301,43 -107,13 -207,13 -316,29 -202,29 -385,66 -588,101 -180,31 -384,39 -450,217 -190,510 -313,1217 -272,1766 20,273 -44,690 73,906 55,103 90,124 229,111 117,-10 201,22 324,26 100,3 200,-5 301,-23 178,-34 1803,-54 1997,-49 653,15 1298,-93 1934,-118 203,-8 465,-8 657,-27 206,-21 426,-11 627,-30 365,-35 330,106 262,148 -201,122 -495,39 -782,71 -214,23 -417,2 -634,19 -424,32 -850,44 -1266,99 -399,53 -905,15 -1322,29 -455,16 -912,5 -1361,26 -204,10 -737,76 -924,-29 -89,-50 -156,-78 -200,-145 -178,-268 -141,-855 -143,-1223 -2,-449 111,-1390 313,-1743 62,-109 376,-159 510,-181l571 -99 2419 -302c213,-27 426,-24 645,-45 412,-41 829,-95 1247,-128 337,-26 939,-129 1258,-19 214,74 253,142 345,345 115,255 253,766 292,1068 45,350 -19,1538 -17,1989z"/>
   <path class="fil1" d="M12208 5076c-2,-450 62,-1638 17,-1989 -39,-302 -177,-813 -292,-1068 -92,-203 -131,-271 -345,-345 -320,-110 -921,-8 -1258,19 -418,32 -835,87 -1247,128 -218,22 -432,18 -645,45l-2419 302 -571 99c-134,22 -448,72 -510,181 -202,353 -315,1294 -313,1743 2,367 -35,954 143,1223 44,67 111,95 200,145 188,105 720,38 924,29 449,-21 906,-10 1361,-26 417,-15 923,23 1322,-29 417,-55 843,-67 1266,-99 217,-16 420,5 634,-19 287,-31 581,51 782,-71 68,-42 103,-183 -262,-148 -201,19 -422,10 -627,30 -191,19 -454,19 -657,27 -636,25 -1281,133 -1934,118 -194,-4 -1819,16 -1997,49 -100,19 -201,27 -301,23 -123,-4 -208,-37 -324,-26 -139,12 -174,-8 -229,-111 -116,-216 -52,-633 -73,-906 -40,-549 82,-1256 272,-1766 66,-178 271,-186 450,-217 203,-35 386,-72 588,-101 108,-15 208,-16 316,-29 105,-13 200,-32 301,-43 192,-21 408,-50 605,-84 99,-17 216,-18 320,-27 240,-21 584,-109 892,-118 455,-14 766,-64 1221,-109 278,-28 1005,-99 1253,-106 198,-6 441,-20 539,142 170,279 266,678 333,1027 60,313 20,1576 -22,1975 -10,98 -29,221 71,242 88,18 181,-35 216,-113z"/>
  </g>
 </g>
</svg>
