<?xml version="1.0" encoding="UTF-8"?>
<!DOCTYPE svg PUBLIC "-//W3C//DTD SVG 1.1//EN" "http://www.w3.org/Graphics/SVG/1.1/DTD/svg11.dtd">
<!-- Creator: CorelDRAW X5 -->
<svg xmlns="http://www.w3.org/2000/svg" xml:space="preserve" width="158.75mm" height="79.375mm" style="shape-rendering:geometricPrecision; text-rendering:geometricPrecision; image-rendering:optimizeQuality; fill-rule:evenodd; clip-rule:evenodd"
viewBox="0 0 15875 7938"
 xmlns:xlink="http://www.w3.org/1999/xlink">
 <defs>
  <style type="text/css">
   <![CDATA[
    .fil0 {fill:none}
    .fil1 {fill:#003399}
   ]]>
  </style>
 </defs>
 <g id="Warstwa_x0020_1">
  <metadata id="CorelCorpID_0Corel-Layer"/>
  <g id="_447083056">
   <path class="fil0" d="M10424 1361c418,-37 1258,-57 1678,-10 522,59 846,252 1061,640 222,400 203,942 266,1431 50,387 218,1166 152,1527 -42,230 -184,373 -392,473 -140,67 -491,154 -650,188 -500,106 -1007,120 -1500,200 -561,91 -872,105 -1469,229 -492,102 -1035,125 -1563,139 -525,14 -1114,65 -1633,88 -178,8 -1410,77 -1533,-129 -96,-160 98,-209 208,-208 236,1 124,149 1125,92 685,-39 2729,-68 3220,-181 795,-184 1426,-230 2218,-342 333,-47 1110,-124 1395,-303 172,-108 196,-387 180,-654 -29,-470 -163,-1159 -173,-1544 -12,-461 -166,-1031 -448,-1250 -458,-355 -2456,-109 -3103,-68 -279,17 -555,9 -833,23 -785,41 -1595,112 -2389,150 -144,7 -232,42 -382,56 -1110,104 -740,363 -760,845l-59 1209c-4,137 -47,232 -77,357 -71,298 -70,606 -322,960 -90,126 -354,333 -518,337 -103,2 -272,-32 -198,-169 18,-33 176,-133 232,-189 362,-357 339,-705 429,-1268 40,-251 57,-518 76,-747 25,-286 52,-479 43,-777 -8,-259 -4,-238 65,-388 74,-159 42,-132 197,-224 209,-123 373,-163 657,-181 268,-16 506,-63 795,-74 252,-9 522,-33 785,-52 867,-62 1598,-75 2437,-122 252,-14 529,-42 783,-65zm-283 -329l117 0c14,1 27,3 39,6 118,25 226,76 336,83 129,9 908,17 1012,-5 83,-18 11,-4 49,-18 161,-58 359,-22 531,-23 100,-1 104,-6 175,24 5,2 11,5 15,7l28 16c4,3 9,6 13,10 32,31 26,-7 33,78 152,0 114,-5 177,88 44,0 110,-4 152,3 101,17 -11,-5 68,21 74,24 97,24 140,80 43,55 -32,-16 40,49l209 255c27,27 14,9 39,28 68,52 50,-18 60,95 37,1 25,-3 58,8l30 14c5,3 38,38 43,45 29,34 51,61 91,86 151,95 82,95 183,192 58,57 112,101 157,174 42,69 144,131 144,209l0 618c0,106 -84,225 -118,324 -28,82 -5,119 -18,203l-43 155c-29,123 -46,75 -74,147 -21,52 -12,127 -11,187 3,202 -48,185 -80,339 -55,259 35,695 -40,975 -2,6 -3,12 -4,18 -37,145 -27,65 -90,174 -46,79 -136,139 -138,237 -92,2 -104,24 -163,58l-221 88c-264,104 -403,-38 -765,-14 -57,4 -88,20 -139,37l-134 42c-157,39 -817,10 -1005,10 -513,0 -249,8 -489,41 -52,7 -91,-1 -145,9 -67,13 -47,29 -139,38 -341,32 -110,-38 -488,86l-115 39c-6,2 -11,3 -17,5 -102,31 -128,39 -240,46 -139,9 -116,62 -242,89l-392 94c-292,54 -262,38 -568,116 -161,41 -351,-16 -516,13 -94,17 -24,22 -117,38 -59,10 -105,-3 -166,11 -82,19 -7,21 -140,36l-125 29c-64,21 -98,11 -162,15 -158,8 -40,36 -261,92 -110,28 -31,19 -114,63 -80,42 -212,12 -308,23 -79,9 -139,39 -209,44l-38 0c-22,-2 -45,-6 -70,-14 -5,-2 -11,-5 -16,-6l-267 -109c-82,-26 -131,-91 -217,-136l-59 -29c-5,-2 -10,-5 -15,-7 -105,-53 -243,-103 -354,-131 -141,-36 -107,-32 -220,-111 -65,-46 -121,-64 -179,-130 -3,-3 -7,-9 -10,-12 -48,-53 -12,-42 -91,-63l0 -353c56,-20 70,-34 84,-93 35,-153 12,-97 153,-156 58,-24 95,-44 117,-104 96,0 191,1 287,0 367,-3 144,91 485,89 327,-2 131,13 323,-75 5,-2 11,-4 16,-6 82,-32 42,1 109,-46 165,-116 366,-102 561,-145 94,-21 9,-37 96,-37l927 0c77,0 34,44 110,44l419 0c95,0 67,-34 177,-44 77,-7 110,9 185,-13 135,-40 299,-18 382,-60l102 -52c6,-2 11,-3 18,-4 147,-28 172,5 396,-67l108 -24c152,-15 176,-82 330,-90 261,-13 533,1 795,1 67,0 133,1 200,2 70,1 128,15 153,-46l662 0c7,-81 7,-82 88,-88 9,-106 36,-74 86,-157 3,-4 32,-69 34,-76l184 -633c33,-163 5,-504 5,-679 -99,-8 -58,-11 -102,-75l-67 -88c-3,-5 -21,-43 -22,-44 -30,-71 -22,-6 -30,-102 -112,-9 -50,0 -102,-75 -3,-4 -6,-10 -8,-14l-53 -57c-167,-192 -130,-368 -152,-444 -32,-115 -82,-9 -82,-204 -114,-9 -51,-7 -103,-73 -72,-92 -27,-26 -100,-76l-49 -40c-69,-51 -92,-14 -101,-120 -92,-8 -125,-41 -132,-132 -109,0 -88,-5 -164,-56 -103,-70 -445,-34 -587,-33 -156,1 -119,27 -222,43 -226,34 -818,5 -1079,2 -102,-1 -168,17 -250,37 -164,40 -371,-24 -526,26 -553,177 -841,25 -966,25 -131,0 -130,-10 -222,-43 -65,97 -45,69 -143,100 -5,2 -11,4 -16,6 -5,2 -11,4 -16,6 -5,2 -11,4 -16,6l-54 12c-148,26 -112,70 -261,92 -146,22 -45,22 -129,70 -51,30 -7,5 -66,22 -193,57 -402,9 -571,69 -17,6 -48,15 -66,23l-44 22c-55,37 -170,217 -211,274 -3,4 -6,10 -9,13l-132 111c-51,49 0,-14 -44,45 -26,35 -13,13 -30,58 -28,71 -46,76 -46,130 0,38 44,36 44,353 106,38 -18,6 88,44l0 839c-103,42 -6,-11 -44,66 -38,77 59,24 -44,66l0 353c-55,20 -71,34 -85,92 -7,28 -3,46 -10,78l-27 83c-39,149 -22,128 -115,260l-136 151c-3,4 -6,9 -9,13 -3,4 -6,10 -9,13 -38,58 -50,97 -139,104 -2,107 -125,201 -195,246l-129 91c-65,52 -274,132 -368,162 -48,15 -107,43 -186,27 -101,-20 -174,-35 -182,-129l-88 0c-4,-173 -88,-95 -88,-199l0 -375 221 0c-56,-39 -101,-60 -177,-66 49,-47 16,-6 42,-69l55 -166c16,-31 18,-36 66,-66l29 -15c74,-39 64,-36 119,-101 33,-39 15,-40 86,-46l0 -88 88 0c11,-135 8,-60 43,-134 23,-49 38,-68 89,-87 0,-380 86,-203 90,-417 2,-84 -13,-179 9,-256 28,-99 41,-114 122,-121 0,-79 5,-136 38,-205 65,-136 100,-255 97,-414 -3,-147 -171,-456 87,-814 52,-72 40,-102 131,-112 3,-145 19,-58 65,-134 3,-4 6,-9 8,-14 31,-66 15,-128 58,-184l53 -79c39,-76 69,-124 156,-153 6,-2 12,-3 17,-5 202,-62 236,-174 504,-181 159,-4 103,-45 176,-45l971 0 334 86c100,15 221,-16 319,12 158,45 297,34 473,35 296,1 216,-34 352,-45 88,-7 122,13 207,-14l146 -53c15,-5 -9,-5 50,-17 40,-8 -5,-1 39,-5 138,-11 283,20 420,1 101,-14 65,-32 143,-77 119,-70 245,-99 355,-131 159,-46 363,27 524,-28l31 -13c5,-2 11,-5 16,-6 14,-4 32,-7 50,-9z"/>
   <path class="fil1" d="M10424 1361c-254,23 -531,51 -783,65 -839,48 -1570,60 -2437,122 -262,19 -533,43 -785,52 -288,11 -527,57 -795,74 -284,17 -448,57 -657,181 -156,92 -124,65 -197,224 -69,150 -73,129 -65,388 9,298 -19,491 -43,777 -20,229 -36,496 -76,747 -90,562 -67,911 -429,1268 -56,55 -214,155 -232,189 -74,137 95,171 198,169 164,-4 428,-210 518,-337 252,-355 251,-662 322,-960 30,-125 73,-220 77,-357l59 -1209c20,-483 -350,-742 760,-845 150,-14 238,-49 382,-56 794,-38 1604,-109 2389,-150 278,-15 554,-6 833,-23 647,-40 2646,-286 3103,68 282,219 436,788 448,1250 10,385 144,1075 173,1544 16,268 -8,547 -180,654 -285,179 -1062,256 -1395,303 -792,111 -1423,157 -2218,342 -491,114 -2534,142 -3220,181 -1001,57 -889,-91 -1125,-92 -111,0 -305,48 -208,208 124,206 1356,137 1533,129 519,-23 1108,-74 1633,-88 528,-15 1071,-37 1563,-139 597,-124 908,-138 1469,-229 492,-80 1000,-93 1500,-200 159,-34 511,-122 650,-188 208,-100 350,-242 392,-473 66,-361 -102,-1141 -152,-1527 -64,-489 -44,-1031 -266,-1431 -215,-388 -539,-581 -1061,-640 -420,-47 -1260,-27 -1678,10z"/>
  </g>
 </g>
</svg>
