<?xml version="1.0" encoding="UTF-8"?>
<!DOCTYPE svg PUBLIC "-//W3C//DTD SVG 1.1//EN" "http://www.w3.org/Graphics/SVG/1.1/DTD/svg11.dtd">
<!-- Creator: CorelDRAW X5 -->
<svg xmlns="http://www.w3.org/2000/svg" xml:space="preserve" width="158.75mm" height="79.375mm" style="shape-rendering:geometricPrecision; text-rendering:geometricPrecision; image-rendering:optimizeQuality; fill-rule:evenodd; clip-rule:evenodd"
viewBox="0 0 15875 7938"
 xmlns:xlink="http://www.w3.org/1999/xlink">
 <defs>
  <style type="text/css">
   <![CDATA[
    .fil0 {fill:none}
    .fil1 {fill:#696774}
   ]]>
  </style>
 </defs>
 <g id="Warstwa_x0020_1">
  <metadata id="CorelCorpID_0Corel-Layer"/>
  <g id="_587738632">
   <g>
    <path class="fil0" d="M4660 5320c-272,-17 -482,-64 -758,-61 -247,2 -475,52 -724,-42 -41,-104 -28,32 -31,-116 -2,-80 -2,-55 36,-97 149,-165 1081,-611 1270,-796 -119,-805 755,-1392 1371,-1661 312,-136 1297,-423 1699,-440 950,-40 1162,-65 2093,117 762,149 1465,427 2023,917 91,79 114,134 191,212 157,159 179,264 249,494 27,89 40,177 70,277 33,110 75,141 102,272 70,350 16,955 -144,1305 -174,382 -471,646 -778,802 -105,53 -130,94 -232,132l-539 182c-985,404 -3344,245 -4301,-15 -593,-161 -1153,-209 -1516,-608 -337,-370 -192,-602 -82,-872zm-3538 -1323c9,110 173,398 230,508 48,93 69,192 124,280l110 247c3,6 15,24 18,30 80,137 191,402 254,556 34,83 13,32 50,95l41 79c75,175 269,621 361,783 38,66 68,101 75,185 607,108 1226,221 1802,294 269,34 572,24 832,49 1103,104 2397,369 3384,717 668,236 1361,401 2157,542 62,11 71,-20 117,-48 71,-43 39,-23 112,-55l78 -43c4,-3 10,-7 15,-10 208,-129 1322,-684 1587,-816l76 -45c4,-3 11,-7 15,-9 5,-3 11,-6 15,-9l666 -344c174,-85 574,-277 730,-376 65,-41 117,-51 168,-99 -68,-53 -89,-48 -132,-124 -108,-191 -37,-881 -82,-1130 -48,-273 -24,-626 -39,-900 -13,-232 -44,-699 -24,-931 5,-64 136,-324 181,-387 73,31 128,60 207,93 59,25 153,56 219,84 -44,-137 -21,-240 -171,-312 -118,-56 -283,-97 -412,-144l-865 -280c-155,-47 -280,-82 -425,-134 -137,-50 -292,-87 -447,-140 -700,-243 -1010,-292 -1669,-409 -174,-31 -389,-46 -563,-103 -31,-10 -187,-93 -208,-114 -28,-27 -7,-6 -31,-43 -51,-79 -34,-88 -146,-114 -241,-56 -355,-57 -577,-137 -754,-269 -529,-132 -815,-124 -40,1 -80,-8 -130,-33 -145,-71 -187,-155 -379,-139 -83,7 -201,9 -288,22l-1340 182c-425,58 -498,-27 -737,243 -56,63 -1,12 -85,64 -45,28 -61,40 -103,69l-196 121c-4,3 -11,7 -15,10l-227 138c-4,3 -10,7 -15,10l-1680 1024c-4,3 -10,7 -15,10 -4,3 -10,7 -15,10 -6,4 -24,15 -30,19l-197 119c-4,3 -10,7 -15,10l-197 120c-30,18 -26,16 -45,28l-683 412c-160,103 -513,281 -627,399z"/>
    <path class="fil0" d="M5174 5328c-345,855 169,998 964,1177 233,52 450,118 680,175 620,154 1978,150 2632,94 590,-50 1612,-325 2004,-807 268,-329 397,-684 420,-1175 18,-384 -160,-1110 -337,-1362 -74,-106 -83,-119 -174,-201 -147,-132 -293,-218 -460,-325 -358,-229 -1466,-478 -1953,-514 -514,-38 -1354,-8 -1840,113 -167,41 -203,79 -537,156 -243,56 -267,98 -402,136 -269,76 -797,419 -975,642 -684,855 -193,798 -571,1036 -203,127 -834,445 -884,542 125,-35 618,35 796,65 239,40 359,-13 636,248z"/>
   </g>
   <path class="fil1" d="M5174 5328c-278,-261 -397,-207 -636,-248 -177,-30 -670,-100 -796,-65 50,-97 681,-414 884,-542 379,-238 -112,-180 571,-1036 178,-223 705,-566 975,-642 135,-38 159,-80 402,-136 334,-77 369,-115 537,-156 486,-121 1326,-151 1840,-113 486,36 1595,285 1953,514 167,107 313,193 460,325 91,82 100,95 174,201 177,252 355,979 337,1362 -23,490 -153,845 -420,1175 -392,482 -1415,757 -2004,807 -653,55 -2012,60 -2632,-94 -230,-57 -447,-122 -680,-175 -796,-178 -1309,-322 -964,-1177zm-514 -8c-110,271 -255,502 82,872 363,399 923,447 1516,608 957,260 3316,420 4301,15l539 -182c102,-37 127,-78 232,-132 307,-155 604,-419 778,-802 160,-350 214,-955 144,-1305 -26,-131 -69,-162 -102,-272 -30,-100 -43,-188 -70,-277 -69,-229 -91,-335 -249,-494 -78,-78 -101,-133 -191,-212 -559,-490 -1261,-768 -2023,-917 -931,-182 -1142,-157 -2093,-117 -402,17 -1387,304 -1699,440 -616,269 -1490,857 -1371,1661 -189,185 -1121,631 -1270,796 -39,43 -38,17 -36,97 3,148 -10,12 31,116 249,94 477,44 724,42 276,-2 487,45 758,61z"/>
  </g>
 </g>
</svg>
