<?xml version="1.0" encoding="UTF-8"?>
<!DOCTYPE svg PUBLIC "-//W3C//DTD SVG 1.1//EN" "http://www.w3.org/Graphics/SVG/1.1/DTD/svg11.dtd">
<!-- Creator: CorelDRAW X5 -->
<svg xmlns="http://www.w3.org/2000/svg" xml:space="preserve" width="158.75mm" height="79.375mm" style="shape-rendering:geometricPrecision; text-rendering:geometricPrecision; image-rendering:optimizeQuality; fill-rule:evenodd; clip-rule:evenodd"
viewBox="0 0 15875 7938"
 xmlns:xlink="http://www.w3.org/1999/xlink">
 <defs>
  <style type="text/css">
   <![CDATA[
    .str0 {stroke:yellow;stroke-width:20}
    .str1 {stroke:white;stroke-width:20}
    .fil0 {fill:none}
    .fil4 {fill:#333333}
    .fil1 {fill:#33CC33}
    .fil5 {fill:#4D4D4D}
    .fil2 {fill:#FEFEFE}
    .fil3 {fill:yellow}
    .fil6 {fill:white}
   ]]>
  </style>
 </defs>
 <g id="Warstwa_x0020_1">
  <metadata id="CorelCorpID_0Corel-Layer"/>
  <g id="_316815568">
   <g>
    <path class="fil0" d="M7406 8468l0 0zm-1805 -10003l118 0c40,5 83,17 130,36 149,60 21,99 293,199 108,40 43,-28 100,61 -253,126 -377,367 -483,620 -74,-243 -51,-648 -386,-602 -344,47 -291,432 -384,624 -95,-72 -93,-200 -160,-307l-198 -268c-116,-21 -229,-4 -311,41 -18,21 -98,358 -112,407 -154,-47 -152,-217 -471,-182 -272,30 -180,223 -166,436 -220,-17 -207,-15 -398,27 -49,532 20,255 159,564 -100,73 -159,69 -20,358l-49 22c-5,2 -12,4 -16,6 -231,89 -563,318 -200,505l82 41c4,2 12,6 17,9 -6,3 -15,1 -18,9l-356 168c-19,11 -41,25 -54,36 -140,128 135,260 229,323 -30,104 -382,437 -138,571l160 60c59,38 19,2 64,56 -120,68 -274,221 -276,390 129,143 243,156 452,128l-33 42c-2,3 -35,57 -35,58 -17,38 -30,85 -26,126 7,85 79,154 151,179 209,72 344,-77 475,-135 -14,104 -71,219 -60,308 64,547 688,98 717,87 28,100 37,148 121,207 290,45 305,-134 448,-289 38,49 48,95 70,153 106,280 143,291 438,249 76,866 -5,1777 -242,2534 -210,-238 -292,-679 -457,-932 -189,-289 -383,-523 -579,-807 -146,-212 -561,-831 -739,-983 -57,-49 -111,-103 -193,-167 -141,-110 -357,-168 -543,-55 -53,333 247,855 316,1222 29,153 105,319 186,441 65,99 58,105 191,79 40,150 120,709 221,783 157,116 58,-60 197,297 114,291 104,131 285,230 90,161 138,332 224,513 130,275 263,136 373,366 138,287 11,565 -147,803 -73,110 -109,109 -56,245 222,57 292,-200 382,-386 89,-184 181,-377 255,-577 82,-223 354,-995 420,-1229 212,25 353,-22 535,-95 142,-57 346,-100 467,-184 145,-100 209,-247 366,-280 93,-20 166,-42 226,-91 317,-260 108,-291 546,-438 93,-31 441,-390 480,-485 48,-119 5,-141 99,-233 66,-64 121,-89 165,-148 36,-49 15,-41 65,-92 36,-37 58,-44 95,-85 335,-372 -47,-589 -468,-541 -89,10 -154,48 -242,77 -247,80 -502,121 -724,263 -123,78 -252,153 -396,253 -296,206 -609,494 -821,786 -52,71 -101,135 -172,179 31,-438 41,-820 28,-1263 104,5 180,-20 263,-52 266,-103 205,-522 216,-764 118,65 171,449 482,440 418,-13 222,-367 230,-640 289,-11 459,-97 446,-390 131,-29 254,-128 270,-271 10,-88 -11,-167 -40,-234 -33,-76 -74,-106 -113,-175 128,-17 287,-115 320,-226 43,-145 -135,-272 -247,-301 196,-135 777,-259 104,-523 -167,-66 -296,-53 -481,-70l290 -243c77,-65 277,-204 259,-309 -48,-112 -200,-204 -299,-243 -201,-78 -261,-43 -474,-24l168 -293c-37,-138 -106,-197 -261,-213 -124,-13 -281,23 -369,78 -8,-190 57,-170 -17,-402 96,30 163,110 287,131 242,40 193,84 407,130 119,26 155,-3 189,124 71,260 103,347 341,488 195,115 167,-26 298,13 20,6 52,28 71,42 142,111 98,24 243,71 108,34 90,86 238,164 0,307 2,283 149,589l272 623c40,71 26,38 54,125 20,60 28,65 57,122 52,100 263,647 322,752 42,74 21,44 51,128l221 495c37,77 81,172 110,248l273 622c23,53 23,74 50,130 35,74 90,174 97,261l0 0 -180 268c-36,55 -56,63 -98,125l-126 210c-30,41 -25,28 -52,60 -34,40 -60,88 -88,136l-441 655c-36,55 -56,63 -98,125 -35,52 -53,88 -84,140l-359 514c-111,186 -241,353 -363,532l-379 561c-59,70 -95,160 -148,233 -40,56 -56,60 -98,126 -144,233 -90,128 -184,263l-166 259c69,-19 43,-11 99,-58 50,-42 2,-33 80,-54 -10,122 -95,154 -201,179 -44,38 -18,21 -61,31l-230 36c-253,60 -550,68 -776,186 -339,178 -557,140 -782,181l-626 135c-442,97 -321,-25 -517,-5 -12,1 -117,20 -154,28 -622,129 -607,203 -882,-33 -61,-52 -36,-47 -112,-89 -41,-23 -75,-32 -116,-63 -55,-41 -139,-134 -192,-188 -197,-201 -917,-870 -941,-984l-49 -1495c0,-903 -89,-2068 -90,-2971l0 -5c93,-45 160,-31 225,-110 44,-53 201,-614 227,-713 44,-164 82,-347 132,-517 140,-471 45,-408 193,-769 271,-665 -316,-435 -21,-916 22,-36 35,-59 60,-96 41,-61 35,-25 58,-100 7,-21 20,-455 20,-560 261,-61 83,-217 329,-275 227,-54 281,43 425,-157 50,-69 55,-143 146,-167 130,-35 260,41 404,-43 111,-65 128,-135 128,-297 113,-26 180,-14 308,-29 121,-15 136,19 267,2 446,-60 267,109 538,69 80,-12 166,-70 282,-86zm1828 9935l0 0z"/>
    <path class="fil1" d="M6020 5553c17,-141 100,-156 210,-273 3,-3 8,-8 11,-12l418 -344c91,-71 143,-131 230,-195l504 -344c88,-73 163,-123 241,-186 80,-64 164,-132 275,-130 -7,175 -157,162 -440,388 -137,109 -318,250 -499,355 -277,161 -266,261 -471,377 -196,111 -395,342 -479,363zm-391 411c230,-30 329,-82 522,-138 221,-65 251,-90 381,-244 222,-262 345,-209 421,-226 141,-33 174,-240 285,-344 123,-116 226,-55 438,-211 450,-331 195,-421 380,-558 263,-194 121,-86 327,-300 37,-39 120,-152 60,-180 -26,-12 -483,40 -523,51 -160,42 -341,89 -474,157 -159,82 -645,401 -763,508 -450,407 -246,174 -612,664 -187,250 -98,125 -220,252 -49,51 -31,48 -63,93 -69,96 -68,46 -103,207 -20,92 -41,178 -57,270z"/>
    <path class="fil1" d="M3724 4408c-198,-268 -418,-642 -667,-779 8,102 173,410 212,566 79,313 25,257 140,601 297,-43 247,24 313,445 21,135 61,257 94,400 136,26 156,15 177,163 18,129 33,141 77,251 81,202 18,83 193,142 96,33 84,134 114,222 33,97 68,142 100,237 150,450 202,194 331,339 40,45 73,165 115,229 39,-60 85,-211 106,-283 38,-131 76,-146 21,-274 -82,-191 -1,-133 -197,-521 -185,-368 -263,-583 -516,-917 -213,-281 -417,-555 -612,-819z"/>
    <path class="fil2" d="M4032 3427c167,-73 480,-486 611,-653 118,-151 437,-620 315,-917 -98,16 -248,207 -337,292 -124,119 -204,225 -283,368 -134,242 -429,599 -306,911z"/>
    <path class="fil2" d="M3058 1300c28,159 170,132 366,204 385,142 622,44 959,23 86,-5 395,-11 435,-63 -102,-61 -136,-12 -231,-22l-612 -261c-404,-120 -588,11 -918,118z"/>
    <path class="fil2" d="M6547 2100c-97,-267 -444,-718 -622,-614 32,97 13,32 85,101 41,40 201,605 294,801 40,86 382,729 476,775 11,-368 -114,-738 -232,-1063z"/>
    <path class="fil2" d="M5949 3575c190,-586 -14,-1646 -216,-1738 -154,-70 -3,756 8,889 15,199 -24,688 209,848z"/>
    <path class="fil2" d="M5920 979c315,19 643,67 949,77 210,7 712,-73 842,-174 -140,-127 -745,-128 -954,-129 -214,0 -808,71 -837,226z"/>
    <path class="fil2" d="M4965 1195c-74,-70 -105,-24 -228,-56 -86,-206 -185,-470 -446,-610 -351,-189 -420,-342 -706,-269 8,104 48,146 98,207 52,64 94,116 144,168 80,84 675,391 783,449 273,148 299,233 357,111z"/>
    <path class="fil2" d="M6384 560c224,-2 386,-27 618,5 32,-54 5,-30 30,-76 68,-127 427,-270 440,-481 -206,-122 -620,60 -672,113l-417 439z"/>
    <path class="fil2" d="M5112 932c-13,-108 -39,-133 -59,-220 -61,-261 -76,-784 -315,-1146 -55,-83 -158,-329 -211,-356 -81,495 231,1125 445,1558 35,70 72,128 140,164z"/>
    <path class="fil2" d="M5889 1180c16,22 17,46 25,77 262,-7 291,3 494,129l633 599c59,51 115,83 191,123 117,62 151,99 198,44 65,-76 18,-260 -208,-390 -160,-91 -248,-146 -402,-248 -416,-276 -824,-286 -931,-333z"/>
    <path class="fil2" d="M5738 763l307 -256c285,-223 753,-795 790,-1015 -368,96 -1092,1110 -1097,1271z"/>
    <path class="fil2" d="M5344 1956c-148,274 -219,297 -162,768 18,151 19,287 43,430 12,70 24,145 42,201 4,11 28,70 34,79l58 76c33,-258 107,-1375 -15,-1555z"/>
    <path class="fil2" d="M3127 2592c185,8 648,-281 784,-371 168,-111 652,-383 724,-470 -274,26 -1582,581 -1508,841z"/>
    <path class="fil3" d="M5325 1754c106,-117 43,-56 197,-95 61,-16 92,-42 126,-163 119,-417 -506,-453 -545,-99 -30,281 42,335 221,357z"/>
    <path class="fil2" d="M5443 670c72,-391 66,-1243 -55,-1599 -115,162 -126,575 -113,804 10,169 22,270 48,428 11,69 26,120 40,187 50,238 19,147 81,180z"/>
    <path class="fil2" d="M5774 144c103,-117 152,-218 360,-443 101,-109 74,-141 120,-287 37,-118 76,-211 50,-372 -204,65 -260,457 -417,591 -116,99 -145,86 -113,512z"/>
    <path class="fil2" d="M3849 2898c78,-173 278,-407 320,-546 -15,4 -412,234 -477,277 -120,79 -373,181 -299,384l33 9c4,0 12,2 16,2 4,0 11,0 16,-1 126,-18 203,-195 391,-125z"/>
    <path class="fil2" d="M4421 336c-21,-108 -70,-190 -102,-280 -133,-373 93,-122 -332,-588 -46,-50 -72,-56 -122,-87 21,198 111,565 248,678 337,274 87,196 308,277z"/>
    <path class="fil2" d="M3859 1786c-219,-3 -332,6 -538,-64 -161,-55 -255,101 -284,231 -29,128 72,85 163,76 89,-9 190,2 272,-24l293 -150c98,-60 59,1 78,-54 3,-10 12,-9 17,-14z"/>
    <path class="fil2" d="M7078 1390c60,42 109,83 168,122 102,69 339,45 362,-115 -141,-149 -499,-196 -724,-112 63,39 125,57 194,105z"/>
    <path class="fil2" d="M4653 3462c296,-380 299,-267 271,-499 -9,-73 5,-179 -25,-235 -42,55 -26,73 -56,135l-266 346c15,82 26,191 76,252z"/>
    <path class="fil2" d="M3199 860c144,95 191,126 292,115l310 -16 56 -18c-178,-41 -211,-131 -325,-191 -32,-17 -303,-88 -333,110z"/>
    <path class="fil2" d="M3445 -284c-31,78 9,159 63,231 66,89 108,103 252,101 -16,-86 -55,-140 -88,-240 -37,-113 -66,-143 -227,-92z"/>
    <path class="fil2" d="M6945 2546c232,26 245,79 227,-201 -116,-57 -197,-115 -295,-145l68 346z"/>
   </g>
   <path class="fil4" d="M5630 5965c16,-92 37,-178 57,-270 35,-161 34,-111 103,-207 32,-45 14,-42 63,-93 121,-127 33,-2 220,-252 366,-490 162,-257 612,-664 118,-107 605,-426 763,-508 132,-68 314,-115 474,-157 41,-11 497,-63 523,-51 60,28 -22,141 -60,180 -206,214 -64,106 -327,300 -185,137 69,227 -380,558 -212,156 -315,95 -438,211 -111,104 -144,311 -285,344 -76,18 -199,-36 -421,226 -131,154 -160,179 -381,244 -193,57 -292,109 -522,138zm-2573 -2336c249,137 469,511 667,779 195,264 399,539 612,819 253,334 331,549 516,917 195,388 115,330 197,521 55,128 17,143 -21,274 -21,72 -66,223 -106,283 -42,-64 -75,-184 -115,-229 -129,-145 -181,111 -331,-339 -32,-94 -66,-140 -100,-237 -30,-88 -18,-189 -114,-222 -175,-59 -112,60 -193,-142 -44,-111 -59,-122 -77,-251 -20,-148 -41,-137 -177,-163 -32,-143 -73,-265 -94,-400 -66,-421 -16,-488 -313,-445 -115,-343 -60,-288 -140,-601 -40,-156 -204,-463 -212,-566zm1596 -167c-50,-62 -61,-170 -76,-252l266 -346c31,-62 14,-80 56,-135 30,55 17,162 25,235 28,232 25,119 -271,499zm691 -1506c122,180 47,1297 15,1555l-58 -76c-5,-9 -30,-68 -34,-79 -18,-56 -31,-131 -42,-201 -24,-144 -25,-279 -43,-430 -57,-471 14,-494 162,-768zm-1495 942c-188,-70 -265,107 -391,125 -5,1 -11,1 -16,1 -4,0 -12,-2 -16,-2l-33 -9c-74,-203 179,-305 299,-384 65,-43 462,-272 477,-277 -42,139 -242,372 -320,546zm3027 -698c98,30 180,88 295,145 19,281 6,227 -227,201l-68 -346zm-2844 1227c-123,-313 172,-669 306,-911 79,-142 158,-249 283,-368 89,-84 238,-276 337,-292 122,297 -197,767 -315,917 -130,167 -444,580 -611,653zm1917 148c-233,-160 -193,-650 -209,-848 -10,-133 -162,-959 -8,-889 202,92 406,1152 216,1738zm-2090 -1789c-5,5 -14,4 -17,14 -18,55 21,-6 -78,54l-293 150c-82,26 -183,15 -272,24 -90,9 -191,53 -163,-76 29,-129 123,-285 284,-231 207,70 320,61 538,64zm-732 805c-74,-260 1233,-816 1508,-841 -72,87 -556,359 -724,470 -136,90 -599,380 -784,371zm2797 -1106c178,-104 525,348 622,614 118,325 243,696 232,1063 -94,-45 -436,-689 -476,-775 -92,-197 -253,-762 -294,-801 -71,-69 -53,-4 -85,-101zm-600 268c-179,-22 -251,-75 -221,-357 38,-354 663,-318 545,99 -34,121 -65,147 -126,163 -154,39 -91,-22 -197,95zm-2267 -455c330,-107 514,-238 918,-118l612 261c94,10 129,-40 231,22 -40,52 -349,57 -435,63 -337,22 -575,120 -959,-23 -196,-73 -338,-45 -366,-204zm3826 -15c225,-84 584,-37 724,112 -24,160 -260,184 -362,115 -59,-39 -108,-80 -168,-122 -69,-48 -131,-66 -194,-105zm-995 -105c107,47 514,58 931,333 154,102 242,156 402,248 227,130 273,314 208,390 -47,56 -81,19 -198,-44 -76,-41 -132,-72 -191,-123l-633 -599c-203,-125 -232,-135 -494,-129 -8,-30 -10,-54 -25,-77zm30 -200c29,-155 623,-226 837,-226 209,0 814,1 954,129 -130,101 -632,180 -842,174 -307,-10 -635,-58 -949,-77zm-2721 -119c30,-198 301,-127 333,-110 115,60 148,151 325,191l-56 18 -310 16c-101,11 -149,-20 -292,-115zm386 -600c286,-72 356,81 706,269 261,140 360,404 446,610 124,32 154,-13 228,56 -58,121 -84,37 -357,-111 -107,-58 -703,-365 -783,-449 -50,-52 -91,-105 -144,-168 -50,-61 -90,-103 -98,-207zm1858 410c-61,-33 -30,58 -81,-180 -14,-66 -29,-117 -40,-187 -25,-158 -38,-259 -48,-428 -13,-229 -2,-642 113,-804 122,356 127,1208 55,1599zm1358 -550c52,-53 466,-235 672,-113 -13,212 -372,354 -440,481 -25,46 2,22 -30,76 -233,-31 -394,-7 -618,-5l417 -439zm-3129 -313c33,101 72,154 88,240 -145,2 -187,-12 -252,-101 -53,-72 -94,-153 -63,-231 161,-51 190,-22 227,92zm1440 1124c-68,-36 -105,-94 -140,-164 -215,-433 -526,-1064 -445,-1558 54,28 157,273 211,356 239,362 254,885 315,1146 21,87 47,112 59,220zm626 -168c5,-160 730,-1174 1097,-1271 -37,220 -505,792 -790,1015l-307 256zm-1751 -1295c425,466 198,215 332,588 32,90 82,172 102,280 -221,-81 29,-3 -308,-277 -138,-112 -228,-480 -248,-678 51,31 77,37 122,87zm1788 676c-32,-426 -3,-412 113,-512 157,-134 213,-527 417,-591 27,161 -13,254 -50,372 -45,147 -19,178 -120,287 -208,225 -258,327 -360,443zm788 -1209c-113,-35 0,5 -73,-46 -34,-24 -39,-27 -83,-51 -65,-37 -90,-67 -165,-77 -253,126 -377,367 -483,620 -74,-243 -51,-648 -386,-602 -344,47 -291,432 -384,624 -95,-72 -93,-200 -160,-307l-198 -268c-116,-21 -229,-4 -311,41 -18,21 -98,358 -112,407 -154,-47 -152,-217 -471,-182 -272,30 -180,223 -166,436 -220,-17 -207,-15 -398,27 -49,532 20,255 159,564 -100,73 -159,69 -20,358l-49 22c-5,2 -12,4 -16,6 -231,89 -563,318 -200,505l82 41c4,2 12,6 17,9 -6,3 -15,1 -18,9l-356 168c-19,11 -41,25 -54,36 -140,128 135,260 229,323 -30,104 -382,437 -138,571l160 60c59,38 19,2 64,56 -120,68 -274,221 -276,390 129,143 243,156 452,128l-33 42c-2,3 -35,57 -35,58 -17,38 -30,85 -26,126 7,85 79,154 151,179 209,72 344,-77 475,-135 -14,104 -71,219 -60,308 64,547 688,98 717,87 28,100 37,148 121,207 290,45 305,-134 448,-289 38,49 48,95 70,153 106,280 143,291 438,249 76,866 -5,1777 -242,2534 -210,-238 -292,-679 -457,-932 -189,-289 -383,-523 -579,-807 -146,-212 -561,-831 -739,-983 -57,-49 -111,-103 -193,-167 -141,-110 -357,-168 -543,-55 -53,333 247,855 316,1222 29,153 105,319 186,441 65,99 58,105 191,79 40,150 120,709 221,783 157,116 58,-60 197,297 114,291 104,131 285,230 90,161 138,332 224,513 130,275 263,136 373,366 138,287 11,565 -147,803 -73,110 -109,109 -56,245 222,57 292,-200 382,-386 89,-184 181,-377 255,-577 82,-223 354,-995 420,-1229 212,25 353,-22 535,-95 142,-57 346,-100 467,-184 145,-100 209,-247 366,-280 93,-20 166,-42 226,-91 317,-260 108,-291 546,-438 93,-31 441,-390 480,-485 48,-119 5,-141 99,-233 66,-64 121,-89 165,-148 36,-49 15,-41 65,-92 36,-37 58,-44 95,-85 335,-372 -47,-589 -468,-541 -89,10 -154,48 -242,77 -247,80 -502,121 -724,263 -123,78 -252,153 -396,253 -296,206 -609,494 -821,786 -52,71 -101,135 -172,179 31,-438 41,-820 28,-1263 104,5 180,-20 263,-52 266,-103 205,-522 216,-764 118,65 171,449 482,440 418,-13 222,-367 230,-640 289,-11 459,-97 446,-390 131,-29 254,-128 270,-271 10,-88 -11,-167 -40,-234 -33,-76 -74,-106 -113,-175 128,-17 287,-115 320,-226 43,-145 -135,-272 -247,-301 196,-135 777,-259 104,-523 -167,-66 -296,-53 -481,-70l290 -243c77,-65 277,-204 259,-309 -48,-112 -200,-204 -299,-243 -201,-78 -261,-43 -474,-24l168 -293c-37,-138 -106,-197 -261,-213 -124,-13 -281,23 -369,78 -8,-190 57,-170 -17,-402z"/>
   <path class="fil5" d="M6020 5553c84,-21 283,-252 479,-363 206,-116 194,-216 471,-377 181,-105 362,-246 499,-355 283,-226 433,-213 440,-388 -111,-2 -195,66 -275,130 -78,63 -153,112 -241,186l-504 344c-87,65 -140,124 -230,195l-418 344c-3,3 -8,8 -11,12 -111,117 -193,132 -210,273z"/>
   <path class="fil5" d="M4607 6179c-46,-32 -116,-217 -211,-329 -99,-117 -70,-175 -203,-335 -87,-105 -165,-231 -224,-328 -122,-201 -216,-227 -181,-335 68,24 104,84 138,141 34,56 68,103 105,167l230 322c39,59 57,107 96,171l178 303c1,3 3,7 4,10 41,96 88,124 67,213z"/>
   <circle class="fil3 str0" cx="5371" cy="1455" r="304"/>
   <ellipse class="fil6 str1" transform="matrix(0.929963 0.671416 -0.602205 1.03684 4641.81 948.886)" rx="359" ry="128"/>
  </g>
 </g>
</svg>
