<?xml version="1.0" encoding="UTF-8"?>
<!DOCTYPE svg PUBLIC "-//W3C//DTD SVG 1.1//EN" "http://www.w3.org/Graphics/SVG/1.1/DTD/svg11.dtd">
<!-- Creator: CorelDRAW X5 -->
<svg xmlns="http://www.w3.org/2000/svg" xml:space="preserve" width="158.75mm" height="79.375mm" style="shape-rendering:geometricPrecision; text-rendering:geometricPrecision; image-rendering:optimizeQuality; fill-rule:evenodd; clip-rule:evenodd"
viewBox="0 0 15875 7938"
 xmlns:xlink="http://www.w3.org/1999/xlink">
 <defs>
  <style type="text/css">
   <![CDATA[
    .fil2 {fill:none}
    .fil0 {fill:#4D4D4D}
    .fil1 {fill:#605E6B}
    .fil5 {fill:#996633}
    .fil4 {fill:#CC3300}
    .fil6 {fill:#CCCCFF}
    .fil3 {fill:#FFFFCC}
   ]]>
  </style>
 </defs>
 <g id="Warstwa_x0020_1">
  <metadata id="CorelCorpID_0Corel-Layer"/>
  <g id="_314066280">
   <g>
    <path class="fil0" d="M11285 5165l76 2021c-266,18 -679,-16 -884,92 -74,-580 26,-1369 67,-1956l741 -157zm-3256 -1340c428,-56 1099,-126 1545,-149 529,-28 1119,22 1639,-31 326,-33 495,21 779,18 637,-6 1743,-67 2334,-137 15,703 143,2928 17,3472 -440,40 -927,-14 -1370,19 -404,30 -841,117 -1232,131 8,-296 -1,-316 -52,-584 -36,-190 -25,-397 -31,-604 -6,-212 -9,-431 -2,-641 8,-232 120,-365 -46,-487 -185,-109 -452,68 -672,112 -241,48 -423,10 -725,82 -65,280 -7,796 -31,1117 -18,249 -8,951 -65,1095l-1461 64c-200,10 -279,-28 -455,-18 -43,-1150 -145,-2285 -172,-3459zm215 -386c151,-203 173,-196 358,-358 122,-107 218,-215 348,-333 268,-244 426,-376 718,-644 492,-450 331,-284 787,-623 142,-105 228,-175 390,-291 130,-94 275,-172 402,-285 169,-149 232,-155 425,4l1089 956c75,76 102,149 170,221l912 786c106,76 244,193 354,289 -1547,218 -3679,61 -4786,172 -283,29 -953,117 -1168,106zm5433 -2764c16,498 -41,949 -7,1461 -128,-58 -42,-3 -142,-98 -187,-177 -192,-1086 -166,-1331l316 -32zm-2528 -288c-238,198 76,23 -458,390 -168,116 -328,274 -488,409 -170,143 -320,217 -494,358l-933 816c-276,275 -1098,1015 -1332,1341 158,378 106,574 112,1023 4,350 66,702 71,1016 6,346 -26,641 30,1014 23,154 35,354 17,521 -39,343 -26,122 130,361 339,-21 579,43 860,27l2692 -109c1203,-56 1172,-196 2621,-167 401,8 458,48 838,-51 162,-1376 38,-882 45,-2013 2,-365 44,-1949 -12,-2176l-505 -388c-379,-278 -150,-1849 -219,-2416 -316,-199 -224,-140 -565,-30 -336,109 -373,-47 -679,104l65 1010c-341,-126 -433,-443 -1033,-803 -35,-21 -80,-48 -104,-65 -241,-172 -269,-273 -658,-172z"/>
    <path class="fil1" d="M8625 5194l586 -101 9 1036 -543 93 -51 -1028zm-295 -185l49 1462c257,116 275,81 556,13 371,-90 394,86 639,35 42,-122 -58,-440 -56,-685 9,-1047 185,-1113 -893,-951 -131,20 -201,84 -294,125z"/>
    <path class="fil1" d="M12686 4835l565 -75 -33 1055 -477 -24c-113,-319 -76,-614 -55,-955zm-223 1179c111,49 829,151 1059,-4 49,-259 -49,-688 -5,-1047 59,-487 178,-646 -419,-460 -191,60 -386,17 -499,59 -151,56 -61,34 -147,155 -129,179 -63,-132 -97,216 -30,304 -28,866 108,1081z"/>
    <path class="fil1" d="M10856 6096c-121,57 -74,16 -100,176 181,118 582,138 384,-190 -94,-12 -189,-31 -284,14z"/>
   </g>
   <g>
    <path class="fil2" d="M11149 388c390,-101 417,0 658,172 24,17 69,44 104,65 600,360 692,677 1033,803l-65 -1010c306,-152 342,5 679,-104 341,-110 249,-169 565,30 69,567 -160,2137 219,2416l505 388c56,227 14,1812 12,2176 -7,1131 117,637 -45,2013 -380,100 -437,59 -838,51 -1449,-29 -1418,111 -2621,167l-2692 109c-281,15 -520,-48 -860,-27 -156,-238 -169,-17 -130,-361 19,-167 6,-367 -17,-521 -56,-373 -23,-668 -30,-1014 -6,-314 -67,-666 -71,-1016 -5,-449 47,-646 -112,-1023 234,-326 1056,-1065 1332,-1341l933 -816c174,-141 324,-215 494,-358 161,-135 320,-293 488,-409 534,-368 220,-193 458,-390zm2314 -1420l51 0c150,4 188,42 395,44 840,11 693,-75 1462,201 128,46 63,21 150,63l974 391c220,114 333,180 358,533l0 80 -213 2526c-16,265 -63,603 -82,856l-216 2556c-448,-10 -348,-207 -743,195 -6,6 -15,15 -21,21l-278 276c-36,35 -19,-13 -139,160 -150,217 -227,700 -397,1053 -754,-63 -647,-43 -1407,-43 -1043,0 -554,-48 -895,597 -346,0 -668,18 -946,35 -367,22 -652,-45 -824,-54 -157,-8 -114,46 -290,61l-211 0c-133,-12 -189,-45 -323,-37 -95,6 -167,29 -268,37l-126 0c-23,-2 -47,-4 -73,-8 -169,-23 -214,-25 -296,-174 -147,-269 -191,-372 -551,-429l-1846 -115c-285,25 -387,136 -520,336l-36 50c0,-267 -63,-644 -83,-898 -43,-544 -134,-2271 -198,-2702 -45,-304 -45,-608 -61,-920 -9,-189 -31,-288 -43,-351l0 -105c20,-47 80,-100 223,-259l929 -990c-173,-14 -282,-125 -384,-213 175,-41 579,-124 776,-119l-307 332c166,-4 1130,-389 1350,-483l1235 -513c126,-38 185,-34 284,-100 124,-84 64,-94 199,-142 192,-70 99,38 563,-162 200,-86 258,-187 514,-165l102 -158c14,-29 53,-142 57,-156 48,-155 38,-218 62,-407 59,-457 110,-334 454,-484 246,-108 401,-175 765,-173 396,2 739,-37 874,-42z"/>
    <path class="fil3" d="M8330 5009c94,-41 163,-105 294,-125 1078,-162 902,-96 893,951 -2,246 97,564 56,685 -244,50 -267,-126 -639,-35 -281,68 -298,103 -556,-13l-49 -1462zm4132 1005c-137,-215 -138,-777 -108,-1081 34,-348 -31,-37 97,-216 87,-121 -3,-98 147,-155 113,-42 308,1 499,-59 597,-186 478,-27 419,460 -43,359 54,788 5,1047 -231,154 -948,53 -1059,4zm-4434 -2189c27,1174 129,2309 172,3459 176,-10 255,28 455,18l1461 -64c58,-143 47,-846 65,-1095 24,-321 -34,-837 31,-1117 302,-72 483,-33 725,-82 220,-44 486,-221 672,-112 166,123 55,255 46,487 -8,210 -5,430 2,641 6,207 -4,414 31,604 50,268 60,288 52,584 391,-14 829,-101 1232,-131 443,-33 930,21 1370,-19 126,-544 -1,-2770 -17,-3472 -591,70 -1697,130 -2334,137 -284,3 -453,-52 -779,-18 -521,53 -1111,3 -1639,31 -445,24 -1116,93 -1545,149z"/>
    <path class="fil4" d="M8244 3439c215,11 884,-78 1168,-106 1108,-111 3239,46 4786,-172 -110,-95 -247,-213 -354,-289l-912 -786c-68,-72 -95,-145 -170,-221l-1089 -956c-193,-158 -256,-153 -425,-4 -128,113 -272,191 -402,285 -162,116 -248,186 -390,291 -456,338 -296,172 -787,623 -292,268 -450,400 -718,644 -130,118 -226,226 -348,333 -185,163 -207,155 -358,358z"/>
    <path class="fil5" d="M11141 6083c198,328 -203,308 -384,190 26,-160 -21,-120 100,-176 96,-45 191,-25 284,-14zm-597 -761c-41,586 -141,1376 -67,1956 205,-107 618,-73 884,-92l-76 -2021 -741 157z"/>
    <polygon class="fil6" points="8676,6222 9219,6129 9210,5093 8625,5194 "/>
    <path class="fil6" d="M12686 4835c-21,341 -58,636 55,955l477 24 33 -1055 -565 75z"/>
    <path class="fil4" d="M13362 708c-26,245 -21,1154 166,1331 100,95 14,39 142,98 -34,-512 23,-963 7,-1461l-316 32z"/>
   </g>
  </g>
 </g>
</svg>
