<?xml version="1.0" encoding="UTF-8"?>
<!DOCTYPE svg PUBLIC "-//W3C//DTD SVG 1.1//EN" "http://www.w3.org/Graphics/SVG/1.1/DTD/svg11.dtd">
<!-- Creator: CorelDRAW X5 -->
<svg xmlns="http://www.w3.org/2000/svg" xml:space="preserve" width="158.75mm" height="79.375mm" style="shape-rendering:geometricPrecision; text-rendering:geometricPrecision; image-rendering:optimizeQuality; fill-rule:evenodd; clip-rule:evenodd"
viewBox="0 0 15875 7938"
 xmlns:xlink="http://www.w3.org/1999/xlink">
 <defs>
  <style type="text/css">
   <![CDATA[
    .fil0 {fill:none}
    .fil2 {fill:#5D5A68}
    .fil4 {fill:#615F6C}
    .fil1 {fill:whitesmoke}
    .fil3 {fill:#FFFFCC}
   ]]>
  </style>
 </defs>
 <g id="Warstwa_x0020_1">
  <metadata id="CorelCorpID_0Corel-Layer"/>
  <g id="_316815976">
   <g>
    <path class="fil0" d="M10482 -253c-93,-177 -150,-163 -111,-358 59,-299 158,-744 588,-854 614,-158 729,551 792,984 693,111 1155,690 1021,1225 -49,195 -362,629 -627,654 -173,16 -591,-98 -726,-276 -570,331 -1031,794 -1525,1189l-1010 889c-155,142 -147,130 -126,336 62,591 -85,939 -800,1078 -687,134 -804,-845 -651,-1099 -546,309 -1184,-402 -1046,-800 322,-924 1016,-737 1179,-820 140,-71 268,-176 421,-257 770,-404 1262,-796 1926,-1329 212,-170 484,-378 695,-561zm-3503 5948l-163 -241c-62,-112 -120,-232 -184,-334 -184,-290 -881,-1216 -874,-1373 6,-155 192,-318 231,-437 36,-109 103,-357 99,-463 -29,-669 -42,-430 -237,-672 211,-1 260,109 522,-115 54,-46 140,-145 209,-202 121,-99 88,-33 222,-148 179,-153 343,-260 513,-408 332,-290 -400,-542 164,-956 164,-121 354,-298 506,-371 303,-146 722,-634 992,-400 56,-158 -44,-194 134,-361l346 -245c145,-110 214,-81 392,-238 124,-109 189,-116 373,-240 179,96 201,136 436,-11 406,-255 137,-89 442,-301 450,-312 558,-391 599,-727l739 914c256,266 506,526 757,820l1478 1827 -4068 2232c-193,103 -323,237 -501,222 -353,-30 -300,-28 -880,491 -112,101 -329,255 -416,353 -102,114 -29,79 -207,201 -400,277 -29,192 -464,585 -142,128 -317,263 -435,374 -323,305 -176,235 -298,376l-235 -31c-74,-18 -136,-62 -192,-122z"/>
    <path class="fil1" d="M6897 2231c-873,446 -72,1142 229,1071 229,-54 119,-244 433,-247l123 310c-76,143 -124,68 -161,245 -35,170 57,706 399,693 874,-32 440,-899 479,-880l35 -73c135,-236 441,-488 636,-670 271,-253 538,-486 814,-735 82,-74 1349,-1168 1562,-1156 123,7 124,62 107,150 232,-121 582,544 950,-104 208,-367 -351,-1095 -897,-1006 -108,18 -251,81 -274,-152 -6,-62 -3,-34 6,-77 17,-79 86,-141 91,-268 19,-534 -600,-750 -734,-169 -86,372 98,323 93,548 -7,310 -117,262 -394,467 -840,623 -1346,1117 -2332,1658 -231,127 -369,204 -591,350 -252,166 -351,78 -573,44z"/>
   </g>
   <path class="fil2" d="M6897 2231c222,34 321,121 573,-44 222,-146 360,-223 591,-350 987,-541 1492,-1035 2332,-1658 277,-205 386,-157 394,-467 5,-225 -179,-176 -93,-548 134,-581 753,-365 734,169 -5,127 -74,188 -91,268 -10,44 -13,15 -6,77 23,233 166,170 274,152 546,-90 1105,639 897,1006 -368,648 -718,-17 -950,104 17,-89 17,-144 -107,-150 -213,-11 -1480,1083 -1562,1156 -276,248 -543,481 -814,735 -195,182 -501,434 -636,670l-35 73c-39,-19 395,847 -479,880 -342,13 -434,-523 -399,-693 36,-177 85,-101 161,-245l-123 -310c-314,3 -203,193 -433,247 -301,71 -1102,-625 -229,-1071zm3585 -2483c-210,184 -483,392 -695,561 -663,532 -1156,925 -1926,1329 -153,80 -281,186 -421,257 -163,83 -857,-104 -1179,820 -139,397 500,1109 1046,800 -153,254 -36,1233 651,1099 715,-139 862,-487 800,-1078 -21,-206 -29,-194 126,-336l1010 -889c494,-395 955,-858 1525,-1189 135,179 553,293 726,276 265,-25 578,-459 627,-654 135,-535 -328,-1114 -1021,-1225 -64,-433 -179,-1142 -792,-984 -430,111 -529,555 -588,854 -39,196 18,182 111,358z"/>
  </g>
  <g id="_447115120">
   <g>
    <path class="fil3" d="M7604 -774c37,26 78,44 121,57 81,-166 588,-958 783,-815 -49,132 -344,226 -603,807 -28,64 -42,67 -88,119l117 108c74,-26 164,-104 238,-148 95,-57 166,-93 262,-144 180,-95 242,-114 407,-186l147 -56c-65,-254 -242,-452 -450,-546 -182,-83 -588,-192 -807,-190 0,136 -49,332 -56,495 -8,194 -28,335 -70,500z"/>
    <path class="fil3" d="M7977 -300c124,-34 392,-33 533,-17 222,26 248,39 423,136 98,-166 155,-620 52,-800 -91,100 -924,407 -1008,681z"/>
    <path class="fil3" d="M5877 724c-2,-82 -17,-55 43,-102 138,-107 636,-229 730,-284 -71,-34 -412,-46 -523,-8 -86,30 -335,157 -395,212 45,228 238,494 366,597 117,-24 121,-46 205,-133l446 -540c-161,-27 -316,52 -456,103 -246,90 -250,175 -417,155z"/>
    <path class="fil3" d="M7126 -1765c-18,99 140,704 110,949l191 1c97,-205 81,-548 152,-890 17,-81 28,-95 -70,-97 -123,-3 -253,34 -382,37z"/>
    <path class="fil3" d="M6855 -291c128,-30 125,22 205,76 71,48 140,40 219,65 37,-131 13,-83 -149,-192 -53,-35 -64,-45 -89,-95l-53 -116c-97,132 -96,36 -164,262 -39,128 -20,253 -7,391 29,298 143,351 386,440l168 -448c-184,-40 -343,176 -487,99 -2,-88 1,-53 219,-144l270 -91c-228,-24 -437,-42 -518,-247z"/>
    <path class="fil3" d="M7974 -214c-13,131 11,109 88,163 136,96 325,255 426,389 101,-34 376,-308 408,-450 -657,-206 -334,-89 -922,-102z"/>
    <path class="fil3" d="M6577 -1606c19,80 145,293 194,419 49,125 89,368 161,478 66,-14 105,-41 173,-57 -27,-271 -75,-701 -160,-940 -117,-3 -292,37 -368,101z"/>
    <path class="fil3" d="M6359 45c-223,-14 -540,-89 -790,-124 12,94 22,52 31,159 11,134 62,238 86,358 97,-29 196,-138 403,-201 208,-63 342,-4 541,-19l-24 -149c-82,43 -125,-16 -248,-23z"/>
    <path class="fil3" d="M5788 -939c229,169 175,127 417,266 146,84 350,132 440,239l112 -123c-113,-44 -113,-80 -179,-157 -105,-124 -245,-225 -387,-317 -80,-52 -139,-102 -222,-155 -74,42 -166,165 -181,247z"/>
    <path class="fil3" d="M6193 1243c69,37 223,145 295,137 79,-9 128,-152 180,-229 60,-89 309,-406 271,-541 -246,-98 -438,450 -746,634z"/>
    <path class="fil3" d="M7830 313c8,94 -10,204 22,272 127,26 487,-116 556,-191 -37,-114 -302,-261 -437,-366 -77,18 -66,45 -182,39 -1,56 34,153 42,245z"/>
    <path class="fil3" d="M5556 -154c99,4 1010,128 1044,141l-9 -111c-167,-83 -268,-150 -438,-181 -188,-34 -378,-60 -573,-83l-23 234z"/>
    <path class="fil3" d="M6085 -1310c38,93 206,187 327,280 218,168 188,170 334,296 -7,-89 -88,-333 -127,-428 -51,-125 -152,-272 -183,-370 -127,28 -300,152 -352,223z"/>
    <path class="fil3" d="M7044 1444c16,-35 129,-701 125,-747l-88 -20c-12,14 -122,244 -221,387 -63,92 -211,273 -233,376 88,13 324,31 417,5z"/>
    <path class="fil3" d="M5605 -475c80,3 708,90 796,124 75,29 144,78 215,94 -156,-212 -164,-185 -422,-295 -86,-37 -162,-73 -237,-115 -75,-42 -162,-114 -247,-128 -54,91 -93,210 -105,320z"/>
    <path class="fil3" d="M7581 53c-29,21 -6,2 -32,29 -85,91 -222,391 -226,493 137,29 245,37 395,30 27,-130 -34,-480 -137,-553z"/>
    <path class="fil3" d="M7370 1422c8,-37 49,-639 44,-674l-122 -12c-26,121 -51,240 -74,369 -43,240 -79,198 -73,337l225 -20z"/>
    <path class="fil3" d="M7087 -606l108 163c27,29 119,94 164,118l167 -133c-208,-128 -140,-253 -262,-208l-177 59z"/>
    <path class="fil3" d="M7493 1340c177,-43 171,-379 153,-503 -5,-37 -4,-23 -12,-48l-15 -30c-94,3 -83,-3 -93,97 -18,173 -38,305 -32,484z"/>
    <path class="fil3" d="M7515 -202c69,127 187,131 286,40 -57,-34 -154,-127 -219,-138l-66 97z"/>
    <path class="fil3" d="M7680 -347c66,46 102,93 140,113 -2,-37 -3,-70 -11,-103 0,-1 -13,-41 -13,-41 -40,-92 57,89 -22,-38 -2,-3 -6,-8 -9,-12 -44,24 -70,50 -86,80z"/>
   </g>
   <path class="fil4" d="M7493 1340c-7,-179 14,-311 32,-484 10,-100 -1,-94 93,-97l15 30c8,25 7,11 12,48 18,124 24,460 -153,503zm-123 82l-225 20c-6,-139 29,-97 73,-337 23,-130 49,-249 74,-369l122 12c5,35 -36,637 -44,674zm-326 22c-93,27 -329,8 -417,-5 21,-102 169,-284 233,-376 99,-143 209,-374 221,-387l88 20c5,46 -109,713 -125,747zm-851 -201c309,-184 501,-732 746,-634 37,135 -211,453 -271,541 -53,77 -102,221 -180,229 -72,8 -226,-99 -295,-137zm1388 -1189c103,72 163,423 137,553 -150,7 -258,-1 -395,-30 4,-101 141,-401 226,-493 25,-27 3,-8 32,-29zm-1704 671c166,20 171,-65 417,-155 140,-51 296,-130 456,-103l-446 540c-83,87 -88,109 -205,133 -128,-103 -321,-369 -366,-597 59,-54 309,-182 395,-212 110,-38 451,-26 523,8 -94,54 -592,177 -730,284 -61,47 -46,20 -43,102zm1911 -657c116,6 105,-21 182,-39 136,105 400,251 437,366 -69,74 -429,216 -556,191 -31,-68 -14,-178 -22,-272 -8,-93 -43,-189 -42,-245zm-2219 -147c250,35 568,111 790,124 122,8 166,66 248,23l24 149c-200,15 -333,-44 -541,19 -207,63 -306,172 -403,201 -25,-120 -75,-224 -86,-358 -9,-107 -19,-65 -31,-159zm2406 -135c588,14 266,-104 922,102 -32,142 -307,416 -408,450 -101,-134 -290,-294 -426,-389 -77,-54 -101,-33 -88,-163zm-394 -86c65,10 163,104 219,138 -99,91 -217,87 -286,-40l66 -97zm-2002 -89c195,23 385,48 573,83 171,31 272,98 438,181l9 111c-34,-14 -944,-137 -1044,-141l23 -234zm1276 97c82,205 291,223 518,247l-270 91c-218,91 -221,55 -219,144 144,77 303,-139 487,-99l-168 448c-244,-89 -357,-142 -386,-440 -13,-138 -32,-263 7,-391 68,-225 67,-130 164,-262l53 116c25,51 36,60 89,95 162,109 185,60 149,192 -78,-24 -148,-17 -219,-65 -80,-54 -77,-106 -205,-76zm955 -46c8,34 8,67 11,103 -38,-21 -75,-68 -140,-113 16,-30 42,-57 86,-80 3,4 7,9 9,12 79,126 -18,-55 22,38 0,0 12,40 13,41zm-2204 -138c12,-109 52,-228 105,-320 85,13 172,86 247,128 76,42 151,78 237,115 258,110 265,83 422,295 -71,-16 -140,-65 -215,-94 -88,-34 -715,-121 -796,-124zm2372 175c84,-274 917,-580 1008,-681 103,180 46,634 -52,800 -175,-97 -201,-110 -423,-136 -141,-16 -410,-17 -533,17zm-713 -365c121,-46 54,80 262,208l-167 133c-45,-25 -137,-90 -164,-118l-108 -163 177 -59zm-1476 -274c16,-82 108,-205 181,-247 83,53 141,103 222,155 142,92 282,193 387,317 65,77 66,113 179,157l-112 123c-90,-107 -294,-155 -440,-239 -242,-139 -188,-97 -417,-266zm296 -370c51,-71 225,-195 352,-223 31,98 132,245 183,370 38,95 119,339 127,428 -146,-126 -116,-128 -334,-296 -120,-92 -288,-187 -327,-280zm1520 536c42,-165 62,-306 70,-500 7,-164 56,-359 56,-495 219,-2 625,108 807,190 208,94 385,293 450,546l-147 56c-165,73 -227,91 -407,186 -96,51 -168,88 -262,144 -75,44 -164,122 -238,148l-117 -108c46,-53 60,-55 88,-119 260,-581 554,-675 603,-807 -195,-143 -702,649 -783,815 -43,-13 -84,-31 -121,-57zm-1027 -832c76,-64 251,-104 368,-101 84,239 133,669 160,940 -67,16 -106,44 -173,57 -72,-110 -111,-352 -161,-478 -50,-126 -175,-338 -194,-419zm549 -159c129,-3 259,-39 382,-37 98,2 87,16 70,97 -71,341 -55,685 -152,890l-191 -1c31,-246 -127,-850 -110,-949zm-1750 1196c0,51 5,135 -2,183 -11,73 -29,54 -39,150 -7,102 -35,106 9,290 152,633 338,1135 903,1432 416,219 1368,206 1541,-126 69,-134 86,-427 66,-601 471,-44 824,-311 1095,-626 292,-339 360,-981 156,-1357 -187,-345 -313,-440 -633,-534 -723,-213 -1224,-254 -1963,-15 -364,118 -645,359 -832,615 -261,357 -181,381 -270,546 -24,45 1,14 -31,42z"/>
  </g>
 </g>
</svg>
